<svg xmlns="http://www.w3.org/2000/svg" xmlns:xlink="http://www.w3.org/1999/xlink" width="500" zoomAndPan="magnify" viewBox="0 0 375 374.999991" height="500" preserveAspectRatio="xMidYMid meet" version="1.0"><defs><g/><clipPath id="7d4b4493ab"><path d="M 163 55.648438 L 242 55.648438 L 242 123 L 163 123 Z M 163 55.648438 " clip-rule="nonzero"/></clipPath><clipPath id="f4f7f88873"><path d="M 112.5 110 L 153 110 L 153 138 L 112.5 138 Z M 112.5 110 " clip-rule="nonzero"/></clipPath><clipPath id="e75cbb2fba"><path d="M 234 110 L 262.5 110 L 262.5 138 L 234 138 Z M 234 110 " clip-rule="nonzero"/></clipPath><clipPath id="ffc1fbb789"><path d="M 196 166 L 206 166 L 206 187.648438 L 196 187.648438 Z M 196 166 " clip-rule="nonzero"/></clipPath><clipPath id="93a6f020ee"><path d="M 167 170 L 177 170 L 177 187.648438 L 167 187.648438 Z M 167 170 " clip-rule="nonzero"/></clipPath></defs><path fill="#ce0012" d="M 225.019531 128.097656 C 225.375 135.351562 223.523438 142.664062 220.5625 149.191406 C 222.652344 147.488281 224.488281 145.371094 226.199219 143.265625 C 230.839844 137.355469 234.679688 130.800781 237.441406 123.808594 C 237.761719 122.996094 237.703125 123.082031 237.539062 122.378906 C 235.839844 115.109375 232.667969 107.976562 227.710938 102.347656 C 230.847656 109.664062 232.3125 117.960938 230.664062 125.855469 C 229.984375 120.617188 228.789062 115.054688 225.414062 110.859375 C 225.21875 111.042969 225.261719 111.578125 225.160156 111.847656 C 224.964844 112.714844 224.765625 113.578125 224.566406 114.445312 C 224.503906 114.617188 224.519531 114.835938 224.367188 114.953125 C 223.625 108.941406 220.429688 103.28125 215.472656 99.746094 C 215.296875 99.628906 214.476562 98.9375 214.753906 99.402344 C 220.519531 108.15625 221.636719 119.386719 219.207031 129.433594 C 219.195312 128.347656 219.296875 127.253906 219.328125 126.164062 C 219.324219 126.164062 219.320312 126.164062 219.316406 126.160156 C 219.453125 116.003906 215.707031 104.109375 206.558594 98.730469 C 207.675781 100.265625 208.621094 101.9375 209.21875 103.757812 C 210.019531 106.042969 210.253906 108.449219 210.152344 110.859375 C 210.160156 110.898438 210.128906 110.949219 210.105469 110.960938 C 210.082031 110.964844 210.046875 110.949219 210.039062 110.929688 C 207.851562 104.425781 203.367188 100.683594 198.0625 96.785156 C 197.859375 96.53125 195.941406 95.234375 196.917969 96.203125 C 199.515625 98.722656 200.9375 102.519531 200.425781 106.113281 C 199.898438 103.996094 199.144531 101.980469 197.800781 100.222656 C 197.183594 99.378906 196.449219 98.660156 195.597656 98.054688 C 195.507812 98.015625 195.359375 97.839844 195.28125 97.933594 C 196.164062 100.011719 196.386719 102.355469 195.875 104.554688 C 193.722656 94.683594 182.453125 91.824219 173.992188 95.585938 C 173.898438 95.625 173.082031 95.941406 173.347656 96.011719 C 175.386719 95.765625 177.453125 95.773438 179.492188 96.046875 C 183.695312 96.414062 188.507812 100.046875 186.949219 104.699219 C 184.886719 110.09375 178.007812 116.742188 172.585938 118.714844 C 172.371094 118.8125 171.722656 118.875 171.804688 119.039062 C 178.417969 119.273438 187.875 115.300781 191.074219 109.285156 C 191.199219 110.75 190.539062 112.234375 189.878906 113.527344 C 188.359375 116.351562 185.675781 118.175781 183.207031 120.09375 C 180.699219 122.195312 178.429688 124.628906 176.710938 127.421875 C 176.523438 127.683594 174.515625 131.472656 175.496094 130.429688 C 183.773438 123.128906 193.550781 119.800781 195.527344 107.4375 C 197.515625 113.707031 197.46875 120.628906 194.828125 126.675781 C 199.949219 121.863281 201.878906 114.625 201.996094 107.789062 C 204.800781 115.566406 204.128906 124.398438 200.761719 131.917969 C 199.589844 134.792969 197.804688 137.414062 196.332031 140.097656 C 200.921875 136.90625 204.136719 131.941406 206.515625 126.957031 C 208.152344 122.621094 208.398438 117.878906 208.550781 113.320312 C 212.597656 122.183594 211.695312 132.34375 208.890625 141.40625 C 212.636719 137 215.179688 131.53125 216.25 125.839844 C 216.179688 129.707031 215.335938 133.546875 214.488281 137.308594 C 212.671875 145.363281 209.792969 153.136719 206.734375 160.773438 C 208.28125 158.816406 209.730469 156.726562 211.164062 154.667969 C 216.722656 146.386719 222.433594 137.8125 225.019531 128.097656 Z M 225.019531 128.097656 " fill-opacity="1" fill-rule="nonzero"/><g clip-path="url(#7d4b4493ab)"><path fill="#ce0012" d="M 163.976562 79.574219 C 165.285156 79.273438 166.585938 78.964844 167.921875 78.828125 C 168.503906 78.652344 169.777344 80.085938 170.199219 80.53125 C 170.382812 80.757812 170.578125 80.839844 170.878906 80.789062 C 172.011719 80.59375 173.152344 80.421875 174.285156 80.242188 C 174.523438 80.207031 174.722656 80.101562 174.917969 79.964844 C 177.976562 77.78125 181.089844 75.671875 184.117188 73.445312 C 186.832031 71.660156 190.242188 71.316406 193.371094 70.675781 C 197.332031 70.09375 201.476562 69.910156 205.402344 70.558594 C 201.152344 71.601562 196.765625 73.75 194.503906 77.652344 C 196.753906 76.273438 199.339844 75.46875 201.96875 75.15625 C 203.3125 74.960938 204.671875 75.007812 206.023438 75.09375 C 206.214844 75.105469 206.429688 75.03125 206.597656 75.199219 C 204.390625 76.074219 202.0625 77.105469 200.316406 78.664062 C 203.609375 78.078125 207.113281 77.472656 210.496094 77.574219 C 206.910156 78.863281 203.847656 81.445312 201.835938 84.703125 C 201.761719 84.945312 202.167969 84.636719 202.25 84.617188 C 205.433594 82.976562 209.132812 82.742188 212.652344 83.023438 C 223.21875 83.902344 231.996094 92.128906 235.84375 101.652344 C 232.820312 99.367188 229.3125 97.613281 225.617188 96.777344 C 232.863281 103.832031 238.746094 112.457031 241.863281 122.109375 C 242.734375 110.628906 238.410156 99.171875 231.703125 89.996094 C 234.75 91.164062 237.550781 93.089844 239.933594 95.289062 C 237.386719 89.277344 232.675781 84.371094 227.921875 80 C 231.066406 81.199219 234.066406 82.929688 236.765625 84.925781 C 233.394531 79.6875 228.253906 75.695312 223.265625 72.054688 C 227.359375 73.414062 231.304688 75.441406 234.945312 77.753906 C 232.367188 74.238281 228.957031 71.25 225.332031 68.796875 C 224.613281 68.324219 223.875 67.882812 223.152344 67.421875 C 222.96875 67.308594 222.828125 67.292969 222.644531 67.4375 C 219.15625 70.117188 214.777344 71.679688 210.386719 71.808594 C 212.417969 70.992188 214.636719 70.316406 216.382812 68.980469 C 213.59375 69.363281 210.734375 69.484375 207.941406 69.234375 C 206.96875 69.152344 205.996094 69.074219 205.023438 69 C 204.976562 69.003906 204.957031 68.960938 204.929688 68.929688 C 210.980469 68 217.464844 67.703125 222.945312 64.730469 C 221.140625 64.875 219.257812 65.1875 217.460938 64.976562 C 221.707031 63.515625 225.886719 61.53125 229.097656 58.328125 C 224.015625 60.195312 218.800781 62.574219 213.269531 62.542969 C 215.023438 61.992188 216.855469 61.265625 218.308594 60.167969 C 215.191406 60.851562 211.878906 61.203125 208.707031 60.707031 C 211.011719 59.703125 213.496094 58.863281 215.644531 57.464844 C 215.679688 57.328125 215.386719 57.429688 215.316406 57.421875 C 211.023438 58.140625 206.714844 58.761719 202.410156 59.414062 C 200.464844 59.699219 198.515625 59.976562 196.554688 60.125 C 196.488281 60.128906 196.378906 60.191406 196.347656 60.074219 C 198.972656 58.730469 201.902344 57.710938 204.167969 55.753906 C 200.851562 55.421875 197.414062 56.285156 194.25 57.269531 C 193.988281 57.433594 195.105469 58.945312 195.09375 59.285156 C 194.210938 59.050781 193.359375 58.550781 192.496094 58.203125 C 192.226562 58.082031 191.984375 58.0625 191.707031 58.183594 C 188.300781 59.484375 185.027344 61.207031 181.988281 63.160156 C 183.496094 61.105469 184.976562 58.910156 185.585938 56.386719 C 185.570312 56.007812 184.550781 57.265625 184.402344 57.339844 C 182.617188 59.078125 180.742188 60.730469 178.675781 62.125 C 178.097656 62.492188 178.460938 63.289062 178.289062 63.851562 C 178.042969 63.886719 178.117188 63.367188 177.882812 63.574219 C 177.085938 64.492188 176.363281 65.496094 175.585938 66.414062 C 175.726562 65.378906 176.132812 64.363281 176.507812 63.382812 C 176.546875 63.074219 175.613281 63.875 175.488281 63.90625 C 170.246094 67.269531 166.496094 72.570312 164.269531 78.324219 C 164.222656 78.554688 163.609375 79.703125 163.976562 79.574219 Z M 163.976562 79.574219 " fill-opacity="1" fill-rule="nonzero"/></g><path fill="#ce0012" d="M 204.886719 149.980469 C 202.097656 155.679688 198.078125 160.871094 193.171875 164.949219 C 190.972656 166.796875 188.59375 168.417969 186.03125 169.722656 C 185.898438 169.804688 185.832031 169.726562 185.78125 169.585938 C 180.769531 158.941406 179.28125 145.359375 186.464844 135.332031 C 187.125 134.417969 183.839844 136.933594 183.703125 137.058594 C 178.664062 141.273438 174.808594 147.015625 173.023438 153.320312 C 172.027344 147.429688 172.824219 141.21875 175.023438 135.667969 C 175.035156 135.582031 175.113281 135.492188 175.0625 135.421875 C 174.699219 135.730469 174.53125 136.246094 174.257812 136.644531 C 169.792969 144.332031 167.804688 154.253906 169.347656 162.878906 C 170.085938 161.886719 170.890625 160.941406 171.65625 159.96875 C 171.820312 159.757812 172.023438 159.589844 172.261719 159.472656 C 173.535156 158.878906 174.8125 158.167969 176.125 157.707031 C 175.664062 159.867188 174.910156 162.019531 174.34375 164.171875 C 174.261719 164.445312 174.285156 164.679688 174.40625 164.925781 C 177.179688 170.792969 180.632812 176.386719 185.140625 181.09375 C 185.308594 181.269531 185.480469 181.335938 185.714844 181.328125 C 186.28125 181.300781 186.847656 181.28125 187.417969 181.28125 C 188.570312 181.195312 191.296875 177.613281 192.210938 176.632812 C 196.007812 171.984375 199.035156 166.730469 201.347656 161.195312 C 202.847656 157.574219 204.121094 153.835938 204.886719 149.980469 Z M 204.886719 149.980469 " fill-opacity="1" fill-rule="nonzero"/><path fill="#ce0012" d="M 158.425781 118.371094 C 158.484375 118.402344 158.480469 118.476562 158.417969 118.503906 C 157.132812 119.121094 155.820312 119.683594 154.429688 120.027344 C 145.285156 122.296875 135.671875 120.160156 127.015625 117.085938 C 135.257812 121.972656 144.878906 123.71875 154.152344 125.636719 C 157.019531 126.3125 160.355469 126.917969 162.289062 129.347656 C 162.585938 129.675781 162.6875 130.28125 163.195312 130.332031 C 163.8125 130.410156 164.429688 130.496094 165.039062 130.648438 C 165.066406 131 163.921875 131.84375 164.28125 132.039062 C 164.695312 132.402344 168.605469 134.417969 168.683594 133.578125 C 169.433594 130.503906 170.425781 127.503906 171.582031 124.558594 C 171.679688 124.277344 171.070312 124.285156 170.902344 124.171875 C 167.433594 122.878906 163.820312 121.894531 160.449219 120.378906 C 160.5 120.214844 160.65625 120.242188 160.769531 120.207031 C 162.148438 119.839844 163.53125 119.492188 164.90625 119.109375 C 165.660156 118.902344 165.519531 119.023438 165.929688 118.285156 C 166.949219 116.335938 168.035156 114.417969 169.054688 112.464844 C 164.09375 111.65625 159.03125 110.730469 154.34375 108.742188 C 154.089844 108.640625 154.085938 108.640625 153.960938 108.90625 C 153.691406 109.390625 153.523438 109.960938 153.195312 110.40625 C 152.851562 109.683594 152.664062 108.871094 152.378906 108.113281 C 152.253906 107.722656 151.777344 107.695312 151.46875 107.507812 C 145.578125 104.769531 140.359375 100.648438 136.148438 95.777344 C 136.230469 96.164062 136.480469 96.519531 136.628906 96.890625 C 141.03125 106.371094 149.105469 113.8125 158.425781 118.371094 Z M 158.425781 118.371094 " fill-opacity="1" fill-rule="nonzero"/><path fill="#ce0012" d="M 125.347656 107.789062 C 125.507812 108.015625 125.703125 108.117188 125.96875 108.109375 C 126.449219 108.101562 126.929688 108.097656 127.410156 108.085938 C 127.6875 108.078125 127.964844 108.054688 128.238281 108.046875 C 128.386719 108.042969 128.417969 108.085938 128.386719 108.238281 C 128.246094 108.878906 128.117188 109.519531 127.953125 110.15625 C 127.8125 110.691406 128.53125 111.035156 128.820312 111.414062 C 132.152344 114.539062 130.84375 114.070312 135.324219 115.25 C 135.761719 115.371094 136.195312 115.484375 136.632812 115.597656 C 136.730469 115.617188 136.789062 115.550781 136.734375 115.457031 C 134.964844 112.386719 133.445312 109.058594 132.832031 105.558594 C 136.527344 108.75 140.679688 111.539062 145.125 113.570312 C 142.582031 110.859375 140.214844 107.914062 138.304688 104.695312 C 138.023438 104.261719 137.808594 103.753906 137.367188 103.453125 C 136.746094 103.015625 136.125 102.582031 135.519531 102.128906 C 134.085938 101.054688 132.65625 99.976562 131.230469 98.890625 C 131.035156 98.738281 130.835938 98.664062 130.59375 98.664062 C 130.066406 98.671875 129.542969 98.667969 129.019531 98.667969 C 129.019531 98.671875 129.019531 98.675781 129.019531 98.679688 C 128.625 98.699219 128.234375 98.71875 127.839844 98.734375 C 127.710938 98.707031 127.0625 98.863281 127.179688 98.613281 C 127.550781 97.820312 127.925781 97.035156 128.3125 96.25 C 128.414062 96.078125 128.257812 95.960938 128.128906 95.871094 C 122.640625 91.667969 118.101562 86.0625 116.039062 79.410156 C 115.296875 82.378906 115.527344 85.628906 115.941406 88.671875 C 117.039062 95.851562 120.691406 102.3125 125.347656 107.789062 Z M 125.347656 107.789062 " fill-opacity="1" fill-rule="nonzero"/><g clip-path="url(#f4f7f88873)"><path fill="#ce0012" d="M 145.460938 137.910156 C 140.09375 135.925781 134.914062 132.710938 131.785156 127.789062 C 138.300781 130.8125 145.800781 132.578125 152.980469 131.414062 C 137.777344 129.410156 122.007812 123.074219 112.824219 110.230469 C 112.785156 110.179688 112.722656 110.105469 112.667969 110.105469 C 112.5625 110.101562 112.597656 110.210938 112.589844 110.269531 C 112.5625 110.503906 112.53125 110.734375 112.523438 110.96875 C 112.015625 121.304688 120.210938 129.496094 129.066406 133.488281 C 134.210938 135.917969 139.804688 137.425781 145.460938 137.910156 Z M 145.460938 137.910156 " fill-opacity="1" fill-rule="nonzero"/></g><g clip-path="url(#e75cbb2fba)"><path fill="#ce0012" d="M 262.449219 110.460938 C 262.453125 110.164062 262.25 110.375 262.160156 110.507812 C 259.472656 114.144531 256.226562 117.339844 252.597656 120.035156 C 250.460938 121.628906 248.210938 123.054688 245.875 124.347656 C 245.617188 124.46875 245.722656 124.792969 245.699219 125.019531 C 245.699219 125.648438 245.699219 126.273438 245.699219 126.898438 C 245.695312 126.898438 245.691406 126.898438 245.683594 126.898438 C 245.566406 129.90625 246.261719 129.214844 244.125 129.824219 C 243.164062 130.152344 243.507812 128.957031 242.972656 129.710938 C 241.125 131.835938 238.964844 133.667969 236.582031 135.167969 C 235.511719 135.84375 235.546875 135.777344 234.914062 136.835938 C 234.761719 137.164062 234.128906 137.699219 234.972656 137.488281 C 248.347656 135.425781 263.496094 125.546875 262.449219 110.460938 Z M 262.449219 110.460938 " fill-opacity="1" fill-rule="nonzero"/></g><path fill="#ce0012" d="M 245.46875 113.210938 C 246.699219 111.847656 247.972656 110.53125 249.140625 109.117188 C 249.296875 108.9375 249.359375 108.765625 249.285156 108.523438 C 248.964844 107.386719 248.703125 106.238281 248.425781 105.09375 C 248.386719 104.917969 248.433594 104.871094 248.59375 104.894531 C 249.558594 105.058594 250.527344 105.179688 251.488281 105.320312 C 251.707031 105.355469 251.855469 105.285156 251.972656 105.109375 C 252.667969 104.089844 253.351562 103.054688 254.007812 102.007812 C 258.066406 95.347656 260.269531 87.195312 258.75 79.453125 C 256.449219 86.617188 251.285156 92.238281 245.476562 96.820312 C 246.804688 98.253906 248.558594 99.304688 249.976562 100.667969 C 250.007812 100.777344 249.859375 100.753906 249.792969 100.761719 C 247.105469 100.816406 244.964844 100.785156 242.667969 100.8125 C 242.320312 100.800781 242.765625 101.578125 242.777344 101.773438 C 244.070312 105.476562 244.667969 109.429688 245.46875 113.210938 Z M 245.46875 113.210938 " fill-opacity="1" fill-rule="nonzero"/><path fill="#ce0012" d="M 160.660156 104.890625 C 159.699219 101.691406 160.726562 97.910156 163.761719 96.207031 C 164.148438 95.980469 164.414062 95.691406 164.574219 95.28125 C 164.933594 94.417969 165.230469 93.417969 166.226562 93.109375 C 170.152344 91.652344 174.183594 90.488281 178.15625 89.15625 C 179.042969 88.898438 178.054688 88.875 177.730469 88.800781 C 173.140625 88.128906 168.609375 87.039062 164.011719 86.433594 C 163.882812 86.421875 163.847656 86.367188 163.925781 86.269531 C 164.199219 85.929688 164.449219 85.566406 164.757812 85.257812 C 165.679688 84.328125 166.726562 83.574219 167.941406 83.070312 C 168.023438 83.019531 168.289062 82.960938 168.140625 82.84375 C 166.617188 81.859375 164.441406 81.265625 162.851562 82.414062 C 162.214844 82.875 161.570312 83.320312 160.933594 83.785156 C 155.515625 87.164062 155.53125 94.605469 157.652344 99.96875 C 158.375 101.753906 159.265625 103.554688 160.660156 104.890625 Z M 160.660156 104.890625 " fill-opacity="1" fill-rule="nonzero"/><path fill="#ce0012" d="M 135.738281 149.527344 C 140.332031 150.621094 145.429688 151.066406 150.121094 149.601562 C 146.316406 148.449219 142.339844 147.058594 139.160156 144.539062 C 139.90625 144.535156 140.667969 144.804688 141.421875 144.859375 C 142.480469 144.988281 143.546875 144.964844 144.609375 144.960938 C 148.59375 144.84375 152.863281 143.90625 156.007812 141.390625 C 150.402344 143.425781 144.246094 143.160156 138.40625 142.359375 C 133.953125 141.835938 135.796875 140.863281 132.195312 143.117188 C 132.042969 143.160156 130.996094 143.964844 131.054688 143.632812 C 131.234375 142.824219 131.382812 142.007812 131.546875 141.191406 C 131.585938 140.980469 131.558594 140.949219 131.339844 140.890625 C 129.898438 140.546875 128.476562 140.109375 127.082031 139.605469 C 125.28125 138.976562 123.527344 138.226562 121.816406 137.386719 C 121.789062 137.375 121.738281 137.363281 121.738281 137.371094 C 121.71875 137.40625 121.695312 137.457031 121.707031 137.488281 C 123.0625 142.28125 126.964844 145.933594 131.414062 147.941406 C 132.054688 148.3125 132.273438 147.132812 132.832031 147.335938 C 133.375 147.589844 133.960938 147.71875 134.523438 147.917969 C 134.855469 148.023438 134.808594 148.425781 134.898438 148.703125 C 135.085938 149.484375 134.941406 149.347656 135.738281 149.527344 Z M 135.738281 149.527344 " fill-opacity="1" fill-rule="nonzero"/><path fill="#ce0012" d="M 244.917969 141.007812 C 244.8125 142.28125 244.71875 143.5625 244.609375 144.839844 C 244.578125 145.0625 244.5625 145.578125 244.285156 145.171875 C 243.292969 143.988281 242.300781 142.804688 241.316406 141.613281 C 241.269531 141.558594 241.210938 141.558594 241.175781 141.621094 C 240.671875 142.539062 240.253906 143.503906 239.785156 144.4375 C 239.742188 144.53125 239.664062 144.554688 239.609375 144.449219 C 239.175781 143.722656 238.730469 143.003906 238.292969 142.285156 C 238.191406 142.070312 238.003906 142.101562 237.804688 142.144531 C 236.6875 142.335938 235.566406 142.507812 234.433594 142.621094 C 233.386719 142.722656 232.339844 142.785156 231.292969 142.804688 C 231.015625 142.808594 230.824219 142.886719 230.660156 143.101562 C 230.328125 143.546875 229.976562 143.976562 229.636719 144.410156 C 229.558594 144.546875 229.136719 144.871094 229.410156 144.929688 C 231.90625 145.140625 234.40625 144.878906 236.851562 144.480469 C 233.703125 146.9375 229.859375 148.320312 226.175781 149.714844 C 230.839844 150.863281 235.921875 150.671875 240.613281 149.417969 C 241.253906 149.214844 240.765625 148.128906 241.460938 147.953125 C 242.082031 147.75 242.691406 147.503906 243.3125 147.296875 C 243.679688 147.167969 243.875 147.589844 244.105469 147.796875 C 244.320312 148.023438 244.351562 148.042969 244.632812 147.914062 C 249.058594 145.980469 253.066406 142.183594 254.144531 137.390625 C 251.300781 138.765625 248.308594 139.890625 245.230469 140.664062 C 244.972656 140.730469 244.941406 140.761719 244.917969 141.007812 Z M 244.917969 141.007812 " fill-opacity="1" fill-rule="nonzero"/><path fill="#ce0012" d="M 162.019531 155.121094 C 161.898438 155.0625 161.78125 155.1875 161.664062 155.222656 C 160.992188 155.535156 160.316406 155.84375 159.605469 156.070312 C 156.195312 157.136719 152.472656 157.488281 148.953125 156.972656 C 153.589844 155.820312 158.566406 153.761719 160.9375 149.347656 C 154.015625 155.242188 143.601562 156.074219 134.875 156.941406 C 138.382812 159.503906 142.640625 161.34375 147.019531 161.726562 C 147.25 161.746094 147.285156 161.710938 147.277344 161.5 C 147.273438 160.671875 147.140625 159.847656 147.089844 159.023438 C 147.742188 159.578125 148.285156 160.289062 148.890625 160.902344 C 149.03125 161.058594 149.175781 161.128906 149.386719 161.082031 C 152.597656 160.539062 155.773438 159.589844 158.574219 157.894531 C 159.8125 157.105469 161.078125 156.246094 162.019531 155.121094 Z M 162.019531 155.121094 " fill-opacity="1" fill-rule="nonzero"/><path fill="#ce0012" d="M 213.050781 158.851562 C 212.878906 158.75 212.835938 158.753906 212.710938 158.898438 C 212.269531 159.386719 212.269531 159.433594 212.445312 160.03125 C 213.429688 163.320312 213.046875 166.632812 211.789062 169.679688 C 211.613281 169.398438 211.640625 169.066406 211.578125 168.757812 C 211.324219 166.78125 210.699219 164.863281 209.867188 163.050781 C 209.824219 162.972656 209.757812 162.964844 209.703125 163.042969 C 209.386719 163.496094 209.066406 163.949219 208.761719 164.410156 C 208.394531 164.96875 208.140625 165.601562 207.6875 166.105469 C 207.417969 166.394531 207.777344 167.085938 207.863281 167.429688 C 209.09375 169.871094 210.316406 172.628906 209.425781 175.390625 C 209.277344 175.882812 209.066406 176.34375 208.757812 176.757812 C 208.617188 176.996094 208.363281 177.203125 208.308594 177.476562 C 213.679688 174.84375 216.066406 168.382812 214.585938 162.738281 C 215.808594 164.296875 216.695312 166.128906 217.382812 167.992188 C 217.46875 168.21875 217.585938 168.351562 217.84375 168.382812 C 219.800781 168.683594 221.761719 168.953125 223.726562 169.21875 C 225.070312 169.332031 225.238281 169.636719 224.289062 168.378906 C 221.433594 164.304688 217.320312 161.316406 213.050781 158.851562 Z M 213.050781 158.851562 " fill-opacity="1" fill-rule="nonzero"/><path fill="#ce0012" d="M 241.46875 156.875 C 235.816406 156.453125 230.179688 155.480469 224.71875 153.960938 C 224.539062 153.90625 224.359375 153.847656 224.175781 153.804688 C 223.878906 153.726562 223.855469 153.738281 223.675781 154.003906 C 223.433594 154.351562 223.195312 154.703125 222.960938 155.050781 C 222.894531 155.167969 222.707031 155.359375 222.890625 155.453125 C 224.707031 156.113281 226.640625 156.558594 228.453125 157.15625 C 225.734375 157.492188 222.945312 157.433594 220.230469 157.003906 C 218.476562 156.707031 216.75 156.296875 215.113281 155.574219 C 214.992188 155.523438 214.925781 155.554688 214.855469 155.644531 C 214.726562 155.824219 214.726562 155.90625 214.90625 156.050781 C 215.367188 156.429688 215.824219 156.816406 216.304688 157.171875 C 219.5 159.433594 223.339844 160.601562 227.175781 161.210938 C 227.566406 161.402344 227.832031 161.167969 228.074219 160.890625 C 228.664062 160.359375 229.164062 159.710938 229.816406 159.261719 C 229.824219 159.996094 229.699219 160.734375 229.671875 161.476562 C 229.621094 161.746094 229.867188 161.664062 230.042969 161.65625 C 230.042969 161.65625 230.042969 161.65625 230.042969 161.660156 C 234.15625 161.253906 238.007812 159.53125 241.359375 157.164062 C 241.46875 157.105469 241.714844 156.914062 241.46875 156.875 Z M 241.46875 156.875 " fill-opacity="1" fill-rule="nonzero"/><path fill="#ce0012" d="M 164.859375 162.296875 C 164.820312 162.015625 164.945312 161.496094 164.792969 161.191406 C 163.074219 164.042969 162.117188 167.398438 161.800781 170.710938 C 160.789062 167.886719 160.542969 164.695312 161.199219 161.738281 C 161.441406 160.703125 161.75 159.6875 162.265625 158.746094 C 162.367188 158.589844 162.386719 158.375 162.109375 158.515625 C 158.019531 160.179688 154.507812 162.976562 151.421875 166.097656 C 151.097656 166.300781 151.753906 168.117188 151.789062 168.589844 C 151.847656 168.84375 151.910156 169.101562 151.976562 169.351562 C 152.011719 169.550781 152.179688 169.515625 152.324219 169.476562 C 153.421875 169.1875 154.519531 168.898438 155.617188 168.609375 C 155.863281 168.542969 156.085938 168.441406 156.171875 168.175781 C 156.929688 166.199219 157.792969 164.121094 159.242188 162.578125 C 157.199219 167.839844 159.566406 174.410156 164.570312 177.074219 C 164.722656 177.054688 164.523438 176.839844 164.5 176.765625 C 162.757812 173.796875 163.875 170.089844 164.898438 167.050781 C 165.054688 166.632812 165.132812 166.238281 165.089844 165.785156 C 164.980469 164.652344 164.933594 163.515625 164.859375 162.296875 Z M 164.859375 162.296875 " fill-opacity="1" fill-rule="nonzero"/><g clip-path="url(#ffc1fbb789)"><path fill="#ce0012" d="M 203.253906 167.339844 C 203.007812 167.574219 202.96875 167.855469 202.996094 168.175781 C 203.210938 171.042969 203.105469 173.691406 201.902344 176.148438 C 201.691406 175.824219 201.609375 175.417969 201.414062 175.082031 C 201.328125 174.851562 200.085938 173.121094 199.933594 173.648438 C 199.308594 174.699219 198.550781 175.71875 197.984375 176.792969 C 198.15625 178.316406 198.316406 179.867188 198.074219 181.402344 C 197.875 183.453125 197.109375 185.433594 196.429688 187.324219 C 200.863281 184.367188 204.503906 179.644531 205.292969 174.269531 C 205.339844 171.847656 204.707031 169.460938 203.839844 167.21875 C 203.632812 166.5625 203.523438 167.089844 203.253906 167.339844 Z M 203.253906 167.339844 " fill-opacity="1" fill-rule="nonzero"/></g><g clip-path="url(#93a6f020ee)"><path fill="#ce0012" d="M 175.488281 177.746094 C 175.585938 177.472656 175.589844 177.242188 175.410156 177.007812 C 174.851562 176.070312 174.328125 175.113281 173.78125 174.167969 C 173.714844 174.066406 173.640625 173.828125 173.488281 173.953125 C 172.65625 174.621094 172.171875 175.574219 171.757812 176.527344 C 170.96875 174.804688 170.925781 172.839844 171.039062 170.972656 C 171.039062 170.878906 171.128906 170.753906 171.003906 170.703125 C 169.847656 171.554688 168.820312 172.675781 167.703125 173.597656 C 167.363281 173.84375 167.464844 174.152344 167.527344 174.5 C 168.609375 179.714844 171.714844 184.820312 176.441406 187.453125 C 176.734375 187.582031 176.03125 186.320312 176.03125 186.195312 C 175.007812 183.523438 174.53125 180.503906 175.488281 177.746094 Z M 175.488281 177.746094 " fill-opacity="1" fill-rule="nonzero"/></g><path fill="#ce0012" d="M 208.296875 142.210938 C 208.878906 140.742188 207.703125 136.257812 207.253906 134.605469 C 207.210938 134.460938 207.136719 134.519531 207.054688 134.585938 C 206.183594 135.867188 205.144531 137.011719 204.050781 138.097656 C 203.746094 138.378906 203.636719 138.707031 203.625 139.101562 C 203.269531 142.804688 201.976562 146.386719 200.410156 149.71875 C 203.347656 147.65625 206.007812 145.011719 208.296875 142.210938 Z M 208.296875 142.210938 " fill-opacity="1" fill-rule="nonzero"/><path fill="#ce0012" d="M 188.675781 77.003906 C 185.960938 77.042969 183.25 77.820312 180.910156 79.199219 C 180.414062 79.503906 179.941406 79.847656 179.460938 80.179688 C 179.277344 80.304688 179.277344 80.351562 179.445312 80.515625 C 179.640625 80.710938 179.839844 80.902344 180.058594 81.070312 C 183.871094 83.851562 188.648438 81.625 189.703125 77.199219 C 189.835938 76.847656 188.875 77.054688 188.675781 77.003906 Z M 188.675781 77.003906 " fill-opacity="1" fill-rule="nonzero"/><path fill="#ce0012" d="M 175.789062 90.925781 C 173.324219 91.660156 170.878906 92.476562 168.433594 93.273438 C 167.535156 93.59375 166.492188 93.878906 166.058594 94.824219 C 165.667969 95.5625 165.367188 96.398438 164.671875 96.910156 C 163.835938 97.570312 163.113281 98.363281 162.464844 99.203125 C 162.421875 99.285156 162.46875 99.375 162.574219 99.34375 C 163.515625 99 164.496094 98.761719 165.414062 98.359375 C 167.476562 97.410156 167.851562 97.363281 168.363281 95.085938 C 168.414062 94.792969 168.703125 94.71875 168.925781 94.59375 C 171.246094 93.4375 173.609375 92.269531 175.835938 90.96875 C 175.824219 90.953125 175.804688 90.925781 175.789062 90.925781 Z M 175.789062 90.925781 " fill-opacity="1" fill-rule="nonzero"/><path fill="#ce0012" d="M 239.988281 127.421875 C 239.820312 127.496094 239.703125 127.617188 239.632812 127.785156 C 239.253906 128.703125 238.714844 129.617188 238.390625 130.539062 C 238.476562 130.640625 238.570312 130.523438 238.65625 130.496094 C 240.011719 129.941406 241.546875 129.535156 242.738281 128.707031 C 242.265625 128.136719 241.789062 127.570312 241.304688 127.011719 C 241.148438 126.773438 240.261719 127.363281 239.988281 127.421875 Z M 239.988281 127.421875 " fill-opacity="1" fill-rule="nonzero"/><g fill="#000000" fill-opacity="1"><g transform="translate(72.22823, 214.429337)"><g><path d="M 2.28125 -14 L 7.984375 -14 C 9.460938 -14 10.765625 -13.703125 11.890625 -13.109375 C 13.023438 -12.515625 13.90625 -11.6875 14.53125 -10.625 C 15.164062 -9.570312 15.484375 -8.363281 15.484375 -7 C 15.484375 -5.632812 15.164062 -4.421875 14.53125 -3.359375 C 13.90625 -2.304688 13.023438 -1.484375 11.890625 -0.890625 C 10.765625 -0.296875 9.460938 0 7.984375 0 L 2.28125 0 Z M 7.90625 -1.28125 C 9.125 -1.28125 10.191406 -1.519531 11.109375 -2 C 12.035156 -2.488281 12.75 -3.160156 13.25 -4.015625 C 13.757812 -4.878906 14.015625 -5.875 14.015625 -7 C 14.015625 -8.125 13.757812 -9.113281 13.25 -9.96875 C 12.75 -10.832031 12.035156 -11.503906 11.109375 -11.984375 C 10.191406 -12.472656 9.125 -12.71875 7.90625 -12.71875 L 3.765625 -12.71875 L 3.765625 -1.28125 Z M 7.90625 -1.28125 "/></g></g></g><g fill="#000000" fill-opacity="1"><g transform="translate(104.741728, 214.429337)"><g><path d="M 11.0625 -3.734375 L 3.265625 -3.734375 L 1.578125 0 L 0.046875 0 L 6.4375 -14 L 7.90625 -14 L 14.296875 0 L 12.734375 0 Z M 10.515625 -4.9375 L 7.15625 -12.453125 L 3.796875 -4.9375 Z M 10.515625 -4.9375 "/></g></g></g><g fill="#000000" fill-opacity="1"><g transform="translate(135.076088, 214.429337)"><g><path d="M 16.8125 -14 L 16.8125 0 L 15.40625 0 L 15.40625 -11.203125 L 9.90625 -1.78125 L 9.203125 -1.78125 L 3.703125 -11.140625 L 3.703125 0 L 2.28125 0 L 2.28125 -14 L 3.5 -14 L 9.578125 -3.625 L 15.59375 -14 Z M 16.8125 -14 "/></g></g></g><g fill="#000000" fill-opacity="1"><g transform="translate(170.168569, 214.429337)"><g><path d="M 8.40625 0.125 C 7.007812 0.125 5.75 -0.179688 4.625 -0.796875 C 3.5 -1.421875 2.617188 -2.273438 1.984375 -3.359375 C 1.359375 -4.441406 1.046875 -5.65625 1.046875 -7 C 1.046875 -8.34375 1.359375 -9.554688 1.984375 -10.640625 C 2.617188 -11.722656 3.5 -12.570312 4.625 -13.1875 C 5.75 -13.8125 7.007812 -14.125 8.40625 -14.125 C 9.789062 -14.125 11.035156 -13.816406 12.140625 -13.203125 C 13.253906 -12.585938 14.128906 -11.734375 14.765625 -10.640625 C 15.410156 -9.554688 15.734375 -8.34375 15.734375 -7 C 15.734375 -5.65625 15.410156 -4.4375 14.765625 -3.34375 C 14.128906 -2.257812 13.253906 -1.410156 12.140625 -0.796875 C 11.035156 -0.179688 9.789062 0.125 8.40625 0.125 Z M 8.40625 -1.203125 C 9.507812 -1.203125 10.503906 -1.453125 11.390625 -1.953125 C 12.285156 -2.453125 12.988281 -3.144531 13.5 -4.03125 C 14.007812 -4.914062 14.265625 -5.90625 14.265625 -7 C 14.265625 -8.09375 14.007812 -9.082031 13.5 -9.96875 C 12.988281 -10.851562 12.285156 -11.546875 11.390625 -12.046875 C 10.503906 -12.546875 9.507812 -12.796875 8.40625 -12.796875 C 7.289062 -12.796875 6.285156 -12.546875 5.390625 -12.046875 C 4.492188 -11.546875 3.785156 -10.851562 3.265625 -9.96875 C 2.753906 -9.082031 2.5 -8.09375 2.5 -7 C 2.5 -5.90625 2.753906 -4.914062 3.265625 -4.03125 C 3.785156 -3.144531 4.492188 -2.453125 5.390625 -1.953125 C 6.285156 -1.453125 7.289062 -1.203125 8.40625 -1.203125 Z M 8.40625 -1.203125 "/></g></g></g><g fill="#000000" fill-opacity="1"><g transform="translate(202.941974, 214.429337)"><g><path d="M 8.359375 0.125 C 6.972656 0.125 5.722656 -0.179688 4.609375 -0.796875 C 3.492188 -1.410156 2.617188 -2.257812 1.984375 -3.34375 C 1.359375 -4.4375 1.046875 -5.65625 1.046875 -7 C 1.046875 -8.34375 1.359375 -9.554688 1.984375 -10.640625 C 2.617188 -11.734375 3.492188 -12.585938 4.609375 -13.203125 C 5.734375 -13.816406 6.988281 -14.125 8.375 -14.125 C 9.414062 -14.125 10.375 -13.945312 11.25 -13.59375 C 12.132812 -13.25 12.882812 -12.742188 13.5 -12.078125 L 12.5625 -11.140625 C 11.46875 -12.242188 10.085938 -12.796875 8.421875 -12.796875 C 7.316406 -12.796875 6.3125 -12.539062 5.40625 -12.03125 C 4.5 -11.53125 3.785156 -10.835938 3.265625 -9.953125 C 2.753906 -9.078125 2.5 -8.09375 2.5 -7 C 2.5 -5.90625 2.753906 -4.914062 3.265625 -4.03125 C 3.785156 -3.15625 4.5 -2.460938 5.40625 -1.953125 C 6.3125 -1.453125 7.316406 -1.203125 8.421875 -1.203125 C 10.097656 -1.203125 11.476562 -1.757812 12.5625 -2.875 L 13.5 -1.9375 C 12.882812 -1.269531 12.132812 -0.757812 11.25 -0.40625 C 10.363281 -0.0507812 9.398438 0.125 8.359375 0.125 Z M 8.359375 0.125 "/></g></g></g><g fill="#000000" fill-opacity="1"><g transform="translate(233.31632, 214.429337)"><g><path d="M 2.28125 -14 L 3.765625 -14 L 3.765625 -1.28125 L 11.59375 -1.28125 L 11.59375 0 L 2.28125 0 Z M 2.28125 -14 "/></g></g></g><g fill="#000000" fill-opacity="1"><g transform="translate(261.09169, 214.429337)"><g><path d="M 12.1875 -1.28125 L 12.1875 0 L 2.28125 0 L 2.28125 -14 L 11.875 -14 L 11.875 -12.71875 L 3.765625 -12.71875 L 3.765625 -7.734375 L 11 -7.734375 L 11 -6.484375 L 3.765625 -6.484375 L 3.765625 -1.28125 Z M 12.1875 -1.28125 "/></g></g></g><g fill="#000000" fill-opacity="1"><g transform="translate(290.466428, 214.429337)"><g><path d="M 6.140625 0.125 C 5.097656 0.125 4.097656 -0.0390625 3.140625 -0.375 C 2.191406 -0.707031 1.457031 -1.148438 0.9375 -1.703125 L 1.515625 -2.84375 C 2.023438 -2.332031 2.695312 -1.921875 3.53125 -1.609375 C 4.375 -1.296875 5.242188 -1.140625 6.140625 -1.140625 C 7.390625 -1.140625 8.328125 -1.367188 8.953125 -1.828125 C 9.585938 -2.285156 9.90625 -2.882812 9.90625 -3.625 C 9.90625 -4.175781 9.734375 -4.617188 9.390625 -4.953125 C 9.046875 -5.285156 8.628906 -5.539062 8.140625 -5.71875 C 7.648438 -5.90625 6.960938 -6.101562 6.078125 -6.3125 C 5.023438 -6.582031 4.1875 -6.835938 3.5625 -7.078125 C 2.9375 -7.328125 2.398438 -7.707031 1.953125 -8.21875 C 1.503906 -8.726562 1.28125 -9.414062 1.28125 -10.28125 C 1.28125 -10.988281 1.46875 -11.628906 1.84375 -12.203125 C 2.21875 -12.785156 2.789062 -13.25 3.5625 -13.59375 C 4.332031 -13.945312 5.289062 -14.125 6.4375 -14.125 C 7.238281 -14.125 8.019531 -14.007812 8.78125 -13.78125 C 9.550781 -13.5625 10.21875 -13.257812 10.78125 -12.875 L 10.28125 -11.703125 C 9.695312 -12.085938 9.070312 -12.375 8.40625 -12.5625 C 7.738281 -12.757812 7.082031 -12.859375 6.4375 -12.859375 C 5.207031 -12.859375 4.28125 -12.617188 3.65625 -12.140625 C 3.039062 -11.671875 2.734375 -11.0625 2.734375 -10.3125 C 2.734375 -9.757812 2.90625 -9.3125 3.25 -8.96875 C 3.59375 -8.625 4.019531 -8.363281 4.53125 -8.1875 C 5.039062 -8.007812 5.726562 -7.8125 6.59375 -7.59375 C 7.625 -7.34375 8.457031 -7.09375 9.09375 -6.84375 C 9.726562 -6.601562 10.265625 -6.234375 10.703125 -5.734375 C 11.140625 -5.234375 11.359375 -4.554688 11.359375 -3.703125 C 11.359375 -2.992188 11.164062 -2.347656 10.78125 -1.765625 C 10.40625 -1.191406 9.820312 -0.734375 9.03125 -0.390625 C 8.25 -0.046875 7.285156 0.125 6.140625 0.125 Z M 6.140625 0.125 "/></g></g></g></svg>