<svg xmlns="http://www.w3.org/2000/svg" xmlns:xlink="http://www.w3.org/1999/xlink" width="500" zoomAndPan="magnify" viewBox="0 0 375 374.999991" height="500" preserveAspectRatio="xMidYMid meet" version="1.0"><defs><g/><clipPath id="67cc5eabee"><path d="M 145 87.175781 L 285 87.175781 L 285 207 L 145 207 Z M 145 87.175781 " clip-rule="nonzero"/></clipPath><clipPath id="608a6cab5d"><path d="M 53.402344 184 L 126 184 L 126 235 L 53.402344 235 Z M 53.402344 184 " clip-rule="nonzero"/></clipPath><clipPath id="1255e9b6c0"><path d="M 271 184 L 321.597656 184 L 321.597656 234 L 271 234 Z M 271 184 " clip-rule="nonzero"/></clipPath></defs><path fill="#e31f30" d="M 254.582031 216.707031 C 255.222656 229.679688 251.910156 242.753906 246.613281 254.425781 C 250.351562 251.378906 253.636719 247.597656 256.695312 243.828125 C 264.992188 233.261719 271.859375 221.546875 276.792969 209.042969 C 277.367188 207.589844 277.261719 207.746094 276.972656 206.484375 C 273.929688 193.488281 268.257812 180.738281 259.398438 170.671875 C 265.007812 183.75 267.628906 198.585938 264.679688 212.699219 C 263.464844 203.332031 261.320312 193.390625 255.289062 185.886719 C 254.941406 186.214844 255.015625 187.171875 254.832031 187.65625 C 254.488281 189.207031 254.128906 190.75 253.773438 192.300781 C 253.664062 192.605469 253.691406 192.996094 253.421875 193.210938 C 252.089844 182.460938 246.375 172.339844 237.511719 166.019531 C 237.203125 165.804688 235.734375 164.574219 236.230469 165.402344 C 246.542969 181.054688 248.535156 201.140625 244.191406 219.101562 C 244.171875 217.15625 244.355469 215.199219 244.40625 213.25 C 244.398438 213.25 244.394531 213.25 244.386719 213.25 C 244.628906 195.085938 237.933594 173.820312 221.574219 164.199219 C 223.574219 166.945312 225.261719 169.9375 226.332031 173.191406 C 227.765625 177.28125 228.1875 181.578125 228.003906 185.890625 C 228.019531 185.960938 227.964844 186.046875 227.921875 186.070312 C 227.878906 186.078125 227.808594 186.046875 227.796875 186.015625 C 223.890625 174.390625 215.871094 167.695312 206.386719 160.722656 C 206.023438 160.273438 202.589844 157.953125 204.339844 159.683594 C 208.984375 164.191406 211.523438 170.972656 210.609375 177.402344 C 209.667969 173.617188 208.316406 170.015625 205.917969 166.867188 C 204.816406 165.359375 203.496094 164.078125 201.976562 162.996094 C 201.816406 162.921875 201.554688 162.609375 201.410156 162.777344 C 202.988281 166.496094 203.390625 170.683594 202.472656 174.617188 C 198.625 156.96875 178.476562 151.855469 163.351562 158.578125 C 163.179688 158.652344 161.71875 159.214844 162.191406 159.339844 C 165.839844 158.898438 169.535156 158.914062 173.179688 159.40625 C 180.699219 160.0625 189.304688 166.558594 186.515625 174.875 C 182.832031 184.519531 170.527344 196.40625 160.832031 199.933594 C 160.449219 200.105469 159.292969 200.222656 159.4375 200.511719 C 171.261719 200.933594 188.167969 193.828125 193.886719 183.074219 C 194.117188 185.691406 192.9375 188.347656 191.757812 190.660156 C 189.035156 195.710938 184.242188 198.972656 179.824219 202.402344 C 175.335938 206.15625 171.285156 210.507812 168.207031 215.5 C 167.875 215.972656 164.28125 222.742188 166.039062 220.878906 C 180.835938 207.824219 198.320312 201.875 201.851562 179.773438 C 205.40625 190.980469 205.324219 203.355469 200.601562 214.171875 C 209.757812 205.5625 213.210938 192.621094 213.417969 180.394531 C 218.4375 194.308594 217.234375 210.097656 211.210938 223.539062 C 209.113281 228.683594 205.925781 233.367188 203.292969 238.164062 C 211.496094 232.460938 217.242188 223.585938 221.496094 214.667969 C 224.429688 206.921875 224.867188 198.445312 225.140625 190.289062 C 232.371094 206.136719 230.757812 224.304688 225.746094 240.503906 C 232.445312 232.628906 236.992188 222.847656 238.902344 212.671875 C 238.78125 219.585938 237.269531 226.453125 235.757812 233.179688 C 232.503906 247.582031 227.359375 261.480469 221.890625 275.136719 C 224.65625 271.636719 227.246094 267.902344 229.8125 264.21875 C 239.746094 249.410156 249.960938 234.082031 254.582031 216.707031 Z M 254.582031 216.707031 " fill-opacity="1" fill-rule="nonzero"/><g clip-path="url(#67cc5eabee)"><path fill="#e31f30" d="M 145.445312 129.953125 C 147.777344 129.417969 150.109375 128.863281 152.492188 128.617188 C 153.539062 128.300781 155.8125 130.867188 156.5625 131.660156 C 156.894531 132.066406 157.246094 132.21875 157.785156 132.125 C 159.808594 131.773438 161.84375 131.464844 163.875 131.148438 C 164.296875 131.078125 164.65625 130.890625 165.003906 130.648438 C 170.476562 126.75 176.039062 122.976562 181.453125 118.996094 C 186.308594 115.796875 192.40625 115.1875 198 114.042969 C 205.082031 113.003906 212.492188 112.671875 219.507812 113.835938 C 211.910156 115.695312 204.0625 119.535156 200.019531 126.519531 C 204.046875 124.054688 208.667969 122.613281 213.367188 122.054688 C 215.773438 121.707031 218.203125 121.785156 220.621094 121.941406 C 220.960938 121.960938 221.347656 121.828125 221.644531 122.128906 C 217.699219 123.691406 213.539062 125.535156 210.414062 128.324219 C 216.300781 127.28125 222.570312 126.195312 228.613281 126.375 C 222.207031 128.679688 216.730469 133.296875 213.132812 139.121094 C 213.003906 139.554688 213.722656 139.003906 213.875 138.96875 C 219.570312 136.035156 226.179688 135.613281 232.46875 136.121094 C 251.363281 137.691406 267.054688 152.398438 273.933594 169.429688 C 268.535156 165.34375 262.257812 162.203125 255.65625 160.710938 C 268.609375 173.320312 279.128906 188.75 284.699219 206.007812 C 286.257812 185.476562 278.527344 164.992188 266.539062 148.589844 C 271.984375 150.675781 276.992188 154.117188 281.253906 158.050781 C 276.695312 147.296875 268.273438 138.527344 259.777344 130.710938 C 265.394531 132.855469 270.757812 135.949219 275.589844 139.515625 C 269.5625 130.152344 260.367188 123.015625 251.449219 116.503906 C 258.769531 118.9375 265.824219 122.5625 272.328125 126.699219 C 267.722656 120.414062 261.621094 115.070312 255.144531 110.679688 C 253.859375 109.839844 252.539062 109.050781 251.246094 108.226562 C 250.921875 108.019531 250.667969 107.996094 250.339844 108.253906 C 244.097656 113.039062 236.273438 115.839844 228.421875 116.066406 C 232.050781 114.605469 236.019531 113.398438 239.140625 111.007812 C 234.15625 111.695312 229.042969 111.914062 224.050781 111.460938 C 222.3125 111.316406 220.574219 111.179688 218.832031 111.046875 C 218.75 111.050781 218.714844 110.972656 218.667969 110.917969 C 229.480469 109.257812 241.074219 108.722656 250.871094 103.414062 C 247.652344 103.671875 244.28125 104.226562 241.066406 103.851562 C 248.664062 101.238281 256.132812 97.6875 261.878906 91.964844 C 252.789062 95.300781 243.46875 99.554688 233.578125 99.496094 C 236.710938 98.519531 239.988281 97.214844 242.585938 95.253906 C 237.015625 96.476562 231.085938 97.101562 225.421875 96.21875 C 229.539062 94.421875 233.980469 92.921875 237.820312 90.417969 C 237.886719 90.175781 237.363281 90.359375 237.238281 90.34375 C 229.558594 91.628906 221.855469 92.738281 214.15625 93.90625 C 210.675781 94.410156 207.199219 94.914062 203.691406 95.171875 C 203.566406 95.183594 203.371094 95.296875 203.320312 95.082031 C 208.011719 92.683594 213.25 90.863281 217.304688 87.363281 C 211.375 86.769531 205.226562 88.3125 199.570312 90.074219 C 199.101562 90.367188 201.101562 93.066406 201.078125 93.675781 C 199.496094 93.253906 197.976562 92.363281 196.4375 91.742188 C 195.949219 91.519531 195.515625 91.492188 195.019531 91.703125 C 188.933594 94.035156 183.078125 97.113281 177.644531 100.601562 C 180.34375 96.925781 182.984375 93.003906 184.078125 88.496094 C 184.050781 87.816406 182.222656 90.0625 181.960938 90.199219 C 178.773438 93.300781 175.414062 96.261719 171.722656 98.753906 C 170.6875 99.40625 171.339844 100.832031 171.03125 101.839844 C 170.59375 101.902344 170.722656 100.976562 170.304688 101.34375 C 168.878906 102.984375 167.589844 104.78125 166.195312 106.421875 C 166.449219 104.570312 167.171875 102.753906 167.84375 101 C 167.917969 100.453125 166.246094 101.882812 166.019531 101.9375 C 156.652344 107.949219 149.945312 117.425781 145.964844 127.714844 C 145.878906 128.128906 144.78125 130.179688 145.445312 129.953125 Z M 145.445312 129.953125 " fill-opacity="1" fill-rule="nonzero"/></g><path fill="#e31f30" d="M 218.585938 255.839844 C 213.605469 266.023438 206.414062 275.308594 197.644531 282.605469 C 193.707031 285.90625 189.457031 288.804688 184.875 291.136719 C 184.636719 291.28125 184.515625 291.144531 184.425781 290.894531 C 175.464844 271.859375 172.808594 247.570312 185.648438 229.644531 C 186.828125 228.011719 180.957031 232.507812 180.714844 232.734375 C 171.703125 240.273438 164.808594 250.535156 161.617188 261.8125 C 159.832031 251.277344 161.257812 240.171875 165.195312 230.242188 C 165.214844 230.097656 165.351562 229.933594 165.261719 229.808594 C 164.609375 230.359375 164.308594 231.28125 163.824219 231.996094 C 155.84375 245.738281 152.28125 263.480469 155.042969 278.898438 C 156.363281 277.121094 157.800781 275.433594 159.171875 273.695312 C 159.46875 273.320312 159.824219 273.023438 160.25 272.8125 C 162.53125 271.75 164.816406 270.472656 167.164062 269.652344 C 166.335938 273.511719 164.988281 277.359375 163.976562 281.210938 C 163.832031 281.699219 163.867188 282.117188 164.089844 282.5625 C 169.050781 293.054688 175.222656 303.054688 183.277344 311.464844 C 183.582031 311.78125 183.886719 311.902344 184.304688 311.882812 C 185.320312 311.839844 186.335938 311.804688 187.351562 311.804688 C 189.414062 311.648438 194.289062 305.246094 195.921875 303.492188 C 202.710938 295.175781 208.121094 285.789062 212.257812 275.890625 C 214.941406 269.417969 217.222656 262.726562 218.585938 255.839844 Z M 218.585938 255.839844 " fill-opacity="1" fill-rule="nonzero"/><path fill="#e31f30" d="M 135.519531 199.316406 C 135.621094 199.375 135.613281 199.511719 135.503906 199.558594 C 133.199219 200.660156 130.855469 201.671875 128.367188 202.277344 C 112.023438 206.335938 94.832031 202.515625 79.351562 197.023438 C 94.089844 205.761719 111.292969 208.882812 127.875 212.308594 C 133.003906 213.519531 138.964844 214.601562 142.425781 218.945312 C 142.953125 219.535156 143.136719 220.617188 144.042969 220.710938 C 145.144531 220.847656 146.253906 220.996094 147.335938 221.273438 C 147.386719 221.898438 145.34375 223.410156 145.984375 223.761719 C 146.726562 224.40625 153.71875 228.011719 153.859375 226.507812 C 155.199219 221.015625 156.972656 215.648438 159.042969 210.386719 C 159.214844 209.878906 158.121094 209.894531 157.820312 209.691406 C 151.621094 207.382812 145.164062 205.625 139.136719 202.910156 C 139.222656 202.621094 139.503906 202.664062 139.703125 202.605469 C 142.167969 201.945312 144.640625 201.320312 147.101562 200.640625 C 148.449219 200.265625 148.199219 200.488281 148.929688 199.167969 C 150.757812 195.679688 152.699219 192.25 154.515625 188.761719 C 145.648438 187.3125 136.597656 185.660156 128.21875 182.105469 C 127.765625 181.925781 127.757812 181.921875 127.53125 182.394531 C 127.046875 183.265625 126.753906 184.285156 126.164062 185.082031 C 125.546875 183.785156 125.210938 182.332031 124.703125 180.980469 C 124.480469 180.285156 123.628906 180.234375 123.074219 179.898438 C 112.542969 175 103.214844 167.632812 95.683594 158.925781 C 95.832031 159.613281 96.28125 160.246094 96.539062 160.914062 C 104.410156 177.863281 118.847656 191.171875 135.519531 199.316406 Z M 135.519531 199.316406 " fill-opacity="1" fill-rule="nonzero"/><path fill="#e31f30" d="M 76.371094 180.398438 C 76.660156 180.808594 77.003906 180.984375 77.480469 180.972656 C 78.339844 180.957031 79.203125 180.949219 80.058594 180.925781 C 80.554688 180.914062 81.050781 180.875 81.542969 180.859375 C 81.804688 180.851562 81.863281 180.929688 81.804688 181.199219 C 81.554688 182.347656 81.324219 183.492188 81.03125 184.628906 C 80.777344 185.589844 82.066406 186.203125 82.578125 186.878906 C 88.539062 192.472656 86.195312 191.628906 94.210938 193.742188 C 94.988281 193.957031 95.769531 194.160156 96.550781 194.363281 C 96.726562 194.394531 96.832031 194.277344 96.726562 194.109375 C 93.570312 188.617188 90.851562 182.667969 89.753906 176.414062 C 96.363281 182.121094 103.789062 187.101562 111.730469 190.738281 C 107.1875 185.890625 102.953125 180.621094 99.542969 174.867188 C 99.035156 174.089844 98.652344 173.183594 97.859375 172.644531 C 96.753906 171.863281 95.644531 171.085938 94.5625 170.277344 C 91.996094 168.359375 89.441406 166.429688 86.894531 164.488281 C 86.542969 164.21875 86.1875 164.082031 85.75 164.085938 C 84.8125 164.101562 83.875 164.09375 82.9375 164.09375 C 82.9375 164.097656 82.9375 164.105469 82.9375 164.113281 C 82.234375 164.144531 81.53125 164.179688 80.828125 164.210938 C 80.597656 164.160156 79.4375 164.441406 79.648438 163.992188 C 80.308594 162.578125 80.984375 161.167969 81.675781 159.769531 C 81.855469 159.457031 81.574219 159.253906 81.339844 159.089844 C 71.53125 151.574219 63.414062 141.550781 59.730469 129.65625 C 58.402344 134.964844 58.808594 140.78125 59.554688 146.21875 C 61.511719 159.054688 68.050781 170.609375 76.371094 180.398438 Z M 76.371094 180.398438 " fill-opacity="1" fill-rule="nonzero"/><g clip-path="url(#608a6cab5d)"><path fill="#e31f30" d="M 112.332031 234.257812 C 102.738281 230.710938 93.476562 224.957031 87.878906 216.15625 C 99.53125 221.5625 112.945312 224.71875 125.777344 222.644531 C 98.597656 219.054688 70.398438 207.726562 53.984375 184.769531 C 53.910156 184.671875 53.796875 184.542969 53.699219 184.539062 C 53.511719 184.535156 53.578125 184.726562 53.5625 184.835938 C 53.511719 185.25 53.460938 185.667969 53.441406 186.082031 C 52.53125 204.566406 67.1875 219.210938 83.023438 226.347656 C 92.21875 230.691406 102.21875 233.386719 112.332031 234.257812 Z M 112.332031 234.257812 " fill-opacity="1" fill-rule="nonzero"/></g><g clip-path="url(#1255e9b6c0)"><path fill="#e31f30" d="M 321.507812 185.179688 C 321.515625 184.648438 321.152344 185.019531 320.992188 185.257812 C 316.191406 191.761719 310.382812 197.476562 303.894531 202.292969 C 300.070312 205.148438 296.046875 207.695312 291.871094 210.003906 C 291.414062 210.226562 291.605469 210.800781 291.558594 211.210938 C 291.558594 212.332031 291.558594 213.449219 291.558594 214.570312 C 291.550781 214.570312 291.542969 214.570312 291.53125 214.570312 C 291.324219 219.941406 292.566406 218.710938 288.742188 219.792969 C 287.027344 220.382812 287.644531 218.25 286.6875 219.597656 C 283.382812 223.398438 279.523438 226.671875 275.261719 229.351562 C 273.347656 230.558594 273.410156 230.445312 272.273438 232.335938 C 272.007812 232.921875 270.871094 233.878906 272.378906 233.5 C 296.292969 229.8125 323.382812 212.152344 321.507812 185.179688 Z M 321.507812 185.179688 " fill-opacity="1" fill-rule="nonzero"/></g><path fill="#e31f30" d="M 291.148438 190.09375 C 293.34375 187.660156 295.625 185.300781 297.714844 182.773438 C 297.992188 182.457031 298.105469 182.148438 297.972656 181.710938 C 297.398438 179.683594 296.929688 177.625 296.4375 175.578125 C 296.363281 175.265625 296.449219 175.183594 296.738281 175.226562 C 298.460938 175.515625 300.1875 175.734375 301.914062 175.984375 C 302.300781 176.046875 302.566406 175.921875 302.773438 175.613281 C 304.019531 173.78125 305.242188 171.933594 306.417969 170.058594 C 313.671875 158.15625 317.613281 143.582031 314.890625 129.734375 C 310.78125 142.542969 301.546875 152.59375 291.164062 160.789062 C 293.535156 163.351562 296.675781 165.230469 299.210938 167.664062 C 299.261719 167.859375 299 167.816406 298.878906 167.835938 C 294.074219 167.933594 290.246094 167.878906 286.136719 167.929688 C 285.519531 167.902344 286.316406 169.296875 286.332031 169.648438 C 288.644531 176.265625 289.714844 183.332031 291.148438 190.09375 Z M 291.148438 190.09375 " fill-opacity="1" fill-rule="nonzero"/><path fill="#e31f30" d="M 139.515625 175.21875 C 137.792969 169.5 139.632812 162.734375 145.058594 159.695312 C 145.746094 159.285156 146.222656 158.769531 146.511719 158.035156 C 147.148438 156.496094 147.683594 154.703125 149.460938 154.15625 C 156.484375 151.546875 163.6875 149.46875 170.792969 147.082031 C 172.375 146.621094 170.613281 146.578125 170.035156 146.449219 C 161.824219 145.246094 153.726562 143.296875 145.503906 142.214844 C 145.273438 142.195312 145.214844 142.09375 145.351562 141.921875 C 145.835938 141.3125 146.289062 140.664062 146.835938 140.113281 C 148.484375 138.453125 150.355469 137.105469 152.527344 136.203125 C 152.675781 136.113281 153.148438 136.007812 152.882812 135.796875 C 150.164062 134.035156 146.273438 132.980469 143.433594 135.027344 C 142.292969 135.851562 141.136719 136.652344 140.003906 137.480469 C 130.308594 143.523438 130.339844 156.828125 134.132812 166.417969 C 135.425781 169.605469 137.015625 172.832031 139.515625 175.21875 Z M 139.515625 175.21875 " fill-opacity="1" fill-rule="nonzero"/><path fill="#e31f30" d="M 94.949219 255.027344 C 103.164062 256.980469 112.277344 257.777344 120.671875 255.160156 C 113.863281 253.097656 106.75 250.613281 101.070312 246.109375 C 102.40625 246.101562 103.761719 246.582031 105.113281 246.679688 C 107.003906 246.914062 108.910156 246.867188 110.8125 246.863281 C 117.933594 246.65625 125.566406 244.980469 131.1875 240.480469 C 121.167969 244.117188 110.160156 243.640625 99.71875 242.210938 C 91.761719 241.273438 95.058594 239.535156 88.613281 243.5625 C 88.34375 243.640625 86.46875 245.082031 86.578125 244.488281 C 86.898438 243.042969 87.164062 241.582031 87.453125 240.125 C 87.527344 239.742188 87.480469 239.691406 87.089844 239.585938 C 84.507812 238.972656 81.96875 238.191406 79.476562 237.285156 C 76.253906 236.164062 73.117188 234.824219 70.058594 233.320312 C 70.011719 233.296875 69.917969 233.28125 69.917969 233.289062 C 69.886719 233.359375 69.839844 233.445312 69.859375 233.503906 C 72.285156 242.070312 79.265625 248.601562 87.21875 252.191406 C 88.363281 252.855469 88.75 250.746094 89.753906 251.109375 C 90.726562 251.5625 91.773438 251.796875 92.777344 252.152344 C 93.371094 252.339844 93.289062 253.058594 93.449219 253.550781 C 93.785156 254.949219 93.527344 254.707031 94.949219 255.027344 Z M 94.949219 255.027344 " fill-opacity="1" fill-rule="nonzero"/><path fill="#e31f30" d="M 290.164062 239.792969 C 289.972656 242.074219 289.808594 244.363281 289.613281 246.644531 C 289.554688 247.042969 289.527344 247.964844 289.027344 247.238281 C 287.257812 245.121094 285.480469 243.007812 283.722656 240.878906 C 283.640625 240.777344 283.535156 240.78125 283.472656 240.886719 C 282.570312 242.53125 281.824219 244.253906 280.984375 245.929688 C 280.910156 246.09375 280.769531 246.136719 280.667969 245.945312 C 279.894531 244.652344 279.101562 243.367188 278.320312 242.078125 C 278.136719 241.691406 277.800781 241.746094 277.445312 241.824219 C 275.445312 242.171875 273.4375 242.480469 271.414062 242.675781 C 269.546875 242.859375 267.675781 242.972656 265.800781 243.003906 C 265.304688 243.011719 264.964844 243.152344 264.671875 243.542969 C 264.074219 244.332031 263.449219 245.097656 262.839844 245.878906 C 262.699219 246.121094 261.945312 246.699219 262.433594 246.808594 C 266.898438 247.183594 271.367188 246.71875 275.738281 246 C 270.109375 250.394531 263.238281 252.867188 256.652344 255.363281 C 264.988281 257.414062 274.074219 257.078125 282.464844 254.835938 C 283.609375 254.46875 282.738281 252.527344 283.980469 252.210938 C 285.09375 251.847656 286.183594 251.410156 287.292969 251.039062 C 287.945312 250.8125 288.296875 251.566406 288.710938 251.933594 C 289.09375 252.339844 289.148438 252.371094 289.652344 252.140625 C 297.566406 248.6875 304.730469 241.898438 306.65625 233.324219 C 301.574219 235.785156 296.222656 237.792969 290.722656 239.183594 C 290.257812 239.300781 290.203125 239.355469 290.164062 239.792969 Z M 290.164062 239.792969 " fill-opacity="1" fill-rule="nonzero"/><path fill="#e31f30" d="M 141.945312 265.027344 C 141.726562 264.925781 141.511719 265.148438 141.304688 265.210938 C 140.101562 265.765625 138.894531 266.320312 137.625 266.722656 C 131.527344 268.632812 124.871094 269.265625 118.578125 268.339844 C 126.867188 266.277344 135.765625 262.597656 140.003906 254.707031 C 127.632812 265.246094 109.007812 266.734375 93.40625 268.285156 C 99.675781 272.867188 107.289062 276.152344 115.117188 276.839844 C 115.535156 276.875 115.597656 276.8125 115.578125 276.4375 C 115.578125 274.953125 115.339844 273.476562 115.246094 272.007812 C 116.414062 272.996094 117.382812 274.269531 118.464844 275.367188 C 118.71875 275.644531 118.976562 275.769531 119.355469 275.691406 C 125.097656 274.71875 130.769531 273.023438 135.78125 269.984375 C 137.992188 268.582031 140.257812 267.039062 141.945312 265.027344 Z M 141.945312 265.027344 " fill-opacity="1" fill-rule="nonzero"/><path fill="#e31f30" d="M 233.183594 271.699219 C 232.875 271.519531 232.796875 271.527344 232.574219 271.78125 C 231.785156 272.652344 231.785156 272.738281 232.105469 273.804688 C 233.863281 279.6875 233.175781 285.609375 230.925781 291.058594 C 230.617188 290.554688 230.660156 289.964844 230.554688 289.414062 C 230.097656 285.875 228.980469 282.445312 227.492188 279.207031 C 227.417969 279.0625 227.296875 279.054688 227.195312 279.195312 C 226.628906 280.003906 226.058594 280.8125 225.515625 281.640625 C 224.855469 282.636719 224.402344 283.765625 223.59375 284.667969 C 223.113281 285.1875 223.753906 286.421875 223.910156 287.039062 C 226.109375 291.398438 228.296875 296.335938 226.703125 301.273438 C 226.441406 302.152344 226.058594 302.972656 225.507812 303.71875 C 225.257812 304.144531 224.804688 304.511719 224.707031 305 C 234.304688 300.292969 238.574219 288.742188 235.925781 278.648438 C 238.113281 281.433594 239.703125 284.710938 240.929688 288.039062 C 241.085938 288.449219 241.292969 288.683594 241.753906 288.738281 C 245.25 289.28125 248.757812 289.761719 252.269531 290.234375 C 254.679688 290.4375 254.976562 290.980469 253.28125 288.734375 C 248.171875 281.445312 240.816406 276.101562 233.183594 271.699219 Z M 233.183594 271.699219 " fill-opacity="1" fill-rule="nonzero"/><path fill="#e31f30" d="M 283.996094 268.160156 C 273.890625 267.414062 263.8125 265.671875 254.046875 262.953125 C 253.722656 262.855469 253.402344 262.753906 253.074219 262.671875 C 252.546875 262.539062 252.503906 262.558594 252.179688 263.03125 C 251.753906 263.652344 251.324219 264.277344 250.90625 264.902344 C 250.785156 265.113281 250.449219 265.457031 250.777344 265.625 C 254.027344 266.800781 257.488281 267.601562 260.726562 268.667969 C 255.859375 269.265625 250.878906 269.164062 246.019531 268.394531 C 242.882812 267.867188 239.796875 267.132812 236.875 265.84375 C 236.65625 265.746094 236.535156 265.804688 236.410156 265.96875 C 236.179688 266.285156 236.179688 266.429688 236.503906 266.691406 C 237.328125 267.367188 238.144531 268.058594 239 268.695312 C 244.71875 272.742188 251.582031 274.828125 258.441406 275.914062 C 259.136719 276.257812 259.609375 275.835938 260.046875 275.339844 C 261.097656 274.390625 261.996094 273.234375 263.160156 272.429688 C 263.175781 273.75 262.953125 275.066406 262.902344 276.390625 C 262.8125 276.875 263.253906 276.726562 263.566406 276.710938 C 263.566406 276.714844 263.566406 276.714844 263.566406 276.71875 C 270.921875 275.992188 277.808594 272.917969 283.800781 268.679688 C 283.996094 268.574219 284.4375 268.238281 283.996094 268.160156 Z M 283.996094 268.160156 " fill-opacity="1" fill-rule="nonzero"/><path fill="#e31f30" d="M 147.019531 277.863281 C 146.949219 277.359375 147.171875 276.425781 146.902344 275.882812 C 143.828125 280.980469 142.117188 286.980469 141.550781 292.90625 C 139.746094 287.855469 139.300781 282.148438 140.472656 276.863281 C 140.910156 275.007812 141.460938 273.191406 142.382812 271.511719 C 142.5625 271.234375 142.601562 270.84375 142.105469 271.097656 C 134.789062 274.074219 128.507812 279.078125 122.996094 284.652344 C 122.417969 285.019531 123.589844 288.269531 123.648438 289.109375 C 123.75 289.566406 123.863281 290.023438 123.984375 290.476562 C 124.046875 290.828125 124.34375 290.765625 124.605469 290.691406 C 126.566406 290.179688 128.53125 289.660156 130.496094 289.144531 C 130.933594 289.023438 131.332031 288.84375 131.484375 288.371094 C 132.839844 284.839844 134.382812 281.117188 136.972656 278.359375 C 133.324219 287.765625 137.554688 299.515625 146.5 304.28125 C 146.777344 304.246094 146.414062 303.863281 146.375 303.730469 C 143.261719 298.421875 145.257812 291.789062 147.085938 286.359375 C 147.367188 285.609375 147.507812 284.90625 147.429688 284.09375 C 147.238281 282.066406 147.15625 280.039062 147.019531 277.863281 Z M 147.019531 277.863281 " fill-opacity="1" fill-rule="nonzero"/><path fill="#e31f30" d="M 215.667969 286.875 C 215.226562 287.296875 215.160156 287.800781 215.207031 288.375 C 215.589844 293.496094 215.402344 298.230469 213.25 302.621094 C 212.875 302.046875 212.722656 301.320312 212.375 300.722656 C 212.222656 300.308594 210.003906 297.210938 209.730469 298.15625 C 208.613281 300.039062 207.253906 301.855469 206.246094 303.777344 C 206.554688 306.503906 206.835938 309.273438 206.40625 312.019531 C 206.050781 315.6875 204.679688 319.222656 203.464844 322.605469 C 211.394531 317.316406 217.90625 308.875 219.3125 299.265625 C 219.394531 294.9375 218.265625 290.667969 216.710938 286.65625 C 216.347656 285.488281 216.152344 286.425781 215.667969 286.875 Z M 215.667969 286.875 " fill-opacity="1" fill-rule="nonzero"/><path fill="#e31f30" d="M 166.023438 305.480469 C 166.195312 304.992188 166.203125 304.578125 165.886719 304.160156 C 164.886719 302.488281 163.949219 300.773438 162.96875 299.082031 C 162.851562 298.898438 162.722656 298.476562 162.449219 298.699219 C 160.960938 299.894531 160.089844 301.597656 159.355469 303.300781 C 157.945312 300.226562 157.867188 296.707031 158.066406 293.371094 C 158.070312 293.203125 158.226562 292.984375 158.003906 292.890625 C 155.941406 294.410156 154.105469 296.414062 152.101562 298.066406 C 151.496094 298.503906 151.679688 299.054688 151.789062 299.679688 C 153.726562 309.003906 159.277344 318.132812 167.726562 322.839844 C 168.25 323.066406 166.992188 320.816406 166.996094 320.59375 C 165.160156 315.816406 164.3125 310.417969 166.023438 305.480469 Z M 166.023438 305.480469 " fill-opacity="1" fill-rule="nonzero"/><path fill="#e31f30" d="M 224.683594 241.949219 C 225.726562 239.316406 223.621094 231.304688 222.820312 228.351562 C 222.742188 228.089844 222.613281 228.191406 222.460938 228.316406 C 220.90625 230.601562 219.046875 232.648438 217.089844 234.59375 C 216.550781 235.09375 216.351562 235.683594 216.332031 236.386719 C 215.695312 243.011719 213.382812 249.410156 210.582031 255.367188 C 215.835938 251.679688 220.589844 246.949219 224.683594 241.949219 Z M 224.683594 241.949219 " fill-opacity="1" fill-rule="nonzero"/><path fill="#e31f30" d="M 189.601562 125.355469 C 184.746094 125.421875 179.898438 126.816406 175.714844 129.28125 C 174.832031 129.828125 173.984375 130.4375 173.128906 131.03125 C 172.800781 131.257812 172.792969 131.339844 173.09375 131.636719 C 173.449219 131.980469 173.804688 132.328125 174.199219 132.625 C 181.007812 137.601562 189.550781 133.621094 191.441406 125.707031 C 191.679688 125.074219 189.957031 125.445312 189.601562 125.355469 Z M 189.601562 125.355469 " fill-opacity="1" fill-rule="nonzero"/><path fill="#e31f30" d="M 166.5625 150.25 C 162.152344 151.558594 157.785156 153.019531 153.410156 154.441406 C 151.804688 155.019531 149.9375 155.53125 149.164062 157.21875 C 148.464844 158.539062 147.929688 160.035156 146.679688 160.949219 C 145.1875 162.128906 143.894531 163.546875 142.742188 165.046875 C 142.664062 165.191406 142.746094 165.355469 142.929688 165.296875 C 144.617188 164.683594 146.367188 164.257812 148.011719 163.539062 C 151.699219 161.84375 152.371094 161.757812 153.28125 157.683594 C 153.378906 157.164062 153.890625 157.03125 154.289062 156.808594 C 158.4375 154.738281 162.664062 152.648438 166.648438 150.324219 C 166.621094 150.296875 166.585938 150.246094 166.5625 150.25 Z M 166.5625 150.25 " fill-opacity="1" fill-rule="nonzero"/><path fill="#e31f30" d="M 281.351562 215.503906 C 281.046875 215.632812 280.839844 215.847656 280.710938 216.148438 C 280.035156 217.796875 279.070312 219.425781 278.488281 221.078125 C 278.644531 221.257812 278.8125 221.050781 278.964844 220.996094 C 281.394531 220.007812 284.136719 219.28125 286.265625 217.800781 C 285.421875 216.78125 284.566406 215.765625 283.703125 214.765625 C 283.425781 214.34375 281.839844 215.394531 281.351562 215.503906 Z M 281.351562 215.503906 " fill-opacity="1" fill-rule="nonzero"/><g fill="#000000" fill-opacity="1"><g transform="translate(1.679149, 368.748223)"><g><path d="M 3.671875 -22.5625 L 12.859375 -22.5625 C 15.242188 -22.5625 17.347656 -22.082031 19.171875 -21.125 C 21.003906 -20.164062 22.425781 -18.832031 23.4375 -17.125 C 24.445312 -15.414062 24.953125 -13.46875 24.953125 -11.28125 C 24.953125 -9.09375 24.445312 -7.144531 23.4375 -5.4375 C 22.425781 -3.726562 21.003906 -2.394531 19.171875 -1.4375 C 17.347656 -0.476562 15.242188 0 12.859375 0 L 3.671875 0 Z M 12.734375 -2.0625 C 14.710938 -2.0625 16.441406 -2.453125 17.921875 -3.234375 C 19.398438 -4.023438 20.546875 -5.113281 21.359375 -6.5 C 22.179688 -7.882812 22.59375 -9.476562 22.59375 -11.28125 C 22.59375 -13.082031 22.179688 -14.675781 21.359375 -16.0625 C 20.546875 -17.445312 19.398438 -18.53125 17.921875 -19.3125 C 16.441406 -20.101562 14.710938 -20.5 12.734375 -20.5 L 6.0625 -20.5 L 6.0625 -2.0625 Z M 12.734375 -2.0625 "/></g></g></g><g fill="#000000" fill-opacity="1"><g transform="translate(54.088049, 368.748223)"><g><path d="M 17.828125 -6.03125 L 5.25 -6.03125 L 2.546875 0 L 0.0625 0 L 10.375 -22.5625 L 12.734375 -22.5625 L 23.046875 0 L 20.53125 0 Z M 16.953125 -7.96875 L 11.546875 -20.078125 L 6.125 -7.96875 Z M 16.953125 -7.96875 "/></g></g></g><g fill="#000000" fill-opacity="1"><g transform="translate(102.984351, 368.748223)"><g><path d="M 27.109375 -22.5625 L 27.109375 0 L 24.828125 0 L 24.828125 -18.046875 L 15.953125 -2.875 L 14.828125 -2.875 L 5.96875 -17.953125 L 5.96875 0 L 3.671875 0 L 3.671875 -22.5625 L 5.640625 -22.5625 L 15.4375 -5.828125 L 25.140625 -22.5625 Z M 27.109375 -22.5625 "/></g></g></g><g fill="#000000" fill-opacity="1"><g transform="translate(159.550339, 368.748223)"><g><path d="M 13.53125 0.1875 C 11.300781 0.1875 9.273438 -0.304688 7.453125 -1.296875 C 5.640625 -2.296875 4.222656 -3.664062 3.203125 -5.40625 C 2.179688 -7.15625 1.671875 -9.113281 1.671875 -11.28125 C 1.671875 -13.445312 2.179688 -15.398438 3.203125 -17.140625 C 4.222656 -18.890625 5.640625 -20.257812 7.453125 -21.25 C 9.273438 -22.25 11.300781 -22.75 13.53125 -22.75 C 15.769531 -22.75 17.785156 -22.253906 19.578125 -21.265625 C 21.378906 -20.285156 22.796875 -18.914062 23.828125 -17.15625 C 24.859375 -15.40625 25.375 -13.445312 25.375 -11.28125 C 25.375 -9.113281 24.859375 -7.148438 23.828125 -5.390625 C 22.796875 -3.640625 21.378906 -2.269531 19.578125 -1.28125 C 17.785156 -0.300781 15.769531 0.1875 13.53125 0.1875 Z M 13.53125 -1.9375 C 15.320312 -1.9375 16.9375 -2.335938 18.375 -3.140625 C 19.8125 -3.953125 20.9375 -5.070312 21.75 -6.5 C 22.570312 -7.925781 22.984375 -9.519531 22.984375 -11.28125 C 22.984375 -13.039062 22.570312 -14.632812 21.75 -16.0625 C 20.9375 -17.5 19.8125 -18.617188 18.375 -19.421875 C 16.9375 -20.222656 15.320312 -20.625 13.53125 -20.625 C 11.75 -20.625 10.132812 -20.222656 8.6875 -19.421875 C 7.238281 -18.617188 6.097656 -17.5 5.265625 -16.0625 C 4.441406 -14.632812 4.03125 -13.039062 4.03125 -11.28125 C 4.03125 -9.519531 4.441406 -7.925781 5.265625 -6.5 C 6.097656 -5.070312 7.238281 -3.953125 8.6875 -3.140625 C 10.132812 -2.335938 11.75 -1.9375 13.53125 -1.9375 Z M 13.53125 -1.9375 "/></g></g></g><g fill="#000000" fill-opacity="1"><g transform="translate(212.378156, 368.748223)"><g><path d="M 13.46875 0.1875 C 11.238281 0.1875 9.222656 -0.300781 7.421875 -1.28125 C 5.628906 -2.269531 4.222656 -3.640625 3.203125 -5.390625 C 2.179688 -7.148438 1.671875 -9.113281 1.671875 -11.28125 C 1.671875 -13.445312 2.179688 -15.40625 3.203125 -17.15625 C 4.222656 -18.914062 5.632812 -20.285156 7.4375 -21.265625 C 9.25 -22.253906 11.269531 -22.75 13.5 -22.75 C 15.175781 -22.75 16.722656 -22.46875 18.140625 -21.90625 C 19.566406 -21.351562 20.773438 -20.539062 21.765625 -19.46875 L 20.25 -17.953125 C 18.476562 -19.734375 16.253906 -20.625 13.578125 -20.625 C 11.785156 -20.625 10.160156 -20.21875 8.703125 -19.40625 C 7.242188 -18.59375 6.097656 -17.472656 5.265625 -16.046875 C 4.441406 -14.628906 4.03125 -13.039062 4.03125 -11.28125 C 4.03125 -9.519531 4.441406 -7.929688 5.265625 -6.515625 C 6.097656 -5.097656 7.242188 -3.976562 8.703125 -3.15625 C 10.160156 -2.34375 11.785156 -1.9375 13.578125 -1.9375 C 16.273438 -1.9375 18.5 -2.835938 20.25 -4.640625 L 21.765625 -3.125 C 20.773438 -2.050781 19.5625 -1.226562 18.125 -0.65625 C 16.695312 -0.09375 15.144531 0.1875 13.46875 0.1875 Z M 13.46875 0.1875 "/></g></g></g><g fill="#000000" fill-opacity="1"><g transform="translate(261.338902, 368.748223)"><g><path d="M 3.671875 -22.5625 L 6.0625 -22.5625 L 6.0625 -2.0625 L 18.703125 -2.0625 L 18.703125 0 L 3.671875 0 Z M 3.671875 -22.5625 "/></g></g></g><g fill="#000000" fill-opacity="1"><g transform="translate(306.110313, 368.748223)"><g><path d="M 19.625 -2.0625 L 19.625 0 L 3.671875 0 L 3.671875 -22.5625 L 19.140625 -22.5625 L 19.140625 -20.5 L 6.0625 -20.5 L 6.0625 -12.46875 L 17.734375 -12.46875 L 17.734375 -10.4375 L 6.0625 -10.4375 L 6.0625 -2.0625 Z M 19.625 -2.0625 "/></g></g></g><g fill="#000000" fill-opacity="1"><g transform="translate(353.459764, 368.748223)"><g><path d="M 9.890625 0.1875 C 8.210938 0.1875 6.601562 -0.078125 5.0625 -0.609375 C 3.53125 -1.148438 2.347656 -1.859375 1.515625 -2.734375 L 2.453125 -4.578125 C 3.265625 -3.765625 4.347656 -3.101562 5.703125 -2.59375 C 7.054688 -2.09375 8.453125 -1.84375 9.890625 -1.84375 C 11.910156 -1.84375 13.425781 -2.210938 14.4375 -2.953125 C 15.445312 -3.691406 15.953125 -4.648438 15.953125 -5.828125 C 15.953125 -6.734375 15.675781 -7.453125 15.125 -7.984375 C 14.582031 -8.523438 13.910156 -8.941406 13.109375 -9.234375 C 12.316406 -9.523438 11.210938 -9.84375 9.796875 -10.1875 C 8.097656 -10.613281 6.742188 -11.023438 5.734375 -11.421875 C 4.722656 -11.828125 3.859375 -12.4375 3.140625 -13.25 C 2.421875 -14.0625 2.0625 -15.164062 2.0625 -16.5625 C 2.0625 -17.707031 2.363281 -18.742188 2.96875 -19.671875 C 3.570312 -20.609375 4.492188 -21.351562 5.734375 -21.90625 C 6.984375 -22.46875 8.53125 -22.75 10.375 -22.75 C 11.664062 -22.75 12.925781 -22.570312 14.15625 -22.21875 C 15.394531 -21.863281 16.46875 -21.378906 17.375 -20.765625 L 16.5625 -18.859375 C 15.625 -19.484375 14.613281 -19.953125 13.53125 -20.265625 C 12.457031 -20.578125 11.40625 -20.734375 10.375 -20.734375 C 8.394531 -20.734375 6.90625 -20.347656 5.90625 -19.578125 C 4.914062 -18.816406 4.421875 -17.835938 4.421875 -16.640625 C 4.421875 -15.734375 4.691406 -15.003906 5.234375 -14.453125 C 5.785156 -13.910156 6.472656 -13.492188 7.296875 -13.203125 C 8.128906 -12.910156 9.242188 -12.59375 10.640625 -12.25 C 12.296875 -11.84375 13.632812 -11.4375 14.65625 -11.03125 C 15.675781 -10.632812 16.539062 -10.035156 17.25 -9.234375 C 17.957031 -8.429688 18.3125 -7.34375 18.3125 -5.96875 C 18.3125 -4.820312 18.003906 -3.78125 17.390625 -2.84375 C 16.773438 -1.914062 15.832031 -1.175781 14.5625 -0.625 C 13.300781 -0.0820312 11.742188 0.1875 9.890625 0.1875 Z M 9.890625 0.1875 "/></g></g></g></svg>