<?xml version="1.0" standalone="no"?>
<!DOCTYPE svg PUBLIC "-//W3C//DTD SVG 20010904//EN"
 "http://www.w3.org/TR/2001/REC-SVG-20010904/DTD/svg10.dtd">
<svg version="1.0" xmlns="http://www.w3.org/2000/svg"
 width="1563.000000pt" height="1230.000000pt" viewBox="0 0 1563.000000 1230.000000"
 preserveAspectRatio="xMidYMid meet">

<g transform="translate(0.000000,1230.000000) scale(0.100000,-0.100000)"
fill="#000000" stroke="none">
<path d="M8758 11979 c-130 -17 -409 -87 -432 -109 -5 -5 5 -34 23 -69 17 -33
31 -65 31 -71 0 -10 -45 6 -158 56 l-63 28 -52 -19 c-148 -52 -468 -213 -621
-312 -37 -24 -70 -42 -72 -40 -2 2 29 53 69 114 40 60 89 143 109 184 38 76
80 191 73 198 -3 2 -57 -47 -122 -109 -111 -107 -247 -221 -355 -299 -45 -32
-48 -37 -48 -80 0 -55 -13 -82 -27 -57 -7 13 -25 -5 -93 -91 -98 -124 -110
-119 -61 24 17 48 29 89 27 90 -5 5 -178 -117 -246 -172 -206 -170 -404 -423
-543 -695 -72 -143 -144 -317 -134 -327 4 -4 40 1 80 10 123 28 199 39 231 33
20 -4 58 -32 104 -76 41 -39 75 -70 76 -70 20 0 301 52 310 57 28 18 493 345
589 415 191 140 280 179 530 232 378 82 653 107 935 87 243 -17 249 -20 121
-60 -224 -71 -401 -169 -537 -295 -64 -60 -157 -175 -148 -183 2 -3 24 7 48
21 105 61 302 123 469 147 95 13 348 14 361 1 5 -5 -12 -17 -39 -27 -97 -36
-273 -127 -339 -175 -71 -52 -69 -59 11 -40 139 32 621 80 647 64 5 -3 -40
-30 -99 -59 -131 -65 -252 -152 -352 -254 -70 -72 -176 -210 -167 -218 2 -3
26 7 53 20 169 85 419 123 696 106 468 -29 903 -239 1262 -610 122 -126 189
-209 286 -354 70 -104 234 -414 224 -423 -2 -3 -53 28 -112 67 -133 89 -333
188 -473 234 -182 59 -179 63 -50 -70 473 -485 849 -1081 1056 -1670 10 -29
23 -53 28 -53 13 0 -1 435 -19 565 -81 593 -305 1161 -662 1678 -41 60 -73
110 -71 112 7 8 208 -94 300 -152 53 -33 128 -87 168 -119 40 -32 87 -70 103
-84 29 -23 26 -15 -35 102 -82 156 -170 291 -281 429 -113 141 -300 341 -431
463 -59 54 -105 100 -103 103 8 7 216 -90 324 -150 56 -32 150 -89 208 -127
l106 -71 -31 45 c-172 251 -480 543 -878 835 -40 29 -71 55 -69 58 12 12 370
-140 527 -224 47 -26 134 -75 193 -111 60 -35 110 -62 112 -60 6 6 -164 197
-255 286 -120 118 -312 271 -469 374 -74 48 -138 88 -143 88 -5 0 -51 -27
-101 -61 -229 -152 -501 -247 -752 -264 l-90 -6 150 61 c130 52 293 136 283
145 -2 1 -28 -1 -58 -6 -166 -24 -535 -21 -740 8 -44 6 -44 6 -15 14 17 4 134
22 260 39 502 67 803 139 985 237 l45 24 -70 -5 c-193 -15 -275 -18 -292 -12
-13 5 24 24 132 67 284 113 481 228 670 394 l40 35 -135 -51 c-365 -138 -547
-195 -723 -228 -105 -20 -307 -39 -307 -29 0 3 35 18 78 33 135 48 327 153
241 132 -123 -30 -229 -40 -419 -41 -113 -1 -214 3 -225 7 -16 7 12 21 132 72
212 88 382 175 344 175 -7 0 -68 -9 -135 -20 -282 -46 -981 -150 -1106 -165
-148 -16 -187 -18 -177 -8 4 3 85 43 180 88 170 80 312 160 372 210 l30 25
-115 -1 c-63 -1 -145 -5 -182 -10z"/>
<path d="M7740 10385 c-166 -28 -408 -127 -500 -205 l-35 -30 35 -30 c54 -46
149 -90 223 -102 209 -34 414 96 496 315 11 32 21 60 21 62 0 10 -167 3 -240
-10z"/>
<path d="M2487 10193 c-18 -29 -29 -204 -24 -373 6 -197 28 -353 73 -525 96
-370 318 -789 591 -1116 l73 -89 105 0 c121 0 117 5 89 -106 -11 -41 -13 -71
-8 -82 5 -9 66 -72 135 -139 86 -84 141 -129 174 -143 37 -16 308 -90 329 -90
3 0 -24 55 -59 123 -77 148 -124 256 -164 379 -33 100 -64 228 -58 234 2 3 35
-21 73 -52 123 -101 296 -228 424 -309 142 -89 390 -221 390 -207 0 5 -8 16
-17 23 -73 61 -327 389 -435 564 l-74 120 -250 187 -249 187 -142 1 c-79 0
-143 4 -143 9 0 4 18 47 41 95 22 48 39 91 37 95 -2 4 -46 43 -98 86 -353 292
-627 661 -770 1039 -21 54 -40 94 -43 89z"/>
<path d="M13110 10165 c-54 -162 -191 -413 -315 -580 -149 -199 -368 -427
-563 -584 l-92 -75 23 -24 c12 -13 86 -76 165 -140 78 -63 142 -119 142 -122
0 -11 -176 -20 -372 -20 -98 0 -178 -3 -178 -6 0 -4 18 -63 40 -132 38 -117
97 -372 151 -644 12 -65 26 -118 30 -118 7 0 215 227 259 282 l21 27 -35 142
c-20 77 -34 144 -32 148 3 4 57 -1 121 -10 64 -10 122 -16 128 -13 16 6 136
191 219 338 241 426 362 926 328 1348 -6 79 -15 161 -19 183 l-7 40 -14 -40z"/>
<path d="M6025 10022 c-50 -24 -257 -172 -308 -221 -160 -151 -245 -435 -217
-718 25 -258 140 -559 266 -700 l43 -48 -10 35 c-13 47 -13 204 0 263 15 62
60 161 100 214 17 24 65 68 106 98 80 59 95 77 116 139 8 21 30 56 49 78 34
38 49 43 500 192 256 85 458 156 450 159 -8 3 -64 13 -125 22 -60 9 -238 41
-395 70 -157 29 -334 61 -395 70 -60 10 -121 20 -134 24 l-23 7 37 44 c53 64
128 125 213 172 39 22 72 42 72 45 0 2 -30 18 -67 35 -89 41 -215 50 -278 20z"/>
<path d="M6870 9340 c-14 -4 -145 -47 -291 -94 -146 -47 -281 -96 -300 -109
-21 -14 -49 -50 -75 -98 -31 -58 -66 -101 -149 -183 -59 -58 -106 -108 -103
-111 7 -7 193 58 270 94 92 44 122 77 150 164 l23 72 195 100 c287 149 361
192 280 165z"/>
<path d="M7215 9123 c-120 -15 -360 -81 -424 -117 -21 -12 -7 -13 110 -9 74 3
189 0 255 -6 227 -21 363 -79 496 -211 155 -155 185 -315 95 -512 -172 -375
-672 -846 -1035 -974 l-67 -24 60 0 c227 0 581 97 825 227 203 109 416 290
507 431 23 35 43 59 47 54 9 -14 -12 -127 -34 -182 -81 -205 -172 -313 -455
-538 -310 -246 -511 -475 -634 -721 -23 -46 -47 -95 -52 -109 l-10 -25 30 24
c189 156 293 236 438 341 532 383 724 573 881 868 69 130 113 259 159 470 l5
25 9 -24 c5 -13 20 -67 34 -120 96 -378 83 -787 -35 -1140 -21 -64 -37 -117
-36 -119 8 -7 117 122 172 203 192 280 306 643 330 1053 4 62 11 109 15 105 4
-4 21 -55 38 -113 132 -461 117 -958 -43 -1434 -81 -243 -139 -365 -315 -666
-49 -85 -88 -156 -86 -159 9 -8 148 114 240 212 161 168 296 363 424 609 135
259 192 527 217 1017 l7 135 20 -39 c38 -75 117 -335 141 -467 37 -198 50
-376 43 -588 -9 -278 -49 -538 -131 -845 -19 -71 -34 -131 -32 -132 4 -4 120
157 178 247 147 228 260 494 324 765 16 66 30 111 32 101 7 -33 -18 -262 -44
-416 -97 -568 -284 -1198 -583 -1965 -39 -101 -62 -169 -51 -155 77 98 355
497 490 704 418 640 626 1041 776 1491 43 132 65 184 70 171 8 -22 -2 -294
-16 -421 -34 -308 -117 -629 -244 -947 -35 -87 -60 -158 -56 -158 11 0 239
234 317 325 316 371 657 931 868 1430 l68 160 -12 56 c-6 31 -32 128 -57 215
-119 417 -313 816 -549 1130 -85 112 -117 147 -100 108 95 -228 176 -517 221
-791 35 -214 29 -645 -11 -853 -14 -75 -15 -72 -40 90 -56 361 -156 654 -297
866 -59 89 -78 105 -78 64 0 -36 -59 -275 -66 -268 -2 3 -11 42 -19 89 -38
199 -118 414 -218 579 -48 80 -159 221 -233 296 -70 70 -244 214 -244 200 0
-2 23 -42 50 -87 331 -545 447 -1281 315 -1989 -9 -47 -19 -100 -22 -118 -13
-75 -18 -29 -14 146 17 882 -312 1664 -855 2032 l-71 49 61 -102 c103 -172
165 -358 186 -558 12 -123 13 -239 1 -239 -5 0 -23 37 -41 83 -112 285 -312
539 -615 783 -112 89 -302 235 -325 249 -8 5 -3 -5 10 -21 93 -114 114 -143
144 -197 82 -147 134 -377 111 -493 -7 -39 -8 -39 -40 62 -70 214 -187 393
-319 487 -28 20 -29 20 -21 1 38 -92 48 -153 49 -301 1 -179 -11 -211 -39
-106 -10 37 -42 115 -72 173 -145 286 -417 470 -773 525 -86 13 -279 18 -355
8z"/>
<path d="M4015 8943 c9 -21 41 -84 70 -140 168 -315 325 -524 589 -789 246
-245 523 -451 834 -619 78 -43 142 -81 142 -85 0 -11 -215 -97 -300 -120 -351
-93 -811 -93 -1275 1 -161 33 -430 104 -575 152 -74 25 -136 44 -138 42 -1 -1
66 -36 150 -78 409 -202 803 -321 1608 -487 453 -93 585 -134 708 -220 45 -32
87 -72 113 -109 l41 -59 74 -12 c41 -6 76 -16 80 -21 3 -5 -8 -28 -25 -51 -17
-23 -28 -45 -24 -49 19 -18 164 -90 220 -108 93 -31 99 -30 113 32 23 98 108
372 154 495 25 68 46 129 46 136 0 9 -93 45 -257 101 -292 100 -563 203 -563
214 0 4 82 29 183 56 119 31 188 54 198 66 20 22 253 459 248 463 -2 1 -76 15
-164 30 -323 54 -637 135 -840 216 -42 17 -82 30 -90 30 -9 0 -26 -24 -39 -54
-13 -29 -28 -56 -34 -60 -6 -4 -23 32 -41 87 l-31 93 -138 66 c-320 156 -641
395 -925 687 -108 112 -125 126 -112 94z"/>
<path d="M2236 7914 c-11 -29 -6 -218 9 -314 50 -335 216 -641 497 -918 221
-218 415 -350 718 -488 283 -129 519 -208 784 -263 124 -26 345 -61 379 -61 7
0 -44 26 -112 56 -143 65 -310 160 -425 242 -141 101 -343 309 -409 421 l-18
31 68 -31 c261 -118 600 -214 883 -250 118 -15 478 -19 555 -5 48 8 43 10
-145 42 -781 132 -1462 400 -2003 787 -253 181 -520 435 -689 654 -61 80 -88
108 -92 97z"/>
<path d="M13374 7892 c-34 -54 -189 -233 -296 -343 -211 -216 -482 -426 -765
-595 -81 -48 -149 -88 -150 -89 -1 0 -4 -83 -7 -184 -3 -101 -7 -185 -9 -187
-2 -3 -34 -13 -70 -23 -59 -16 -69 -17 -88 -3 -20 14 -26 9 -132 -97 -128
-128 -211 -195 -352 -288 -55 -37 -106 -73 -113 -82 -24 -31 -64 -102 -60
-107 3 -2 71 9 152 26 811 169 1497 647 1771 1233 92 198 134 375 142 605 6
148 1 173 -23 134z"/>
<path d="M11746 6647 c-33 -19 -45 -37 -86 -127 -27 -58 -47 -106 -46 -107 4
-5 148 51 228 89 l87 41 -52 63 c-58 71 -72 75 -131 41z"/>
<path d="M9230 6047 c-25 -34 -80 -99 -122 -144 -82 -87 -81 -85 -98 -208 -25
-177 -85 -380 -176 -593 -24 -57 -44 -106 -44 -109 0 -2 37 24 83 59 92 71
392 365 456 446 39 52 41 57 41 125 0 40 -6 110 -14 157 -16 100 -65 312 -75
322 -3 3 -26 -21 -51 -55z"/>
<path d="M7642 6003 c-398 -286 -748 -774 -888 -1241 l-17 -57 -8 35 c-42 188
-35 553 16 817 20 106 76 310 109 397 15 38 25 71 23 73 -5 5 -137 -242 -178
-332 -126 -280 -216 -611 -253 -935 -25 -215 -19 -566 13 -719 l7 -34 93 117
94 118 121 57 c140 67 185 85 191 79 5 -5 -38 -173 -90 -346 -20 -68 -37 -136
-37 -150 -1 -27 124 -286 210 -437 151 -265 384 -585 546 -753 l71 -72 80 6
c44 4 91 13 105 20 31 15 163 150 261 264 150 175 336 443 466 670 225 392
429 911 517 1315 4 17 -21 -19 -54 -80 -302 -541 -746 -999 -1246 -1283 -50
-29 -94 -52 -98 -52 -10 0 -71 139 -126 286 -134 355 -200 709 -200 1062 0
271 32 484 106 711 42 129 145 344 213 446 28 41 47 75 42 75 -5 0 -45 -26
-89 -57z"/>
<path d="M2920 5880 c0 -20 52 -148 86 -210 84 -153 240 -320 403 -429 96 -64
220 -131 243 -131 6 0 24 12 40 27 l27 26 73 -23 c40 -12 78 -26 83 -32 6 -5
17 -30 25 -56 l15 -47 158 -32 c293 -59 531 -66 781 -23 181 31 181 29 6 89
-200 69 -335 127 -454 196 -109 63 -199 125 -192 132 3 3 49 -2 102 -12 135
-24 450 -17 607 14 184 37 413 129 498 201 l24 20 -45 -16 c-216 -74 -569
-108 -890 -86 -195 14 -459 48 -524 67 -97 29 -118 23 -281 -80 -52 -32 -91
-51 -93 -45 -2 6 4 52 13 101 10 52 14 94 9 98 -5 4 -56 20 -114 35 -122 32
-328 107 -484 177 -122 55 -116 53 -116 39z"/>
<path d="M12620 5822 c-133 -57 -409 -152 -487 -168 -18 -4 -33 -9 -33 -13 -8
-121 -30 -325 -36 -331 -5 -5 -61 54 -124 131 -63 76 -118 139 -121 139 -3 0
-29 -50 -58 -111 -28 -62 -55 -108 -59 -105 -4 4 -30 44 -58 89 -58 95 -40 90
-239 63 -66 -9 -173 -19 -238 -23 l-119 -6 -55 -69 c-31 -38 -52 -72 -48 -76
12 -13 286 -4 414 12 68 10 125 15 128 12 2 -2 -41 -34 -97 -71 -119 -79 -283
-159 -500 -245 -85 -34 -158 -65 -163 -69 -9 -9 79 -26 216 -42 148 -17 494
-7 632 20 175 33 214 47 221 79 12 60 21 68 96 95 84 31 101 33 118 11 32 -37
47 -36 131 6 286 144 507 377 599 629 17 46 30 89 28 95 -2 7 -64 -15 -148
-52z"/>
<path d="M5799 4974 c-24 -29 -207 -145 -307 -195 -335 -165 -738 -259 -1402
-324 -91 -9 -169 -17 -175 -19 -14 -4 144 -106 250 -160 177 -91 420 -168 578
-183 l70 -6 -6 96 c-3 54 -2 97 1 97 4 0 39 -33 77 -75 l70 -76 85 16 c282 53
537 158 722 298 90 69 95 73 122 105 18 21 16 21 -45 -7 -159 -72 -364 -112
-604 -118 -164 -4 -312 6 -275 19 8 3 80 26 160 52 233 75 403 166 533 286 57
52 132 142 156 188 14 26 9 29 -10 6z"/>
<path d="M10485 4615 c-21 -31 -36 -57 -34 -59 4 -4 159 -53 324 -102 81 -24
87 -28 65 -37 -34 -13 -385 -12 -495 2 -140 18 -282 49 -375 82 -47 17 -91 31
-99 32 -70 9 97 -124 259 -207 169 -87 338 -143 558 -187 l113 -22 62 59 c34
33 73 69 86 79 l24 20 -7 -94 -7 -93 58 7 c170 20 336 72 518 160 123 60 311
173 302 182 -3 2 -85 12 -183 23 -346 37 -599 81 -936 166 -97 24 -181 44
-186 44 -5 0 -26 -25 -47 -55z"/>
<path d="M5807 4265 c-203 -102 -401 -245 -594 -429 l-97 -92 28 -117 c20 -87
32 -117 43 -117 8 0 56 11 107 24 50 14 110 30 132 36 41 10 43 12 79 103 46
117 105 227 157 295 23 29 42 51 44 50 1 -2 -7 -35 -18 -73 -32 -105 -32 -338
0 -453 65 -239 207 -428 407 -545 6 -3 -1 20 -16 51 -73 150 -64 340 31 636
31 98 32 100 25 240 -4 77 -11 161 -14 186 l-7 45 -47 -95 c-75 -154 -157
-439 -157 -550 0 -48 -16 -42 -33 13 -79 256 -61 603 42 805 15 29 18 42 9 42
-7 0 -62 -25 -121 -55z"/>
<path d="M9685 4280 c-18 -20 -18 -23 -2 -92 32 -131 42 -258 29 -365 -13
-108 -41 -226 -71 -294 -22 -51 -23 -49 -46 80 -16 94 -60 245 -96 328 -24 56
-30 52 -95 -56 -26 -42 -55 -88 -65 -103 -28 -40 -24 -71 26 -179 87 -190 100
-238 100 -384 0 -122 -2 -134 -28 -190 -15 -33 -35 -67 -44 -77 -30 -33 -7
-28 53 10 169 109 309 298 370 496 50 164 58 402 19 527 -12 37 11 18 51 -44
46 -68 108 -190 144 -280 12 -31 26 -60 31 -63 14 -8 492 -75 516 -72 20 3 16
11 -49 98 -85 113 -280 310 -398 401 -118 91 -404 279 -424 279 -2 0 -11 -9
-21 -20z"/>
<path d="M8992 3658 c-18 -30 -19 -45 -15 -150 9 -180 -30 -414 -80 -483 -14
-17 -16 -16 -36 30 -25 56 -86 135 -105 135 -12 0 -94 -121 -137 -200 -10 -19
-13 -66 -10 -195 3 -198 -12 -296 -78 -486 -22 -63 -38 -116 -36 -118 7 -6
128 92 209 169 208 198 347 429 411 684 30 119 29 174 -2 341 -16 89 -79 291
-93 300 -4 3 -17 -10 -28 -27z"/>
<path d="M6519 3352 c-175 -151 -189 -165 -189 -197 0 -73 73 -292 144 -433
95 -190 273 -397 430 -500 43 -29 80 -51 82 -50 1 2 -13 45 -32 95 -56 151
-68 213 -68 368 -1 107 3 156 18 210 l19 71 -22 42 c-12 23 -45 81 -72 128
l-51 86 -34 -33 c-18 -19 -49 -63 -68 -99 l-35 -65 -16 37 c-28 69 -39 142
-39 270 -1 71 -1 128 -1 128 0 0 -30 -26 -66 -58z"/>
<path d="M7129 1200 c-210 -33 -370 -192 -401 -400 -32 -218 89 -430 292 -510
222 -87 489 -8 611 181 89 139 94 356 12 498 -99 170 -304 263 -514 231z m265
-119 c81 -39 156 -119 187 -199 19 -45 23 -77 23 -152 0 -129 -25 -192 -108
-276 -86 -85 -146 -108 -286 -109 -93 0 -111 3 -163 27 -75 35 -157 114 -192
185 -40 80 -47 219 -17 306 39 110 128 197 244 239 42 15 73 18 150 15 85 -3
106 -8 162 -36z"/>
<path d="M9329 1200 c-111 -17 -209 -70 -286 -153 -76 -83 -115 -189 -115
-317 0 -216 118 -381 322 -450 155 -53 396 -9 484 89 19 21 19 22 -9 51 l-28
29 -36 -29 c-61 -49 -128 -73 -217 -78 -175 -9 -321 75 -393 227 -23 49 -26
68 -26 161 0 93 3 112 27 162 71 152 216 236 392 226 89 -5 156 -29 217 -78
l36 -29 28 30 29 29 -23 24 c-28 30 -123 81 -176 94 -62 16 -164 21 -226 12z"/>
<path d="M15084 1200 c-178 -24 -282 -142 -260 -293 16 -104 96 -161 306 -217
152 -40 189 -55 227 -93 53 -51 56 -128 6 -188 -35 -41 -70 -57 -147 -68 -122
-17 -263 16 -352 84 l-31 24 -17 -36 c-15 -32 -15 -37 -1 -53 52 -57 197 -102
330 -103 218 0 345 94 345 255 0 74 -26 128 -82 168 -38 28 -82 44 -321 115
-101 30 -151 67 -167 124 -20 74 21 146 102 181 95 41 268 26 365 -30 l33 -19
15 29 c21 41 19 47 -23 69 -89 45 -220 66 -328 51z"/>
<path d="M230 730 l0 -472 248 4 c275 5 319 13 426 82 270 174 269 602 -2 775
-103 65 -152 74 -424 79 l-248 4 0 -472z m450 379 c132 -21 244 -99 297 -208
26 -51 28 -66 28 -171 0 -105 -2 -120 -28 -171 -33 -69 -109 -142 -180 -174
-72 -33 -158 -45 -329 -45 l-148 0 0 390 0 390 148 0 c81 0 176 -5 212 -11z"/>
<path d="M2661 1138 c-16 -35 -99 -218 -186 -408 -87 -190 -171 -373 -186
-408 l-29 -63 51 3 50 3 54 120 54 120 267 0 267 0 55 -123 55 -122 49 0 c27
0 48 4 46 9 -1 6 -97 217 -213 470 l-210 461 -48 0 -48 0 -28 -62z m193 -300
c58 -131 106 -240 106 -243 0 -3 -102 -5 -226 -5 -177 0 -225 3 -221 13 3 6
44 100 92 207 48 107 96 215 107 239 11 26 22 41 28 35 5 -5 56 -116 114 -246z"/>
<path d="M4450 730 l0 -470 45 0 45 0 2 373 3 372 184 -312 c152 -259 187
-313 205 -313 18 0 53 54 206 317 l185 316 3 -376 2 -377 45 0 45 0 0 470 0
470 -39 0 -39 0 -203 -350 c-172 -299 -204 -347 -214 -332 -6 9 -99 167 -205
350 l-194 332 -38 0 -38 0 0 -470z"/>
<path d="M11050 730 l0 -470 310 0 310 0 0 40 0 40 -262 2 -263 3 -3 428 -2
427 -45 0 -45 0 0 -470z"/>
<path d="M12920 730 l0 -470 330 0 330 0 0 40 0 40 -285 0 -285 0 0 180 0 180
245 0 245 0 0 40 0 40 -245 0 -245 0 0 170 0 170 275 0 275 0 0 40 0 40 -320
0 -320 0 0 -470z"/>
</g>
</svg>
