<svg version="1.1" id="Layer_1" xmlns="http://www.w3.org/2000/svg" xmlns:xlink="http://www.w3.org/1999/xlink" x="0px" y="0px"
	 width="100%" viewBox="0 0 1563 1230" enable-background="new 0 0 1563 1230" xml:space="preserve">
<path fill="#FFFFFF" opacity="1.000000" stroke="none" 
	d="
M1564.000000,452.000000 
	C1564.000000,711.976807 1564.000000,971.453613 1564.000000,1230.965210 
	C1043.069702,1230.965210 522.139465,1230.965210 1.104604,1230.965210 
	C1.104604,821.106384 1.104604,411.212738 1.104604,1.159552 
	C521.999939,1.159552 1043.000000,1.159552 1564.000000,1.159552 
	C1564.000000,151.194138 1564.000000,301.347076 1564.000000,452.000000 
M880.713318,731.821777 
	C900.991394,716.983521 918.895569,699.630676 934.846619,680.269287 
	C936.617493,678.119812 938.017334,675.026672 938.175354,672.289490 
	C939.216003,654.272461 933.802673,637.314026 929.562317,619.797546 
	C928.572754,620.404297 928.084717,620.565735 927.797546,620.899902 
	C920.425415,629.478333 912.983521,637.999939 905.794006,646.729309 
	C904.304932,648.537354 903.144348,651.059448 902.886414,653.370117 
	C899.994568,679.272888 892.066772,703.673828 881.375854,727.295593 
	C880.680420,728.832092 880.603149,730.648376 879.923096,732.018433 
	C879.761292,732.156128 879.599426,732.293762 879.437561,732.431335 
	C879.684021,732.366211 879.930542,732.301086 880.713318,731.821777 
M570.222351,832.206543 
	C570.222351,832.206543 570.575806,832.496033 570.426758,833.251404 
	C564.537170,852.176514 565.152466,870.990173 571.869995,889.536926 
	C579.181091,909.722290 591.190674,926.151123 610.957581,936.714661 
	C611.190308,936.689392 611.422974,936.664124 611.655701,936.638916 
	C611.474304,936.390747 611.292969,936.142639 611.081238,935.165527 
	C609.010864,928.902527 606.167053,922.776672 605.026672,916.348694 
	C602.426453,901.691162 606.422485,887.636780 610.433472,873.688049 
	C612.128967,867.791809 615.108459,861.920471 615.233887,855.989807 
	C615.484558,844.135559 614.169128,832.248291 613.500427,820.374634 
	C613.098511,820.217163 612.696533,820.059631 612.294617,819.902100 
	C608.960938,826.974365 605.214722,833.887451 602.407410,841.162720 
	C599.485413,848.735168 597.123901,856.570923 595.157471,864.451294 
	C593.278137,871.982056 592.222351,879.718262 590.804565,887.364197 
	C580.937927,857.410522 581.146484,827.977356 595.050293,798.635925 
	C593.423889,799.038147 592.468445,799.143982 591.620300,799.503052 
	C561.837219,812.110168 537.056030,831.724182 514.674133,854.648438 
	C513.673096,855.673767 512.882935,857.692017 513.139771,859.027466 
	C514.541016,866.312439 516.301208,873.528381 518.004761,881.063782 
	C523.971313,879.529907 529.178223,877.635132 534.541321,876.932129 
	C544.668518,875.604614 551.282837,870.925842 553.159363,860.464417 
	C553.474182,858.708923 554.313965,856.960327 555.255920,855.419189 
	C560.073059,847.537781 565.003235,839.725525 570.222351,832.206543 
M939.696045,938.982117 
	C980.712585,914.575378 991.988647,877.337219 985.397217,831.814697 
	C993.997803,843.013245 999.644287,854.997620 1004.303406,867.473755 
	C1005.564209,870.849792 1007.551819,872.508362 1011.119446,872.980225 
	C1022.336182,874.463684 1033.515869,876.224792 1044.725952,877.762268 
	C1050.018066,878.488037 1055.346680,878.949097 1061.499512,879.622070 
	C1060.393555,877.789551 1059.927856,876.929199 1059.380737,876.124207 
	C1037.502930,843.939697 1007.396484,821.197205 974.149902,802.124451 
	C973.054749,801.496216 969.918701,802.205872 969.465027,803.136047 
	C968.485901,805.143555 967.858337,807.919312 968.444519,809.997986 
	C972.677185,825.006226 973.669556,840.203003 970.910706,855.477051 
	C969.350464,864.115234 966.627991,872.543457 964.429016,881.066284 
	C963.868958,881.003357 963.308960,880.940369 962.748901,880.877380 
	C960.649353,863.918091 956.355957,847.624268 948.370667,831.323181 
	C943.648010,838.878113 939.674744,845.994629 934.921753,852.545471 
	C932.181396,856.322327 931.886597,859.577820 933.684998,863.568420 
	C936.891907,870.684631 940.300598,877.737488 943.009827,885.044922 
	C949.729370,903.169067 951.240417,921.036743 938.953491,937.778931 
	C938.757019,938.046814 939.013550,938.647217 938.668091,938.783203 
	C938.576599,939.051575 938.485107,939.319946 938.393616,939.588257 
	C938.589294,939.383179 938.784912,939.178101 939.696045,938.982117 
M581.278870,733.094910 
	C564.544434,746.333191 545.859192,755.881531 525.830688,763.121338 
	C492.042084,775.334961 456.790649,779.988708 421.389923,783.986389 
	C411.466980,785.106995 401.524353,786.053223 390.512482,787.190857 
	C418.761383,807.325012 448.555573,819.886719 482.871490,822.897949 
	C482.454895,816.118774 482.087708,810.144287 481.720551,804.169800 
	C486.381866,807.568970 489.706879,811.693359 493.599609,815.184753 
	C495.296082,816.706360 498.318970,817.933105 500.463654,817.586548 
	C520.260803,814.387939 539.362610,808.755371 557.258667,799.568420 
	C569.995422,793.029907 581.848755,785.185181 591.504944,774.273376 
	C561.755127,786.981018 530.959351,791.262268 499.008392,787.158936 
	C499.671753,786.369812 500.446899,786.180115 501.183167,785.891235 
	C515.693542,780.199646 530.607300,775.340027 544.598450,768.573059 
	C560.559387,760.853210 573.565918,749.141357 582.906311,733.084229 
	C582.859131,732.836365 582.811951,732.588562 582.764771,732.340698 
	C582.491150,732.539978 582.217529,732.739258 581.278870,733.094910 
M401.940430,333.291412 
	C401.685364,333.260651 401.430298,333.229919 401.175262,333.199158 
	C401.223022,333.630402 401.270782,334.061615 401.543121,335.173492 
	C436.184418,410.041443 493.100922,462.698029 566.062195,499.529449 
	C565.354004,500.146851 565.040344,500.579834 564.618164,500.764313 
	C559.134949,503.160004 553.753784,505.854736 548.122131,507.834534 
	C515.883789,519.167786 482.567200,520.500061 448.972229,517.497070 
	C412.835815,514.266968 377.860352,505.480957 343.543701,493.915253 
	C341.971619,493.385376 340.279480,493.211700 338.643250,492.872131 
	C348.896820,498.985229 359.346649,504.399719 370.116089,509.078491 
	C412.313385,527.411011 456.897064,537.539368 501.671875,547.016785 
	C520.861694,551.078674 540.074890,555.133484 559.055115,560.049744 
	C574.816833,564.132324 588.861023,571.433350 597.869080,586.089966 
	C598.837830,587.666199 601.734863,588.313721 603.873413,588.856873 
	C607.491760,589.776123 611.218689,590.267822 615.514404,591.051331 
	C612.906189,594.596436 610.800171,597.458862 607.725769,601.637634 
	C618.059875,605.974548 627.430481,610.065063 636.936890,613.810974 
	C640.261353,615.120972 642.240723,613.729553 643.146484,609.843079 
	C644.992981,601.919434 647.239929,594.068176 649.741394,586.322632 
	C654.226440,572.435181 659.021301,558.647705 663.823059,544.414124 
	C636.655884,533.944214 608.270569,526.564453 580.465271,513.831726 
	C592.513000,510.604340 603.032654,507.566132 613.675598,505.049194 
	C617.647278,504.109955 620.020996,502.181641 621.858459,498.666321 
	C628.714294,485.550598 635.793701,472.551910 642.765930,459.496857 
	C643.452209,458.211914 643.979126,456.841797 644.704834,455.234680 
	C606.551880,449.053833 569.072998,441.903625 533.618835,426.779999 
	C531.315857,431.315430 529.333679,435.219055 526.735779,440.335358 
	C524.858276,434.793945 523.280334,430.653687 522.070740,426.408447 
	C521.044128,422.805420 519.163208,420.571716 515.572510,418.940918 
	C490.287842,407.457764 466.594177,393.214905 445.633728,374.987793 
	C430.588745,361.904785 416.592773,347.615540 401.940430,333.291412 
M1139.876831,372.429169 
	C1118.044922,357.054504 1094.726196,344.902679 1067.041870,338.604828 
	C1121.439209,392.615997 1162.779541,453.397552 1187.337280,524.996155 
	C1191.039307,466.943634 1178.710327,412.317780 1154.659424,360.057617 
	C1143.220947,335.202667 1129.227661,311.831696 1113.852905,289.143921 
	C1113.852905,289.143921 1114.184204,288.807037 1114.919800,288.853790 
	C1136.121338,297.262207 1154.488037,310.143890 1171.758301,324.994141 
	C1170.947876,322.154480 1169.794800,319.641663 1168.574219,317.162079 
	C1157.612061,294.895874 1143.567383,274.681793 1126.781616,256.495667 
	C1113.802979,242.434143 1100.055298,229.082443 1086.939087,215.078125 
	C1086.939087,215.078125 1087.233643,214.745544 1087.971558,214.814148 
	C1108.914917,223.102356 1128.076782,234.684921 1147.102173,247.680435 
	C1146.965454,246.419861 1147.033936,246.043427 1146.881836,245.812027 
	C1145.879028,244.286255 1144.856934,242.771332 1143.789795,241.289963 
	C1127.628418,218.856491 1107.933350,199.844513 1086.532104,182.535309 
	C1075.443359,173.566895 1064.076904,164.942108 1053.154663,155.841492 
	C1053.154663,155.841492 1053.462646,155.510300 1054.197266,155.657043 
	C1080.482788,164.803223 1105.115356,177.348145 1128.817749,191.831451 
	C1130.451782,192.829987 1132.479858,193.183716 1133.815918,194.066162 
	C1133.975220,194.291306 1134.134644,194.516449 1134.293945,194.741592 
	C1134.264404,194.454697 1134.234863,194.167801 1133.807251,193.335754 
	C1110.772217,163.812714 1082.574829,140.219254 1050.748413,120.732910 
	C1047.405518,118.686127 1045.099243,118.572571 1041.866333,121.007339 
	C1036.697754,124.899986 1031.225464,128.487564 1025.542725,131.581879 
	C1004.252197,143.174789 981.765564,150.827438 957.049805,151.057388 
	C957.049805,151.057388 956.867554,150.851654 957.223145,150.218948 
	C970.658447,144.991959 984.474670,140.536682 996.003540,131.286621 
	C968.478394,135.202118 941.132202,133.991852 913.753540,130.480545 
	C958.141724,123.115379 1003.841736,121.299217 1045.863281,99.425713 
	C1032.520020,100.236366 1020.282959,100.979820 1008.045898,101.723267 
	C1007.994995,101.241768 1007.944092,100.760262 1007.893127,100.278755 
	C1009.850525,99.506691 1011.857300,98.839745 1013.757507,97.946014 
	C1029.530151,90.527649 1045.778809,83.936043 1060.872314,75.322388 
	C1071.395264,69.317078 1080.326538,60.522449 1090.526123,52.900753 
	C1090.502441,52.697155 1090.478760,52.493557 1090.455078,52.289951 
	C1090.322510,52.314293 1090.080566,52.324627 1090.075317,52.365307 
	C1090.046265,52.592472 1090.074463,52.826965 1089.347168,52.706760 
	C1074.858276,57.991875 1060.414551,63.405071 1045.869995,68.532349 
	C1023.586426,76.387833 1000.890747,82.366821 978.533630,82.657524 
	C988.292847,77.536354 999.196045,71.814873 1010.396118,65.825935 
	C1010.325378,65.700859 1010.254639,65.575783 1010.183838,65.450722 
	C1010.189880,65.689636 1010.195862,65.928558 1009.386230,65.768387 
	C995.683105,67.375114 982.012695,69.442146 968.264832,70.419632 
	C959.724487,71.026855 951.066833,69.983162 942.461792,69.680450 
	C950.742004,64.940643 959.218750,61.662510 967.464172,57.880325 
	C975.804810,54.054489 983.916504,49.729668 992.128418,45.623432 
	C991.942261,45.283588 991.756042,44.943748 991.569885,44.603905 
	C944.300964,51.626614 897.031982,58.649323 849.763062,65.672028 
	C849.636230,65.096397 849.509399,64.520760 849.382629,63.945122 
	C868.485352,54.196598 889.118225,47.100780 906.476990,32.283382 
	C879.948364,29.368210 842.007812,38.855778 832.384338,44.617393 
	C834.490417,48.901497 836.621094,53.235756 838.751770,57.570015 
	C833.037048,56.261353 827.995911,54.245548 823.130981,51.869034 
	C818.795288,49.751015 814.848694,49.740036 810.265747,51.587341 
	C788.612976,60.315258 767.933044,70.894669 748.099792,83.174004 
	C746.815308,83.969238 745.459839,84.649742 742.897095,86.071930 
	C748.494446,77.145927 753.424744,69.680725 757.939880,61.972378 
	C762.505981,54.177200 766.205017,45.969517 768.204224,35.446442 
	C765.938904,37.568825 764.802124,38.696480 763.600525,39.750122 
	C750.465027,51.267635 737.519531,63.014477 724.082458,74.169189 
	C718.365479,78.915123 711.538269,82.369225 714.074463,90.408142 
	C711.866638,91.296913 710.141541,91.461601 709.319885,92.409393 
	C704.533752,97.929863 699.959778,103.634216 694.898438,108.908539 
	C694.756592,108.789650 694.614807,108.670769 694.477783,107.763397 
	C696.311157,101.620270 698.144531,95.477150 700.020630,89.190933 
	C668.643738,99.993996 608.045410,178.429825 606.878601,209.846558 
	C611.313354,208.869659 615.636230,207.740189 620.023254,206.981049 
	C641.405823,203.280960 637.726501,201.509445 652.954285,216.167587 
	C654.672913,217.821884 657.950989,218.846481 660.353210,218.610199 
	C666.957092,217.960724 673.563293,216.820816 680.004822,215.217239 
	C684.232239,214.164856 688.631042,212.628754 692.170837,210.178986 
	C713.116577,195.683105 733.682800,180.635971 754.715210,166.269958 
	C761.371094,161.723724 768.708679,157.543350 776.348083,155.178268 
	C810.084229,144.734024 844.644958,139.073105 880.082214,139.688309 
	C885.745850,139.786636 891.420227,139.874695 897.064514,140.300171 
	C902.489502,140.709137 907.881897,141.549820 911.707275,142.010391 
	C898.364380,148.039383 883.682495,153.817169 869.835815,161.168243 
	C855.677856,168.684494 844.248474,179.671783 836.199463,193.930481 
	C863.737732,179.279221 892.855286,173.831421 923.703918,177.040405 
	C918.881348,179.633911 913.874390,181.700272 908.987854,184.020279 
	C898.662354,188.922653 888.200623,193.637695 879.576538,202.134048 
	C879.639221,202.306717 879.701904,202.479385 879.764526,202.652054 
	C879.817566,202.414719 879.870544,202.177368 880.744873,202.322220 
	C897.550903,200.040970 914.328613,197.509125 931.177063,195.602585 
	C937.858215,194.846542 944.696533,195.478470 951.997925,195.478470 
	C922.111511,209.893478 891.972229,235.886215 890.555298,248.264359 
	C894.505310,246.530731 898.366516,244.548096 902.419373,243.102875 
	C934.408630,231.695587 966.831177,232.429382 999.203674,240.772430 
	C1041.472656,251.666000 1075.156494,276.057617 1103.029907,308.987122 
	C1119.034424,327.894806 1131.953369,348.751923 1140.822632,372.248138 
	C1140.713867,372.412323 1140.604980,372.576508 1139.876831,372.429169 
M850.650757,659.811768 
	C912.886230,609.359314 942.044495,543.875366 939.614807,463.553070 
	C944.627625,475.191467 949.031372,486.605682 952.019897,498.379120 
	C966.649292,556.013062 958.922607,612.591003 943.164612,668.805664 
	C969.401306,637.596313 986.331238,601.878906 996.087708,562.499756 
	C987.824707,649.627747 959.349854,731.153931 927.820496,811.994995 
	C929.218750,811.057983 930.285706,809.918579 931.151245,808.642517 
	C953.288635,776.005981 975.939270,743.701416 997.377014,710.611084 
	C1019.565063,676.362671 1038.703979,640.397461 1052.556030,601.849182 
	C1055.770996,592.902039 1058.561890,583.802429 1061.547974,574.773010 
	C1064.093628,628.371582 1050.844482,678.676086 1030.164551,727.531250 
	C1034.388794,724.376648 1038.278442,721.218201 1041.738403,717.643799 
	C1091.877808,665.844055 1128.226685,605.285645 1155.014771,538.705566 
	C1155.951172,536.378235 1156.335815,533.366638 1155.763794,530.962830 
	C1144.930298,485.439178 1128.087280,442.459351 1101.052612,403.915344 
	C1095.929688,396.611450 1090.305176,389.659363 1084.912109,382.544952 
	C1084.512085,382.766937 1084.112061,382.988892 1083.712036,383.210876 
	C1094.524780,409.964966 1102.581665,437.464111 1106.483276,466.063354 
	C1110.411743,494.858459 1110.174805,523.567139 1104.724121,551.660278 
	C1100.471680,533.123230 1096.833130,514.028381 1091.604858,495.379242 
	C1086.335815,476.584412 1077.868652,459.098969 1064.783081,443.319885 
	C1062.371460,453.864563 1060.204834,463.338562 1058.038086,472.812531 
	C1048.817505,410.325256 1008.222595,369.430969 985.257202,357.349426 
	C1006.832153,390.305115 1019.010193,426.043121 1024.821045,464.169281 
	C1029.802002,496.849945 1026.736816,560.975830 1019.143066,576.894470 
	C1019.143066,573.793884 1019.038269,570.632019 1019.159363,567.478821 
	C1020.264526,538.701233 1017.801270,510.255341 1010.969604,482.258789 
	C1001.927307,445.203186 986.904968,411.062378 960.879822,382.569092 
	C950.998413,371.750519 940.335754,361.705872 926.952820,354.368439 
	C926.708374,354.368866 926.463989,354.369293 926.219543,354.369690 
	C926.408875,354.653656 926.598145,354.937592 926.887573,355.912933 
	C945.246582,384.424988 956.251587,425.239075 950.292664,443.147583 
	C949.627258,441.484283 948.989014,439.976624 948.416260,438.444489 
	C940.562805,417.436218 928.675659,398.978180 913.410461,382.597076 
	C898.921143,367.048523 882.233093,354.088135 865.344055,341.356140 
	C861.388306,338.374146 857.247864,335.637085 852.919434,332.308380 
	C852.492310,332.273712 852.065186,332.239044 851.638062,332.204376 
	C851.906189,332.663300 852.174255,333.122223 852.827820,334.117615 
	C872.064697,353.933990 881.104248,377.470093 879.069885,404.503571 
	C874.551086,394.243103 870.443909,383.238281 864.987122,372.949219 
	C858.065186,359.897339 847.857239,349.871429 840.823486,347.430847 
	C846.605286,362.807922 848.840332,378.311676 844.762085,395.528290 
	C843.924377,392.626770 843.446960,390.901245 842.928467,389.188141 
	C835.896973,365.956573 822.543274,347.390289 801.653320,334.810455 
	C770.164307,315.847900 736.427185,313.516296 701.493530,322.599823 
	C693.288757,324.733215 685.374451,327.984070 677.326538,330.720825 
	C677.455933,331.165222 677.585327,331.609619 677.714722,332.054016 
	C690.111206,332.054016 702.517212,331.745605 714.902100,332.125549 
	C733.980286,332.710846 751.156677,338.586121 765.347900,351.858185 
	C780.541443,366.067719 784.517761,383.796722 775.965027,402.698059 
	C766.077271,424.549561 751.005432,442.711517 733.912415,459.284760 
	C716.094727,476.560608 696.645142,491.485107 673.427673,500.917480 
	C671.167725,501.835632 668.830933,502.564941 666.529846,503.381897 
	C666.779358,503.917389 667.028809,504.452911 667.278320,504.988403 
	C724.198792,500.770294 773.913757,482.010345 809.270691,433.183228 
	C808.631104,448.095917 802.562134,460.516479 794.487732,472.110382 
	C785.407715,485.148224 773.113464,494.922150 760.623047,504.389954 
	C737.990295,521.545776 718.132263,541.320740 703.030579,565.489197 
	C698.255859,573.130737 694.548157,581.438965 690.352112,589.442017 
	C690.742432,589.658875 691.132812,589.875732 691.523193,590.092590 
	C699.126099,583.932861 706.575928,577.571838 714.361145,571.651855 
	C735.962036,555.226257 758.037292,539.406494 779.295166,522.552856 
	C801.207214,505.180481 819.470886,484.414215 830.365906,458.294525 
	C835.565430,445.829376 838.976990,432.618408 842.977234,420.419647 
	C842.826111,420.019470 843.090027,420.608551 843.274292,421.221558 
	C852.974915,453.489258 855.611633,486.304993 849.378723,519.451660 
	C846.935242,532.445923 842.390015,545.044983 838.333435,558.116638 
	C838.320496,558.554810 838.307556,558.992981 838.294617,559.431091 
	C838.718933,559.126160 839.143311,558.821167 840.092407,558.121521 
	C845.909058,551.075928 852.290466,544.418030 857.441406,536.915405 
	C876.440430,509.241760 885.345459,477.969360 888.944031,444.964661 
	C889.723511,437.815979 890.074768,430.620605 890.718567,422.201050 
	C891.543213,423.917938 891.859375,424.437653 892.053040,424.999603 
	C898.104431,442.554779 901.584351,460.656555 902.860474,479.134003 
	C905.782410,521.440735 898.585266,562.120300 880.903992,600.583862 
	C872.529907,618.800537 862.001709,636.024475 852.550903,653.752258 
	C851.462341,655.794250 851.026978,658.184509 849.974487,660.098206 
	C849.804260,660.197205 849.634033,660.296143 849.463806,660.395142 
	C849.721619,660.379883 849.979431,660.364685 850.650757,659.811768 
M797.535339,867.052551 
	C788.641174,872.401794 779.747009,877.750977 770.753479,883.159973 
	C769.877625,881.634644 769.407715,880.944397 769.062317,880.196594 
	C746.785889,831.955200 734.887451,781.638611 738.839600,728.191528 
	C741.531921,691.781128 752.430786,658.159485 773.231750,627.946289 
	C773.819946,627.092041 774.289490,626.156067 774.814331,625.258179 
	C774.397095,624.980530 773.979858,624.702820 773.562622,624.425171 
	C725.152954,657.382874 692.663452,702.300720 674.422668,759.457336 
	C667.308044,713.477356 673.371887,670.433899 689.697998,627.494385 
	C657.476501,660.312683 631.064514,790.419189 648.278442,831.263855 
	C658.948730,811.057800 675.832031,799.663574 697.230774,793.633911 
	C696.929810,795.242371 696.765198,796.701233 696.378540,798.098694 
	C692.744080,811.233154 689.229187,824.404053 685.326111,837.458679 
	C683.937073,842.104675 684.294922,846.034729 686.611023,850.290344 
	C694.239502,864.307129 701.110535,878.754944 709.147339,892.526733 
	C724.459045,918.764893 742.143250,943.340454 763.188782,965.361938 
	C764.614014,966.853210 766.564331,968.694824 768.377258,968.819519 
	C777.437561,969.442810 786.295654,969.309570 793.036011,961.383423 
	C801.660828,951.241333 811.167664,941.824280 819.463745,931.431702 
	C858.238220,882.858765 885.476562,828.223083 903.617126,768.942078 
	C906.585632,759.241333 908.831421,749.319336 911.411255,739.499634 
	C911.036377,739.345947 910.661499,739.192200 910.286621,739.038452 
	C883.397888,790.842407 846.753906,834.036499 797.535339,867.052551 
M359.629608,352.259094 
	C350.877747,352.259094 342.125916,352.259094 332.913361,352.259094 
	C333.890839,350.120941 334.924194,347.912842 335.913544,345.685150 
	C337.724701,341.606934 341.599487,336.992737 340.741547,333.573761 
	C339.809204,329.858459 334.569244,327.126678 331.031219,324.177643 
	C294.240875,293.511841 265.900177,256.869720 250.676224,210.907532 
	C250.626389,210.757065 250.174255,210.739868 249.645187,210.580811 
	C249.439743,211.351685 249.200012,212.102859 249.040710,212.870712 
	C244.502380,234.747345 245.879242,256.689636 249.390762,278.434021 
	C258.106415,332.404236 283.495972,378.370300 318.744415,419.340912 
	C320.396149,421.260803 323.775787,422.312378 326.470001,422.583679 
	C331.512207,423.091431 336.641907,422.729767 342.198883,422.729767 
	C341.203247,427.095551 340.344666,431.301697 339.267212,435.451019 
	C338.340179,439.021027 339.027740,441.775269 341.892548,444.367950 
	C347.197144,449.168610 352.600586,453.962372 357.234833,459.381561 
	C369.584076,473.822662 387.695496,473.148743 404.886475,479.079071 
	C391.323120,454.870422 380.257416,431.393188 375.272522,403.936401 
	C403.251709,427.656586 432.019897,447.641846 464.487366,461.878082 
	C464.108276,460.842560 463.541992,460.065460 462.895355,459.362183 
	C444.590118,439.452515 428.151825,418.154663 414.294189,394.874268 
	C412.316254,391.551331 409.351898,388.577179 406.262146,386.196991 
	C394.923828,377.462524 383.361450,369.017609 371.836334,360.527588 
	C368.097626,357.773407 364.214691,355.214966 359.629608,352.259094 
M399.012360,582.487976 
	C439.216431,596.473938 480.272186,602.861755 522.728333,596.756653 
	C520.149902,595.920288 517.533020,595.440674 514.902954,595.048767 
	C468.820953,588.181519 424.056152,576.512451 381.178528,558.092773 
	C320.129364,531.866821 267.260956,494.899292 227.609848,440.662689 
	C226.897247,439.687927 225.943405,438.889587 224.808578,437.701630 
	C224.432831,438.710327 224.163147,439.124023 224.135330,439.553375 
	C222.796265,460.232086 224.964493,480.433441 232.500610,499.876984 
	C248.300156,540.640625 276.826721,570.761841 313.085175,593.687195 
	C353.364258,619.154663 397.676453,634.414978 444.683411,641.900513 
	C450.885132,642.888062 457.139740,643.543274 463.369873,644.352417 
	C463.462494,643.935913 463.555145,643.519409 463.647766,643.102905 
	C425.745789,627.465149 391.940521,606.480164 369.269073,570.832703 
	C378.940552,574.618103 388.612000,578.403503 399.012360,582.487976 
M1271.362793,508.882263 
	C1254.396362,520.003174 1237.479980,531.202087 1220.415649,542.170837 
	C1217.448364,544.078247 1215.936890,545.955933 1216.046143,549.660645 
	C1216.311157,558.649475 1216.190918,567.652832 1216.051025,576.647644 
	C1216.025024,578.323792 1215.709595,580.579773 1214.620728,581.547668 
	C1211.067383,584.706116 1201.072632,584.973694 1197.242554,582.378479 
	C1182.469482,599.774048 1165.241089,614.357849 1145.677490,626.093201 
	C1139.423218,629.844788 1136.517456,635.758484 1132.748047,642.434326 
	C1136.217896,641.860107 1138.816406,641.478149 1141.396118,640.996033 
	C1192.225952,631.495850 1238.550415,611.929810 1277.996704,578.027832 
	C1318.911255,542.863892 1343.270630,499.523834 1341.046143,443.892639 
	C1340.992676,442.555115 1340.817139,441.222534 1340.575317,438.498413 
	C1320.365112,465.815826 1297.756348,488.730042 1271.362793,508.882263 
M1303.045166,324.547089 
	C1316.045898,287.519440 1320.811157,249.732208 1313.513306,209.296051 
	C1294.618652,264.140869 1258.143555,303.932770 1214.163574,338.830383 
	C1225.767212,348.511749 1236.877197,357.781158 1247.987061,367.050568 
	C1247.788818,367.450806 1247.590576,367.851074 1247.392334,368.251312 
	C1229.324463,368.251312 1211.256714,368.251312 1193.655518,368.251312 
	C1200.834351,399.013824 1207.919556,429.375549 1215.145752,460.341675 
	C1224.153320,450.210876 1232.992188,440.486725 1241.485962,430.469849 
	C1242.686768,429.053772 1242.831177,426.074860 1242.391968,424.052124 
	C1240.605347,415.822510 1238.400757,407.683563 1236.130981,398.636688 
	C1243.532959,399.742493 1250.062988,400.651642 1256.567261,401.718140 
	C1259.746582,402.239441 1262.055298,401.932373 1264.183472,398.822266 
	C1279.932495,375.806000 1293.544434,351.698029 1303.045166,324.547089 
M616.279785,316.872620 
	C619.449768,314.608704 622.307800,311.431335 625.839111,310.225464 
	C653.982300,300.614990 682.254089,291.381073 710.482239,282.019073 
	C711.913269,281.544464 713.305847,280.953522 715.777954,280.012726 
	C678.711548,273.339905 642.878784,266.889191 606.677979,260.372223 
	C614.594177,248.274643 625.945129,241.024338 638.508484,235.029465 
	C627.758667,226.401260 609.075684,222.074234 596.925659,232.225494 
	C592.595154,235.843567 587.866882,239.015167 583.155579,242.142471 
	C563.413025,255.247025 553.916382,274.412231 551.064270,297.199280 
	C547.078125,329.048004 555.338318,358.212646 571.756531,385.319275 
	C574.412903,389.704865 577.932129,393.567749 581.052551,397.672272 
	C581.776733,396.442749 581.606873,395.817047 581.481812,395.182495 
	C577.189636,373.402863 580.962219,353.645020 598.762207,339.188141 
	C606.383240,332.998535 612.737000,326.768616 616.279785,316.872620 
M541.275208,675.831055 
	C542.711914,674.781067 544.148560,673.731018 545.585266,672.680969 
	C540.698547,673.347595 536.291504,674.792053 531.808044,675.937866 
	C503.383362,683.202454 474.484985,683.902832 445.487762,681.333435 
	C430.592468,680.013550 415.649597,678.216919 401.031036,675.178833 
	C392.623474,673.431458 385.471802,673.128113 378.585175,678.595093 
	C376.512024,680.240906 374.140900,681.516907 371.877991,682.916687 
	C368.834106,684.799438 365.762909,686.638123 361.680206,689.116943 
	C362.969055,682.459290 363.855957,677.078674 365.095490,671.780518 
	C365.817352,668.695190 365.165680,667.480103 361.856812,666.682434 
	C338.983032,661.168457 317.208466,652.563538 295.920380,642.653992 
	C294.831818,642.147156 293.672455,641.792358 291.987396,641.155701 
	C292.838379,643.921326 293.369934,645.998047 294.116943,647.994141 
	C295.222748,650.948853 296.361053,653.902527 297.693604,656.759583 
	C311.444122,686.241760 334.694183,705.817627 363.537201,719.400757 
	C365.088226,720.131226 368.192261,719.479797 369.550476,718.296997 
	C372.216370,715.975342 374.452209,714.627258 377.888428,716.592346 
	C379.437012,717.477844 381.317413,717.905762 383.103760,718.228943 
	C387.790253,719.076843 390.549896,721.624084 390.740173,726.501404 
	C390.868469,729.789551 392.741882,730.916260 395.724487,731.574036 
	C415.101807,735.847717 434.565155,739.285278 454.514313,739.161255 
	C470.775879,739.060181 486.790192,737.393677 503.701782,732.303467 
	C474.851990,723.060303 447.372253,713.827209 423.230438,695.071472 
	C425.700897,695.071472 427.162537,694.811646 428.498749,695.111145 
	C443.965271,698.578369 459.570435,698.458374 475.213043,696.925232 
	C498.482513,694.644653 520.750977,689.129639 541.275208,675.831055 
M1079.458740,735.057129 
	C1082.565674,735.619141 1085.657227,736.293335 1088.782104,736.725647 
	C1118.164185,740.789978 1147.231934,739.138000 1175.891724,731.494873 
	C1177.864136,730.968811 1180.540283,728.659546 1180.778320,726.894775 
	C1181.451294,721.907288 1184.117065,719.674622 1188.593140,718.549255 
	C1190.995972,717.945129 1193.371704,717.063477 1195.601074,715.980347 
	C1198.625732,714.510864 1201.073975,714.931152 1203.062134,717.593689 
	C1205.150513,720.390503 1207.420654,720.289856 1210.426758,718.871277 
	C1228.278564,710.446899 1243.997925,699.147644 1256.904419,684.197021 
	C1267.439209,671.993835 1275.072754,658.170715 1278.949463,641.529297 
	C1276.825317,642.456970 1275.404053,643.166138 1273.922363,643.711304 
	C1254.765625,650.759705 1235.689087,658.046021 1216.371704,664.624084 
	C1211.788818,666.184631 1210.078247,667.925659 1209.899902,672.674683 
	C1209.560059,681.724792 1208.514404,690.748413 1207.761841,699.783020 
	C1207.349487,699.924133 1206.937012,700.065308 1206.524658,700.206482 
	C1198.816772,691.019104 1191.108887,681.831726 1182.885498,672.029968 
	C1178.946411,679.865845 1175.363159,686.993713 1171.459595,694.759033 
	C1168.265259,689.531921 1165.359375,685.086060 1162.786499,680.455322 
	C1161.134766,677.482605 1159.319336,676.452209 1155.671143,676.879822 
	C1140.649048,678.640564 1125.565796,679.875000 1110.520386,681.449036 
	C1108.474854,681.662964 1105.882202,682.118835 1104.634888,683.470459 
	C1100.842407,687.580078 1097.584839,692.183350 1093.328857,697.599976 
	C1103.351685,697.599976 1112.284058,697.985535 1121.167603,697.491394 
	C1130.027954,696.998413 1138.839233,695.623779 1147.672119,694.635620 
	C1125.245972,713.145142 1098.182495,722.217529 1070.963013,733.315796 
	C1074.412354,734.054932 1076.524292,734.507385 1079.458740,735.057129 
M1149.147095,808.633667 
	C1161.754028,802.666077 1174.156860,796.365601 1186.143921,786.655945 
	C1182.871948,786.334961 1181.090332,786.196167 1179.317871,785.980835 
	C1161.817261,783.854736 1144.159790,782.572449 1126.857666,779.370667 
	C1103.681763,775.081909 1080.784546,769.290161 1057.755737,764.198120 
	C1056.253418,763.865967 1053.827271,763.313171 1053.230713,764.029236 
	C1050.340088,767.499023 1047.927734,771.367249 1044.861572,775.793640 
	C1059.268311,780.156311 1072.504028,784.164368 1085.739868,788.172363 
	C1053.404785,791.548767 1021.763550,789.993408 991.251465,778.205688 
	C989.753235,777.626831 987.930603,777.887573 986.259033,777.757324 
	C987.046753,779.198059 987.481018,781.122070 988.680664,781.999329 
	C995.382202,786.899536 1001.991455,792.022766 1009.145142,796.189209 
	C1029.058594,807.787231 1050.917725,813.815308 1073.384155,818.294922 
	C1079.892090,819.592407 1084.059326,818.302002 1088.053589,813.420044 
	C1090.675537,810.215271 1094.045532,807.622437 1097.902466,803.979248 
	C1097.496948,811.019592 1097.177368,816.568481 1096.843506,822.365417 
	C1115.397583,821.003723 1132.216797,816.097046 1149.147095,808.633667 
M859.994995,978.293945 
	C856.741028,989.566284 853.487061,1000.838684 850.139343,1012.435791 
	C851.024963,1011.947266 851.743774,1011.631836 852.374817,1011.190857 
	C868.226990,1000.113403 882.006470,986.834595 892.722961,970.762939 
	C908.269470,947.447632 919.716553,922.754517 912.923340,893.568787 
	C910.426025,882.839783 907.113647,872.300476 903.957886,860.897339 
	C899.482361,864.461060 897.916138,867.537231 897.908142,871.980652 
	C897.886963,883.767334 898.014099,895.625183 896.762878,907.313477 
	C895.952087,914.887878 892.822876,922.214172 890.732544,929.651611 
	C890.225708,929.531433 889.718872,929.411255 889.212036,929.291077 
	C886.298401,922.177246 882.759644,915.528198 875.861511,910.716431 
	C871.990967,916.768372 868.526794,922.610046 864.629761,928.147034 
	C861.362366,932.789185 861.063843,937.608215 861.180725,943.146362 
	C861.421631,954.564331 860.517517,966.006470 859.994995,978.293945 
M678.974304,999.533325 
	C685.687561,1004.614319 692.400818,1009.695312 699.114136,1014.776306 
	C699.533447,1014.321594 699.952820,1013.866882 700.372192,1013.412109 
	C699.684326,1011.766418 698.976746,1010.128662 698.311646,1008.473816 
	C689.736450,987.135925 685.552856,965.444092 692.828369,942.762451 
	C693.307251,941.269531 693.546692,939.180542 692.869995,937.920532 
	C688.490173,929.764954 683.825012,921.762512 678.363708,912.142883 
	C673.350647,919.430725 669.125793,925.572632 664.747864,931.937134 
	C658.786560,918.721619 659.387146,904.504333 659.912659,889.004639 
	C650.797791,897.152100 642.569702,904.357605 634.586487,911.824890 
	C633.544556,912.799500 633.157776,915.245850 633.483337,916.797302 
	C640.184143,948.726990 654.231384,976.680603 678.974304,999.533325 
M543.161194,1143.500000 
	C543.161194,1132.729858 543.161194,1121.959839 543.161194,1111.481689 
	C537.081665,1109.681030 534.140564,1112.014160 531.370300,1116.979004 
	C520.276123,1136.862549 508.649078,1156.448975 497.209961,1176.139771 
	C496.418396,1177.502319 495.551422,1178.820923 494.494202,1180.522705 
	C481.787109,1158.815063 469.141571,1137.712280 457.096771,1116.272217 
	C454.212799,1111.138672 450.966980,1110.059570 445.806885,1111.391479 
	C445.806885,1142.459717 445.806885,1173.565918 445.806885,1204.768188 
	C448.925110,1204.768188 451.839264,1204.768188 455.324280,1204.768188 
	C455.324280,1180.297119 455.324280,1156.058228 455.324280,1130.538086 
	C467.400940,1151.100098 478.753387,1170.454712 490.135956,1189.791504 
	C493.022125,1194.694458 495.826080,1194.646973 498.731812,1189.671997 
	C509.295135,1171.586670 519.833740,1153.486938 530.394836,1135.400269 
	C531.182861,1134.050781 532.074768,1132.761963 532.918396,1131.444946 
	C533.206421,1131.527832 533.494446,1131.610718 533.782471,1131.693604 
	C533.782471,1156.023315 533.782471,1180.353027 533.782471,1204.711182 
	C537.176941,1204.711182 540.074280,1204.711182 543.161194,1204.711182 
	C543.161194,1184.445068 543.161194,1164.472534 543.161194,1143.500000 
M23.221704,1127.502441 
	C23.221704,1153.244385 23.221704,1178.986206 23.221704,1204.071899 
	C40.084255,1204.071899 56.487617,1205.389282 72.593025,1203.760498 
	C96.235878,1201.369507 111.986679,1181.937012 111.992523,1158.010376 
	C111.998367,1134.075317 96.315552,1114.876709 72.639992,1112.170166 
	C57.672081,1110.459106 42.415382,1111.267212 27.287647,1110.974731 
	C26.023842,1110.950317 24.755735,1111.148560 23.221708,1111.263428 
	C23.221708,1116.567749 23.221708,1121.536133 23.221704,1127.502441 
M673.256470,1164.062988 
	C676.156616,1187.689941 694.515076,1203.162964 716.979004,1205.650757 
	C741.907654,1208.411743 764.482300,1193.459839 770.340576,1169.723633 
	C776.253174,1145.767456 764.091614,1121.782715 741.270386,1113.480835 
	C707.672485,1101.258911 669.798096,1122.953491 673.256470,1164.062988 
M1292.219360,1193.474609 
	C1292.219360,1197.242798 1292.219360,1201.011108 1292.219360,1204.744995 
	C1314.758057,1204.744995 1336.672974,1204.744995 1358.613770,1204.744995 
	C1358.613770,1201.894287 1358.613770,1199.326050 1358.613770,1196.292480 
	C1339.755005,1196.292480 1321.166138,1196.292480 1302.399414,1196.292480 
	C1302.399414,1184.572876 1302.399414,1173.328247 1302.399414,1161.450317 
	C1318.638428,1161.450317 1334.685181,1161.450317 1350.776489,1161.450317 
	C1350.776489,1158.366943 1350.776489,1155.918091 1350.776489,1153.001953 
	C1334.548584,1153.001953 1318.480713,1153.001953 1302.375610,1153.001953 
	C1302.375610,1141.747559 1302.375610,1130.963257 1302.375610,1119.526367 
	C1320.588745,1119.526367 1338.630493,1119.526367 1356.537842,1119.526367 
	C1356.537842,1116.292847 1356.537842,1113.720703 1356.537842,1111.286377 
	C1334.965454,1111.286377 1313.735229,1111.286377 1292.219360,1111.286377 
	C1292.219360,1138.570801 1292.219360,1165.526978 1292.219360,1193.474609 
M266.903473,1117.262939 
	C253.594467,1146.347168 240.285446,1175.431274 226.749542,1205.011353 
	C228.471527,1205.011353 229.629822,1204.830078 230.710876,1205.042358 
	C235.622238,1206.006714 238.139984,1203.913208 239.849060,1199.285767 
	C242.256363,1192.767822 245.417709,1186.528320 248.296310,1180.080933 
	C265.840820,1180.080933 283.285248,1180.080933 300.840302,1180.080933 
	C304.623718,1188.434692 308.379150,1196.726685 312.069214,1204.874268 
	C315.565399,1204.874268 318.702484,1204.874268 321.828369,1204.874268 
	C321.879181,1204.412720 322.048309,1204.027100 321.931854,1203.771606 
	C308.172089,1173.574707 294.415100,1143.376343 280.515411,1113.243896 
	C280.011017,1112.150391 278.167786,1111.272583 276.820953,1111.043091 
	C272.229553,1110.260864 268.181427,1110.857056 266.903473,1117.262939 
M1494.113525,1129.077881 
	C1497.882202,1122.241821 1504.220093,1119.763916 1511.476318,1119.001465 
	C1522.734009,1117.818726 1533.285889,1120.064575 1543.302124,1126.367188 
	C1544.458862,1123.605103 1545.459717,1121.215088 1546.679321,1118.302856 
	C1530.286865,1109.226440 1513.630737,1106.852417 1496.428833,1114.679932 
	C1486.841797,1119.042358 1482.515869,1127.138672 1482.931763,1137.710205 
	C1483.323486,1147.665527 1489.166260,1153.652344 1497.777344,1157.050293 
	C1504.088013,1159.540527 1510.808472,1160.970825 1517.265869,1163.115845 
	C1523.071289,1165.044434 1529.197876,1166.561035 1534.411499,1169.587891 
	C1542.486694,1174.275879 1543.090088,1185.117188 1535.980469,1191.241333 
	C1533.439331,1193.430420 1530.077759,1195.210205 1526.816040,1195.927002 
	C1511.323853,1199.332031 1497.097778,1196.379517 1484.384521,1186.164551 
	C1483.096680,1188.666504 1481.844604,1191.098877 1480.541626,1193.630127 
	C1489.974487,1202.297119 1501.142090,1205.080811 1512.953613,1205.733032 
	C1522.557007,1206.263428 1531.824951,1204.792114 1540.260742,1199.567261 
	C1552.353149,1192.077271 1556.567505,1169.199097 1537.911377,1160.224609 
	C1534.191895,1158.435303 1530.163696,1157.234009 1526.198730,1156.020142 
	C1518.418945,1153.638306 1510.402954,1151.914795 1502.817627,1149.040527 
	C1493.670654,1145.574219 1491.043823,1139.161377 1494.113525,1129.077881 
M927.650696,1203.911987 
	C945.891113,1208.135620 962.506104,1205.729736 976.656250,1192.348877 
	C974.389221,1190.016357 972.460327,1188.031616 970.529541,1186.045044 
	C952.724121,1202.792358 926.632324,1198.581299 913.740173,1185.103638 
	C899.666138,1170.390503 899.428162,1146.731689 913.090027,1131.565552 
	C925.048157,1118.291016 951.179932,1112.321533 971.213684,1130.339233 
	C972.575623,1128.715820 973.969910,1127.062622 975.352661,1125.399780 
	C975.764709,1124.904175 976.145020,1124.382080 976.783081,1123.558105 
	C963.268005,1110.825928 947.397400,1107.748291 930.029602,1111.635986 
	C908.365295,1116.485596 894.341309,1133.594727 893.216003,1155.635010 
	C892.076660,1177.949585 904.757629,1196.062378 927.650696,1203.911987 
M774.702454,192.148804 
	C755.158630,195.663483 737.267822,202.883453 721.502441,215.192474 
	C730.046753,226.995407 749.111267,232.825699 764.844543,228.853226 
	C781.626099,224.616074 796.601318,208.033936 798.809509,190.266403 
	C790.932617,190.869125 783.254883,191.456619 774.702454,192.148804 
M1115.499023,1147.500244 
	C1115.499023,1135.398438 1115.499023,1123.296509 1115.499023,1111.138672 
	C1111.926758,1111.138672 1108.962646,1111.138672 1105.803711,1111.138672 
	C1105.803711,1142.419312 1105.803711,1173.528687 1105.803711,1204.797241 
	C1126.590088,1204.797241 1147.177002,1204.797241 1167.907593,1204.797241 
	C1167.907593,1201.999878 1167.907593,1199.414062 1167.907593,1196.334839 
	C1150.464233,1196.334839 1133.217896,1196.334839 1115.499023,1196.334839 
	C1115.499023,1180.063721 1115.499023,1164.282104 1115.499023,1147.500244 
M621.149414,326.669647 
	C617.328735,331.595245 613.713806,336.699646 609.631653,341.398071 
	C605.217834,346.478302 600.367615,351.179382 595.707764,356.045807 
	C596.103882,356.594910 596.500000,357.144012 596.896118,357.693146 
	C605.670532,354.278229 614.412354,350.776520 623.228333,347.472504 
	C632.285095,344.078308 637.467224,337.754456 639.379944,328.236267 
	C639.842957,325.932220 642.106140,323.351990 644.244995,322.137390 
	C651.893311,317.794006 659.886047,314.062317 667.669250,309.949341 
	C676.415100,305.327637 685.075012,300.543488 693.772278,295.830017 
	C673.150574,301.390015 652.972107,307.972046 632.865601,314.767242 
	C627.397888,316.615112 623.735107,320.697296 621.149414,326.669647 
M1169.996094,587.464111 
	C1178.046753,584.116760 1186.097534,580.769409 1194.727295,577.181274 
	C1191.678955,573.484375 1189.389282,570.657959 1187.046021,567.876709 
	C1182.766235,562.796997 1175.124878,562.839844 1171.672241,568.708740 
	C1167.790039,575.307861 1164.994873,582.546509 1161.255127,590.511414 
	C1164.720215,589.325256 1166.995972,588.546204 1169.996094,587.464111 
z"/>
<path fill="#E32132" opacity="1.000000" stroke="none" 
	d="
M927.101685,354.893066 
	C940.335754,361.705872 950.998413,371.750519 960.879822,382.569092 
	C986.904968,411.062378 1001.927307,445.203186 1010.969604,482.258789 
	C1017.801270,510.255341 1020.264526,538.701233 1019.159363,567.478821 
	C1019.038269,570.632019 1019.143066,573.793884 1019.143066,576.894470 
	C1026.736816,560.975830 1029.802002,496.849945 1024.821045,464.169281 
	C1019.010193,426.043121 1006.832153,390.305115 985.257202,357.349426 
	C1008.222595,369.430969 1048.817505,410.325256 1058.038086,472.812531 
	C1060.204834,463.338562 1062.371460,453.864563 1064.783081,443.319885 
	C1077.868652,459.098969 1086.335815,476.584412 1091.604858,495.379242 
	C1096.833130,514.028381 1100.471680,533.123230 1104.724121,551.660278 
	C1110.174805,523.567139 1110.411743,494.858459 1106.483276,466.063354 
	C1102.581665,437.464111 1094.524780,409.964966 1083.712036,383.210876 
	C1084.112061,382.988892 1084.512085,382.766937 1084.912109,382.544952 
	C1090.305176,389.659363 1095.929688,396.611450 1101.052612,403.915344 
	C1128.087280,442.459351 1144.930298,485.439178 1155.763794,530.962830 
	C1156.335815,533.366638 1155.951172,536.378235 1155.014771,538.705566 
	C1128.226685,605.285645 1091.877808,665.844055 1041.738403,717.643799 
	C1038.278442,721.218201 1034.388794,724.376648 1030.164551,727.531250 
	C1050.844482,678.676086 1064.093628,628.371582 1061.547974,574.773010 
	C1058.561890,583.802429 1055.770996,592.902039 1052.556030,601.849182 
	C1038.703979,640.397461 1019.565063,676.362671 997.377014,710.611084 
	C975.939270,743.701416 953.288635,776.005981 931.151245,808.642517 
	C930.285706,809.918579 929.218750,811.057983 927.820496,811.994995 
	C959.349854,731.153931 987.824707,649.627747 996.087708,562.499756 
	C986.331238,601.878906 969.401306,637.596313 943.164612,668.805664 
	C958.922607,612.591003 966.649292,556.013062 952.019897,498.379120 
	C949.031372,486.605682 944.627625,475.191467 939.614807,463.553070 
	C942.044495,543.875366 912.886230,609.359314 850.458618,660.089417 
	C850.266541,660.367065 850.288757,660.413269 850.288757,660.413269 
	C851.026978,658.184509 851.462341,655.794250 852.550903,653.752258 
	C862.001709,636.024475 872.529907,618.800537 880.903992,600.583862 
	C898.585266,562.120300 905.782410,521.440735 902.860474,479.134003 
	C901.584351,460.656555 898.104431,442.554779 892.053040,424.999603 
	C891.859375,424.437653 891.543213,423.917938 890.718567,422.201050 
	C890.074768,430.620605 889.723511,437.815979 888.944031,444.964661 
	C885.345459,477.969360 876.440430,509.241760 857.441406,536.915405 
	C852.290466,544.418030 845.909058,551.075928 839.641174,558.143005 
	C839.060608,558.051025 838.931335,557.937500 838.802002,557.824036 
	C842.390015,545.044983 846.935242,532.445923 849.378723,519.451660 
	C855.611633,486.304993 852.974915,453.489258 843.274292,421.221558 
	C843.090027,420.608551 842.826111,420.019470 842.977234,420.419647 
	C838.976990,432.618408 835.565430,445.829376 830.365906,458.294525 
	C819.470886,484.414215 801.207214,505.180481 779.295166,522.552856 
	C758.037292,539.406494 735.962036,555.226257 714.361145,571.651855 
	C706.575928,577.571838 699.126099,583.932861 691.523193,590.092590 
	C691.132812,589.875732 690.742432,589.658875 690.352112,589.442017 
	C694.548157,581.438965 698.255859,573.130737 703.030579,565.489197 
	C718.132263,541.320740 737.990295,521.545776 760.623047,504.389954 
	C773.113464,494.922150 785.407715,485.148224 794.487732,472.110382 
	C802.562134,460.516479 808.631104,448.095917 809.270691,433.183228 
	C773.913757,482.010345 724.198792,500.770294 667.278320,504.988403 
	C667.028809,504.452911 666.779358,503.917389 666.529846,503.381897 
	C668.830933,502.564941 671.167725,501.835632 673.427673,500.917480 
	C696.645142,491.485107 716.094727,476.560608 733.912415,459.284760 
	C751.005432,442.711517 766.077271,424.549561 775.965027,402.698059 
	C784.517761,383.796722 780.541443,366.067719 765.347900,351.858185 
	C751.156677,338.586121 733.980286,332.710846 714.902100,332.125549 
	C702.517212,331.745605 690.111206,332.054016 677.714722,332.054016 
	C677.585327,331.609619 677.455933,331.165222 677.326538,330.720825 
	C685.374451,327.984070 693.288757,324.733215 701.493530,322.599823 
	C736.427185,313.516296 770.164307,315.847900 801.653320,334.810455 
	C822.543274,347.390289 835.896973,365.956573 842.928467,389.188141 
	C843.446960,390.901245 843.924377,392.626770 844.762085,395.528290 
	C848.840332,378.311676 846.605286,362.807922 840.823486,347.430847 
	C847.857239,349.871429 858.065186,359.897339 864.987122,372.949219 
	C870.443909,383.238281 874.551086,394.243103 879.069885,404.503571 
	C881.104248,377.470093 872.064697,353.933990 852.826416,333.654541 
	C852.947510,333.056732 853.069946,332.922028 853.192444,332.787323 
	C857.247864,335.637085 861.388306,338.374146 865.344055,341.356140 
	C882.233093,354.088135 898.921143,367.048523 913.410461,382.597076 
	C928.675659,398.978180 940.562805,417.436218 948.416260,438.444489 
	C948.989014,439.976624 949.627258,441.484283 950.292664,443.147583 
	C956.251587,425.239075 945.246582,384.424988 926.915833,355.484894 
	C926.944092,355.056854 927.101685,354.893066 927.101685,354.893066 
z"/>
<path fill="#E32031" opacity="1.000000" stroke="none" 
	d="
M1010.099243,66.093399 
	C999.196045,71.814873 988.292847,77.536354 978.533630,82.657524 
	C1000.890747,82.366821 1023.586426,76.387833 1045.869995,68.532349 
	C1060.414551,63.405071 1074.858276,57.991875 1089.685547,52.862778 
	C1090.024048,53.018799 1089.968750,52.973778 1089.968750,52.973770 
	C1080.326538,60.522449 1071.395264,69.317078 1060.872314,75.322388 
	C1045.778809,83.936043 1029.530151,90.527649 1013.757507,97.946014 
	C1011.857300,98.839745 1009.850525,99.506691 1007.893127,100.278755 
	C1007.944092,100.760262 1007.994995,101.241768 1008.045898,101.723267 
	C1020.282959,100.979820 1032.520020,100.236366 1045.863281,99.425713 
	C1003.841736,121.299217 958.141724,123.115379 913.753540,130.480545 
	C941.132202,133.991852 968.478394,135.202118 996.003540,131.286621 
	C984.474670,140.536682 970.658447,144.991959 956.755981,150.548431 
	C956.025146,151.120667 955.761414,151.363403 955.497742,151.606110 
	C956.075745,151.491837 956.653809,151.377563 957.231812,151.263306 
	C981.765564,150.827438 1004.252197,143.174789 1025.542725,131.581879 
	C1031.225464,128.487564 1036.697754,124.899986 1041.866333,121.007339 
	C1045.099243,118.572571 1047.405518,118.686127 1050.748413,120.732910 
	C1082.574829,140.219254 1110.772217,163.812714 1134.035645,193.596313 
	C1134.264160,193.856888 1134.324707,193.837326 1134.324707,193.837311 
	C1132.479858,193.183716 1130.451782,192.829987 1128.817749,191.831451 
	C1105.115356,177.348145 1080.482788,164.803223 1053.583862,155.404572 
	C1052.675171,155.211075 1052.379883,155.270065 1052.084595,155.329041 
	C1052.334961,155.606720 1052.585449,155.884384 1052.835815,156.162079 
	C1064.076904,164.942108 1075.443359,173.566895 1086.532104,182.535309 
	C1107.933350,199.844513 1127.628418,218.856491 1143.789795,241.289963 
	C1144.856934,242.771332 1145.879028,244.286255 1146.881836,245.812027 
	C1147.033936,246.043427 1146.965454,246.419861 1147.102173,247.680435 
	C1128.076782,234.684921 1108.914917,223.102356 1087.458496,214.554932 
	C1086.522827,214.296158 1086.100098,214.296616 1085.677368,214.297058 
	C1086.001465,214.669754 1086.325562,215.042450 1086.649536,215.415161 
	C1100.055298,229.082443 1113.802979,242.434143 1126.781616,256.495667 
	C1143.567383,274.681793 1157.612061,294.895874 1168.574219,317.162079 
	C1169.794800,319.641663 1170.947876,322.154480 1171.758301,324.994141 
	C1154.488037,310.143890 1136.121338,297.262207 1114.420532,288.601440 
	C1113.671143,288.374939 1113.420898,288.400787 1113.170776,288.426636 
	C1113.283813,288.773987 1113.396729,289.121368 1113.509766,289.468719 
	C1129.227661,311.831696 1143.220947,335.202667 1154.659424,360.057617 
	C1178.710327,412.317780 1191.039307,466.943634 1187.337280,524.996155 
	C1162.779541,453.397552 1121.439209,392.615997 1067.041870,338.604828 
	C1094.726196,344.902679 1118.044922,357.054504 1140.423828,372.747986 
	C1141.215576,373.005981 1141.460571,372.945160 1141.705444,372.884338 
	C1141.539429,372.522675 1141.373291,372.161041 1141.207275,371.799408 
	C1131.953369,348.751923 1119.034424,327.894806 1103.029907,308.987122 
	C1075.156494,276.057617 1041.472656,251.666000 999.203674,240.772430 
	C966.831177,232.429382 934.408630,231.695587 902.419373,243.102875 
	C898.366516,244.548096 894.505310,246.530731 890.554626,248.262802 
	C891.972229,235.886215 922.111511,209.893478 951.997925,195.478470 
	C944.696533,195.478470 937.858215,194.846542 931.177063,195.602585 
	C914.328613,197.509125 897.550903,200.040970 880.360352,202.150024 
	C879.975891,201.977844 880.027527,202.016479 880.027527,202.016479 
	C888.200623,193.637695 898.662354,188.922653 908.987854,184.020279 
	C913.874390,181.700272 918.881348,179.633911 923.703918,177.040405 
	C892.855286,173.831421 863.737732,179.279221 836.199463,193.930481 
	C844.248474,179.671783 855.677856,168.684494 869.835815,161.168243 
	C883.682495,153.817169 898.364380,148.039383 911.707275,142.010391 
	C907.881897,141.549820 902.489502,140.709137 897.064514,140.300171 
	C891.420227,139.874695 885.745850,139.786636 880.082214,139.688309 
	C844.644958,139.073105 810.084229,144.734024 776.348083,155.178268 
	C768.708679,157.543350 761.371094,161.723724 754.715210,166.269958 
	C733.682800,180.635971 713.116577,195.683105 692.170837,210.178986 
	C688.631042,212.628754 684.232239,214.164856 680.004822,215.217239 
	C673.563293,216.820816 666.957092,217.960724 660.353210,218.610199 
	C657.950989,218.846481 654.672913,217.821884 652.954285,216.167587 
	C637.726501,201.509445 641.405823,203.280960 620.023254,206.981049 
	C615.636230,207.740189 611.313354,208.869659 606.878601,209.846558 
	C608.045410,178.429825 668.643738,99.993996 700.020630,89.190933 
	C698.144531,95.477150 696.311157,101.620270 694.333252,108.392670 
	C694.231689,109.469513 694.274658,109.917076 694.317749,110.364647 
	C694.649902,110.001930 694.982056,109.639206 695.314209,109.276451 
	C699.959778,103.634216 704.533752,97.929863 709.319885,92.409393 
	C710.141541,91.461601 711.866638,91.296913 714.074463,90.408142 
	C711.538269,82.369225 718.365479,78.915123 724.082458,74.169189 
	C737.519531,63.014477 750.465027,51.267635 763.600525,39.750122 
	C764.802124,38.696480 765.938904,37.568825 768.204224,35.446442 
	C766.205017,45.969517 762.505981,54.177200 757.939880,61.972378 
	C753.424744,69.680725 748.494446,77.145927 742.897095,86.071930 
	C745.459839,84.649742 746.815308,83.969238 748.099792,83.174004 
	C767.933044,70.894669 788.612976,60.315258 810.265747,51.587341 
	C814.848694,49.740036 818.795288,49.751015 823.130981,51.869034 
	C827.995911,54.245548 833.037048,56.261353 838.751770,57.570015 
	C836.621094,53.235756 834.490417,48.901497 832.384338,44.617393 
	C842.007812,38.855778 879.948364,29.368210 906.476990,32.283382 
	C889.118225,47.100780 868.485352,54.196598 849.382629,63.945122 
	C849.509399,64.520760 849.636230,65.096397 849.763062,65.672028 
	C897.031982,58.649323 944.300964,51.626614 991.569885,44.603905 
	C991.756042,44.943748 991.942261,45.283588 992.128418,45.623432 
	C983.916504,49.729668 975.804810,54.054489 967.464172,57.880325 
	C959.218750,61.662510 950.742004,64.940643 942.461792,69.680450 
	C951.066833,69.983162 959.724487,71.026855 968.264832,70.419632 
	C982.012695,69.442146 995.683105,67.375114 1009.768921,65.948639 
	C1010.151672,66.128899 1010.099243,66.093407 1010.099243,66.093399 
z"/>
<path fill="#E32031" opacity="1.000000" stroke="none" 
	d="
M797.842896,866.864014 
	C846.753906,834.036499 883.397888,790.842407 910.286621,739.038452 
	C910.661499,739.192200 911.036377,739.345947 911.411255,739.499634 
	C908.831421,749.319336 906.585632,759.241333 903.617126,768.942078 
	C885.476562,828.223083 858.238220,882.858765 819.463745,931.431702 
	C811.167664,941.824280 801.660828,951.241333 793.036011,961.383423 
	C786.295654,969.309570 777.437561,969.442810 768.377258,968.819519 
	C766.564331,968.694824 764.614014,966.853210 763.188782,965.361938 
	C742.143250,943.340454 724.459045,918.764893 709.147339,892.526733 
	C701.110535,878.754944 694.239502,864.307129 686.611023,850.290344 
	C684.294922,846.034729 683.937073,842.104675 685.326111,837.458679 
	C689.229187,824.404053 692.744080,811.233154 696.378540,798.098694 
	C696.765198,796.701233 696.929810,795.242371 697.230774,793.633911 
	C675.832031,799.663574 658.948730,811.057800 648.278442,831.263855 
	C631.064514,790.419189 657.476501,660.312683 689.697998,627.494385 
	C673.371887,670.433899 667.308044,713.477356 674.422668,759.457336 
	C692.663452,702.300720 725.152954,657.382874 773.562622,624.425171 
	C773.979858,624.702820 774.397095,624.980530 774.814331,625.258179 
	C774.289490,626.156067 773.819946,627.092041 773.231750,627.946289 
	C752.430786,658.159485 741.531921,691.781128 738.839600,728.191528 
	C734.887451,781.638611 746.785889,831.955200 769.062317,880.196594 
	C769.407715,880.944397 769.877625,881.634644 770.753479,883.159973 
	C779.747009,877.750977 788.641174,872.401794 797.842896,866.864014 
z"/>
<path fill="#E32131" opacity="1.000000" stroke="none" 
	d="
M402.128815,333.864410 
	C416.592773,347.615540 430.588745,361.904785 445.633728,374.987793 
	C466.594177,393.214905 490.287842,407.457764 515.572510,418.940918 
	C519.163208,420.571716 521.044128,422.805420 522.070740,426.408447 
	C523.280334,430.653687 524.858276,434.793945 526.735779,440.335358 
	C529.333679,435.219055 531.315857,431.315430 533.618835,426.779999 
	C569.072998,441.903625 606.551880,449.053833 644.704834,455.234680 
	C643.979126,456.841797 643.452209,458.211914 642.765930,459.496857 
	C635.793701,472.551910 628.714294,485.550598 621.858459,498.666321 
	C620.020996,502.181641 617.647278,504.109955 613.675598,505.049194 
	C603.032654,507.566132 592.513000,510.604340 580.465271,513.831726 
	C608.270569,526.564453 636.655884,533.944214 663.823059,544.414124 
	C659.021301,558.647705 654.226440,572.435181 649.741394,586.322632 
	C647.239929,594.068176 644.992981,601.919434 643.146484,609.843079 
	C642.240723,613.729553 640.261353,615.120972 636.936890,613.810974 
	C627.430481,610.065063 618.059875,605.974548 607.725769,601.637634 
	C610.800171,597.458862 612.906189,594.596436 615.514404,591.051331 
	C611.218689,590.267822 607.491760,589.776123 603.873413,588.856873 
	C601.734863,588.313721 598.837830,587.666199 597.869080,586.089966 
	C588.861023,571.433350 574.816833,564.132324 559.055115,560.049744 
	C540.074890,555.133484 520.861694,551.078674 501.671875,547.016785 
	C456.897064,537.539368 412.313385,527.411011 370.116089,509.078491 
	C359.346649,504.399719 348.896820,498.985229 338.643250,492.872131 
	C340.279480,493.211700 341.971619,493.385376 343.543701,493.915253 
	C377.860352,505.480957 412.835815,514.266968 448.972229,517.497070 
	C482.567200,520.500061 515.883789,519.167786 548.122131,507.834534 
	C553.753784,505.854736 559.134949,503.160004 564.618164,500.764313 
	C565.040344,500.579834 565.354004,500.146851 566.062195,499.529449 
	C493.100922,462.698029 436.184418,410.041443 401.642975,334.688416 
	C401.871490,334.090363 402.000153,333.977386 402.128815,333.864410 
z"/>
<path fill="#E32031" opacity="1.000000" stroke="none" 
	d="
M360.013672,352.413055 
	C364.214691,355.214966 368.097626,357.773407 371.836334,360.527588 
	C383.361450,369.017609 394.923828,377.462524 406.262146,386.196991 
	C409.351898,388.577179 412.316254,391.551331 414.294189,394.874268 
	C428.151825,418.154663 444.590118,439.452515 462.895355,459.362183 
	C463.541992,460.065460 464.108276,460.842560 464.487366,461.878082 
	C432.019897,447.641846 403.251709,427.656586 375.272522,403.936401 
	C380.257416,431.393188 391.323120,454.870422 404.886475,479.079071 
	C387.695496,473.148743 369.584076,473.822662 357.234833,459.381561 
	C352.600586,453.962372 347.197144,449.168610 341.892548,444.367950 
	C339.027740,441.775269 338.340179,439.021027 339.267212,435.451019 
	C340.344666,431.301697 341.203247,427.095551 342.198883,422.729767 
	C336.641907,422.729767 331.512207,423.091431 326.470001,422.583679 
	C323.775787,422.312378 320.396149,421.260803 318.744415,419.340912 
	C283.495972,378.370300 258.106415,332.404236 249.390762,278.434021 
	C245.879242,256.689636 244.502380,234.747345 249.040710,212.870712 
	C249.200012,212.102859 249.439743,211.351685 249.645187,210.580811 
	C250.174255,210.739868 250.626389,210.757065 250.676224,210.907532 
	C265.900177,256.869720 294.240875,293.511841 331.031219,324.177643 
	C334.569244,327.126678 339.809204,329.858459 340.741547,333.573761 
	C341.599487,336.992737 337.724701,341.606934 335.913544,345.685150 
	C334.924194,347.912842 333.890839,350.120941 332.913361,352.259094 
	C342.125916,352.259094 350.877747,352.259094 360.013672,352.413055 
z"/>
<path fill="#E32132" opacity="1.000000" stroke="none" 
	d="
M398.647888,582.338379 
	C388.612000,578.403503 378.940552,574.618103 369.269073,570.832703 
	C391.940521,606.480164 425.745789,627.465149 463.647766,643.102905 
	C463.555145,643.519409 463.462494,643.935913 463.369873,644.352417 
	C457.139740,643.543274 450.885132,642.888062 444.683411,641.900513 
	C397.676453,634.414978 353.364258,619.154663 313.085175,593.687195 
	C276.826721,570.761841 248.300156,540.640625 232.500610,499.876984 
	C224.964493,480.433441 222.796265,460.232086 224.135330,439.553375 
	C224.163147,439.124023 224.432831,438.710327 224.808578,437.701630 
	C225.943405,438.889587 226.897247,439.687927 227.609848,440.662689 
	C267.260956,494.899292 320.129364,531.866821 381.178528,558.092773 
	C424.056152,576.512451 468.820953,588.181519 514.902954,595.048767 
	C517.533020,595.440674 520.149902,595.920288 522.728333,596.756653 
	C480.272186,602.861755 439.216431,596.473938 398.647888,582.338379 
z"/>
<path fill="#E32031" opacity="1.000000" stroke="none" 
	d="
M1271.640869,508.657623 
	C1297.756348,488.730042 1320.365112,465.815826 1340.575317,438.498413 
	C1340.817139,441.222534 1340.992676,442.555115 1341.046143,443.892639 
	C1343.270630,499.523834 1318.911255,542.863892 1277.996704,578.027832 
	C1238.550415,611.929810 1192.225952,631.495850 1141.396118,640.996033 
	C1138.816406,641.478149 1136.217896,641.860107 1132.748047,642.434326 
	C1136.517456,635.758484 1139.423218,629.844788 1145.677490,626.093201 
	C1165.241089,614.357849 1182.469482,599.774048 1197.242554,582.378479 
	C1201.072632,584.973694 1211.067383,584.706116 1214.620728,581.547668 
	C1215.709595,580.579773 1216.025024,578.323792 1216.051025,576.647644 
	C1216.190918,567.652832 1216.311157,558.649475 1216.046143,549.660645 
	C1215.936890,545.955933 1217.448364,544.078247 1220.415649,542.170837 
	C1237.479980,531.202087 1254.396362,520.003174 1271.640869,508.657623 
z"/>
<path fill="#E32131" opacity="1.000000" stroke="none" 
	d="
M1302.946289,324.926514 
	C1293.544434,351.698029 1279.932495,375.806000 1264.183472,398.822266 
	C1262.055298,401.932373 1259.746582,402.239441 1256.567261,401.718140 
	C1250.062988,400.651642 1243.532959,399.742493 1236.130981,398.636688 
	C1238.400757,407.683563 1240.605347,415.822510 1242.391968,424.052124 
	C1242.831177,426.074860 1242.686768,429.053772 1241.485962,430.469849 
	C1232.992188,440.486725 1224.153320,450.210876 1215.145752,460.341675 
	C1207.919556,429.375549 1200.834351,399.013824 1193.655518,368.251312 
	C1211.256714,368.251312 1229.324463,368.251312 1247.392334,368.251312 
	C1247.590576,367.851074 1247.788818,367.450806 1247.987061,367.050568 
	C1236.877197,357.781158 1225.767212,348.511749 1214.163574,338.830383 
	C1258.143555,303.932770 1294.618652,264.140869 1313.513306,209.296051 
	C1320.811157,249.732208 1316.045898,287.519440 1302.946289,324.926514 
z"/>
<path fill="#E32131" opacity="1.000000" stroke="none" 
	d="
M616.091431,317.190002 
	C612.737000,326.768616 606.383240,332.998535 598.762207,339.188141 
	C580.962219,353.645020 577.189636,373.402863 581.481812,395.182495 
	C581.606873,395.817047 581.776733,396.442749 581.052551,397.672272 
	C577.932129,393.567749 574.412903,389.704865 571.756531,385.319275 
	C555.338318,358.212646 547.078125,329.048004 551.064270,297.199280 
	C553.916382,274.412231 563.413025,255.247025 583.155579,242.142471 
	C587.866882,239.015167 592.595154,235.843567 596.925659,232.225494 
	C609.075684,222.074234 627.758667,226.401260 638.508484,235.029465 
	C625.945129,241.024338 614.594177,248.274643 606.677979,260.372223 
	C642.878784,266.889191 678.711548,273.339905 715.777954,280.012726 
	C713.305847,280.953522 711.913269,281.544464 710.482239,282.019073 
	C682.254089,291.381073 653.982300,300.614990 625.839111,310.225464 
	C622.307800,311.431335 619.449768,314.608704 616.091431,317.190002 
z"/>
<path fill="#E32132" opacity="1.000000" stroke="none" 
	d="
M540.959167,675.998657 
	C520.750977,689.129639 498.482513,694.644653 475.213043,696.925232 
	C459.570435,698.458374 443.965271,698.578369 428.498749,695.111145 
	C427.162537,694.811646 425.700897,695.071472 423.230438,695.071472 
	C447.372253,713.827209 474.851990,723.060303 503.701782,732.303467 
	C486.790192,737.393677 470.775879,739.060181 454.514313,739.161255 
	C434.565155,739.285278 415.101807,735.847717 395.724487,731.574036 
	C392.741882,730.916260 390.868469,729.789551 390.740173,726.501404 
	C390.549896,721.624084 387.790253,719.076843 383.103760,718.228943 
	C381.317413,717.905762 379.437012,717.477844 377.888428,716.592346 
	C374.452209,714.627258 372.216370,715.975342 369.550476,718.296997 
	C368.192261,719.479797 365.088226,720.131226 363.537201,719.400757 
	C334.694183,705.817627 311.444122,686.241760 297.693604,656.759583 
	C296.361053,653.902527 295.222748,650.948853 294.116943,647.994141 
	C293.369934,645.998047 292.838379,643.921326 291.987396,641.155701 
	C293.672455,641.792358 294.831818,642.147156 295.920380,642.653992 
	C317.208466,652.563538 338.983032,661.168457 361.856812,666.682434 
	C365.165680,667.480103 365.817352,668.695190 365.095490,671.780518 
	C363.855957,677.078674 362.969055,682.459290 361.680206,689.116943 
	C365.762909,686.638123 368.834106,684.799438 371.877991,682.916687 
	C374.140900,681.516907 376.512024,680.240906 378.585175,678.595093 
	C385.471802,673.128113 392.623474,673.431458 401.031036,675.178833 
	C415.649597,678.216919 430.592468,680.013550 445.487762,681.333435 
	C474.484985,683.902832 503.383362,683.202454 531.808044,675.937866 
	C536.291504,674.792053 540.698547,673.347595 545.585266,672.680969 
	C544.148560,673.731018 542.711914,674.781067 540.959167,675.998657 
z"/>
<path fill="#E32132" opacity="1.000000" stroke="none" 
	d="
M1079.047363,735.008545 
	C1076.524292,734.507385 1074.412354,734.054932 1070.963013,733.315796 
	C1098.182495,722.217529 1125.245972,713.145142 1147.672119,694.635620 
	C1138.839233,695.623779 1130.027954,696.998413 1121.167603,697.491394 
	C1112.284058,697.985535 1103.351685,697.599976 1093.328857,697.599976 
	C1097.584839,692.183350 1100.842407,687.580078 1104.634888,683.470459 
	C1105.882202,682.118835 1108.474854,681.662964 1110.520386,681.449036 
	C1125.565796,679.875000 1140.649048,678.640564 1155.671143,676.879822 
	C1159.319336,676.452209 1161.134766,677.482605 1162.786499,680.455322 
	C1165.359375,685.086060 1168.265259,689.531921 1171.459595,694.759033 
	C1175.363159,686.993713 1178.946411,679.865845 1182.885498,672.029968 
	C1191.108887,681.831726 1198.816772,691.019104 1206.524658,700.206482 
	C1206.937012,700.065308 1207.349487,699.924133 1207.761841,699.783020 
	C1208.514404,690.748413 1209.560059,681.724792 1209.899902,672.674683 
	C1210.078247,667.925659 1211.788818,666.184631 1216.371704,664.624084 
	C1235.689087,658.046021 1254.765625,650.759705 1273.922363,643.711304 
	C1275.404053,643.166138 1276.825317,642.456970 1278.949463,641.529297 
	C1275.072754,658.170715 1267.439209,671.993835 1256.904419,684.197021 
	C1243.997925,699.147644 1228.278564,710.446899 1210.426758,718.871277 
	C1207.420654,720.289856 1205.150513,720.390503 1203.062134,717.593689 
	C1201.073975,714.931152 1198.625732,714.510864 1195.601074,715.980347 
	C1193.371704,717.063477 1190.995972,717.945129 1188.593140,718.549255 
	C1184.117065,719.674622 1181.451294,721.907288 1180.778320,726.894775 
	C1180.540283,728.659546 1177.864136,730.968811 1175.891724,731.494873 
	C1147.231934,739.138000 1118.164185,740.789978 1088.782104,736.725647 
	C1085.657227,736.293335 1082.565674,735.619141 1079.047363,735.008545 
z"/>
<path fill="#E32233" opacity="1.000000" stroke="none" 
	d="
M582.609009,733.525330 
	C573.565918,749.141357 560.559387,760.853210 544.598450,768.573059 
	C530.607300,775.340027 515.693542,780.199646 501.183167,785.891235 
	C500.446899,786.180115 499.671753,786.369812 499.008392,787.158936 
	C530.959351,791.262268 561.755127,786.981018 591.504944,774.273376 
	C581.848755,785.185181 569.995422,793.029907 557.258667,799.568420 
	C539.362610,808.755371 520.260803,814.387939 500.463654,817.586548 
	C498.318970,817.933105 495.296082,816.706360 493.599609,815.184753 
	C489.706879,811.693359 486.381866,807.568970 481.720551,804.169800 
	C482.087708,810.144287 482.454895,816.118774 482.871490,822.897949 
	C448.555573,819.886719 418.761383,807.325012 390.512482,787.190857 
	C401.524353,786.053223 411.466980,785.106995 421.389923,783.986389 
	C456.790649,779.988708 492.042084,775.334961 525.830688,763.121338 
	C545.859192,755.881531 564.544434,746.333191 581.769043,733.173218 
	C582.259155,733.251587 582.609009,733.525330 582.609009,733.525330 
z"/>
<path fill="#E32232" opacity="1.000000" stroke="none" 
	d="
M939.058594,939.092407 
	C939.013550,938.647217 938.757019,938.046814 938.953491,937.778931 
	C951.240417,921.036743 949.729370,903.169067 943.009827,885.044922 
	C940.300598,877.737488 936.891907,870.684631 933.684998,863.568420 
	C931.886597,859.577820 932.181396,856.322327 934.921753,852.545471 
	C939.674744,845.994629 943.648010,838.878113 948.370667,831.323181 
	C956.355957,847.624268 960.649353,863.918091 962.748901,880.877380 
	C963.308960,880.940369 963.868958,881.003357 964.429016,881.066284 
	C966.627991,872.543457 969.350464,864.115234 970.910706,855.477051 
	C973.669556,840.203003 972.677185,825.006226 968.444519,809.997986 
	C967.858337,807.919312 968.485901,805.143555 969.465027,803.136047 
	C969.918701,802.205872 973.054749,801.496216 974.149902,802.124451 
	C1007.396484,821.197205 1037.502930,843.939697 1059.380737,876.124207 
	C1059.927856,876.929199 1060.393555,877.789551 1061.499512,879.622070 
	C1055.346680,878.949097 1050.018066,878.488037 1044.725952,877.762268 
	C1033.515869,876.224792 1022.336182,874.463684 1011.119446,872.980225 
	C1007.551819,872.508362 1005.564209,870.849792 1004.303406,867.473755 
	C999.644287,854.997620 993.997803,843.013245 985.397217,831.814697 
	C991.988647,877.337219 980.712585,914.575378 939.359253,939.006470 
	C939.022522,939.030823 939.058594,939.092407 939.058594,939.092407 
z"/>
<path fill="#E32232" opacity="1.000000" stroke="none" 
	d="
M1148.798584,808.784363 
	C1132.216797,816.097046 1115.397583,821.003723 1096.843506,822.365417 
	C1097.177368,816.568481 1097.496948,811.019592 1097.902466,803.979248 
	C1094.045532,807.622437 1090.675537,810.215271 1088.053589,813.420044 
	C1084.059326,818.302002 1079.892090,819.592407 1073.384155,818.294922 
	C1050.917725,813.815308 1029.058594,807.787231 1009.145142,796.189209 
	C1001.991455,792.022766 995.382202,786.899536 988.680664,781.999329 
	C987.481018,781.122070 987.046753,779.198059 986.259033,777.757324 
	C987.930603,777.887573 989.753235,777.626831 991.251465,778.205688 
	C1021.763550,789.993408 1053.404785,791.548767 1085.739868,788.172363 
	C1072.504028,784.164368 1059.268311,780.156311 1044.861572,775.793640 
	C1047.927734,771.367249 1050.340088,767.499023 1053.230713,764.029236 
	C1053.827271,763.313171 1056.253418,763.865967 1057.755737,764.198120 
	C1080.784546,769.290161 1103.681763,775.081909 1126.857666,779.370667 
	C1144.159790,782.572449 1161.817261,783.854736 1179.317871,785.980835 
	C1181.090332,786.196167 1182.871948,786.334961 1186.143921,786.655945 
	C1174.156860,796.365601 1161.754028,802.666077 1148.798584,808.784363 
z"/>
<path fill="#E32233" opacity="1.000000" stroke="none" 
	d="
M569.893921,831.889038 
	C565.003235,839.725525 560.073059,847.537781 555.255920,855.419189 
	C554.313965,856.960327 553.474182,858.708923 553.159363,860.464417 
	C551.282837,870.925842 544.668518,875.604614 534.541321,876.932129 
	C529.178223,877.635132 523.971313,879.529907 518.004761,881.063782 
	C516.301208,873.528381 514.541016,866.312439 513.139771,859.027466 
	C512.882935,857.692017 513.673096,855.673767 514.674133,854.648438 
	C537.056030,831.724182 561.837219,812.110168 591.620300,799.503052 
	C592.468445,799.143982 593.423889,799.038147 595.050293,798.635925 
	C581.146484,827.977356 580.937927,857.410522 590.804565,887.364197 
	C592.222351,879.718262 593.278137,871.982056 595.157471,864.451294 
	C597.123901,856.570923 599.485413,848.735168 602.407410,841.162720 
	C605.214722,833.887451 608.960938,826.974365 612.294617,819.902100 
	C612.696533,820.059631 613.098511,820.217163 613.500427,820.374634 
	C614.169128,832.248291 615.484558,844.135559 615.233887,855.989807 
	C615.108459,861.920471 612.128967,867.791809 610.433472,873.688049 
	C606.422485,887.636780 602.426453,901.691162 605.026672,916.348694 
	C606.167053,922.776672 609.010864,928.902527 610.988770,935.631775 
	C610.896362,936.098022 610.679504,936.299744 610.679504,936.299744 
	C591.190674,926.151123 579.181091,909.722290 571.869995,889.536926 
	C565.152466,870.990173 564.537170,852.176514 570.651550,832.619751 
	C570.810120,831.702332 570.743958,831.416443 570.677734,831.130615 
	C570.416443,831.383423 570.155212,831.636230 569.893921,831.889038 
z"/>
<path fill="#E32233" opacity="1.000000" stroke="none" 
	d="
M860.039673,977.866333 
	C860.517517,966.006470 861.421631,954.564331 861.180725,943.146362 
	C861.063843,937.608215 861.362366,932.789185 864.629761,928.147034 
	C868.526794,922.610046 871.990967,916.768372 875.861511,910.716431 
	C882.759644,915.528198 886.298401,922.177246 889.212036,929.291077 
	C889.718872,929.411255 890.225708,929.531433 890.732544,929.651611 
	C892.822876,922.214172 895.952087,914.887878 896.762878,907.313477 
	C898.014099,895.625183 897.886963,883.767334 897.908142,871.980652 
	C897.916138,867.537231 899.482361,864.461060 903.957886,860.897339 
	C907.113647,872.300476 910.426025,882.839783 912.923340,893.568787 
	C919.716553,922.754517 908.269470,947.447632 892.722961,970.762939 
	C882.006470,986.834595 868.226990,1000.113403 852.374817,1011.190857 
	C851.743774,1011.631836 851.024963,1011.947266 850.139343,1012.435791 
	C853.487061,1000.838684 856.741028,989.566284 860.039673,977.866333 
z"/>
<path fill="#E32132" opacity="1.000000" stroke="none" 
	d="
M678.715576,999.290039 
	C654.231384,976.680603 640.184143,948.726990 633.483337,916.797302 
	C633.157776,915.245850 633.544556,912.799500 634.586487,911.824890 
	C642.569702,904.357605 650.797791,897.152100 659.912659,889.004639 
	C659.387146,904.504333 658.786560,918.721619 664.747864,931.937134 
	C669.125793,925.572632 673.350647,919.430725 678.363708,912.142883 
	C683.825012,921.762512 688.490173,929.764954 692.869995,937.920532 
	C693.546692,939.180542 693.307251,941.269531 692.828369,942.762451 
	C685.552856,965.444092 689.736450,987.135925 698.311646,1008.473816 
	C698.976746,1010.128662 699.684326,1011.766418 700.372192,1013.412109 
	C699.952820,1013.866882 699.533447,1014.321594 699.114136,1014.776306 
	C692.400818,1009.695312 685.687561,1004.614319 678.715576,999.290039 
z"/>
<path fill="#030303" opacity="1.000000" stroke="none" 
	d="
M543.161194,1144.000000 
	C543.161194,1164.472534 543.161194,1184.445068 543.161194,1204.711182 
	C540.074280,1204.711182 537.176941,1204.711182 533.782471,1204.711182 
	C533.782471,1180.353027 533.782471,1156.023315 533.782471,1131.693604 
	C533.494446,1131.610718 533.206421,1131.527832 532.918396,1131.444946 
	C532.074768,1132.761963 531.182861,1134.050781 530.394836,1135.400269 
	C519.833740,1153.486938 509.295135,1171.586670 498.731812,1189.671997 
	C495.826080,1194.646973 493.022125,1194.694458 490.135956,1189.791504 
	C478.753387,1170.454712 467.400940,1151.100098 455.324280,1130.538086 
	C455.324280,1156.058228 455.324280,1180.297119 455.324280,1204.768188 
	C451.839264,1204.768188 448.925110,1204.768188 445.806885,1204.768188 
	C445.806885,1173.565918 445.806885,1142.459717 445.806885,1111.391479 
	C450.966980,1110.059570 454.212799,1111.138672 457.096771,1116.272217 
	C469.141571,1137.712280 481.787109,1158.815063 494.494202,1180.522705 
	C495.551422,1178.820923 496.418396,1177.502319 497.209961,1176.139771 
	C508.649078,1156.448975 520.276123,1136.862549 531.370300,1116.979004 
	C534.140564,1112.014160 537.081665,1109.681030 543.161194,1111.481689 
	C543.161194,1121.959839 543.161194,1132.729858 543.161194,1144.000000 
z"/>
<path fill="#080808" opacity="1.000000" stroke="none" 
	d="
M23.221706,1127.003418 
	C23.221708,1121.536133 23.221708,1116.567749 23.221708,1111.263428 
	C24.755735,1111.148560 26.023842,1110.950317 27.287647,1110.974731 
	C42.415382,1111.267212 57.672081,1110.459106 72.639992,1112.170166 
	C96.315552,1114.876709 111.998367,1134.075317 111.992523,1158.010376 
	C111.986679,1181.937012 96.235878,1201.369507 72.593025,1203.760498 
	C56.487617,1205.389282 40.084255,1204.071899 23.221704,1204.071899 
	C23.221704,1178.986206 23.221704,1153.244385 23.221706,1127.003418 
M91.016212,1185.531494 
	C102.194847,1174.182861 104.544228,1160.550903 100.291168,1145.815186 
	C96.092140,1131.266602 85.498795,1122.532471 70.905388,1120.755981 
	C58.654732,1119.264893 46.078331,1120.449585 33.431278,1120.449585 
	C33.431278,1145.385010 33.431278,1170.632935 33.431278,1196.175781 
	C44.133377,1196.175781 54.598358,1196.370972 65.052544,1196.118652 
	C74.690887,1195.886108 83.238014,1192.469482 91.016212,1185.531494 
z"/>
<path fill="#070707" opacity="1.000000" stroke="none" 
	d="
M673.211426,1163.606934 
	C669.798096,1122.953491 707.672485,1101.258911 741.270386,1113.480835 
	C764.091614,1121.782715 776.253174,1145.767456 770.340576,1169.723633 
	C764.482300,1193.459839 741.907654,1208.411743 716.979004,1205.650757 
	C694.515076,1203.162964 676.156616,1187.689941 673.211426,1163.606934 
M755.848022,1179.208862 
	C765.963074,1161.956665 762.922607,1140.539917 748.628784,1128.357666 
	C734.142212,1116.011108 711.109924,1115.712524 696.637207,1127.975464 
	C683.732605,1138.909668 680.094482,1153.187256 684.372498,1169.001709 
	C688.511963,1184.303955 699.214539,1193.569702 714.939514,1196.173218 
	C731.601562,1198.932007 745.457275,1193.991943 755.848022,1179.208862 
z"/>
<path fill="#E32233" opacity="1.000000" stroke="none" 
	d="
M880.238403,732.334473 
	C880.603149,730.648376 880.680420,728.832092 881.375854,727.295593 
	C892.066772,703.673828 899.994568,679.272888 902.886414,653.370117 
	C903.144348,651.059448 904.304932,648.537354 905.794006,646.729309 
	C912.983521,637.999939 920.425415,629.478333 927.797546,620.899902 
	C928.084717,620.565735 928.572754,620.404297 929.562317,619.797546 
	C933.802673,637.314026 939.216003,654.272461 938.175354,672.289490 
	C938.017334,675.026672 936.617493,678.119812 934.846619,680.269287 
	C918.895569,699.630676 900.991394,716.983521 880.460938,732.053223 
	C880.208557,732.284729 880.238342,732.334473 880.238403,732.334473 
z"/>
<path fill="#090909" opacity="1.000000" stroke="none" 
	d="
M1292.219360,1192.979004 
	C1292.219360,1165.526978 1292.219360,1138.570801 1292.219360,1111.286377 
	C1313.735229,1111.286377 1334.965454,1111.286377 1356.537842,1111.286377 
	C1356.537842,1113.720703 1356.537842,1116.292847 1356.537842,1119.526367 
	C1338.630493,1119.526367 1320.588745,1119.526367 1302.375610,1119.526367 
	C1302.375610,1130.963257 1302.375610,1141.747559 1302.375610,1153.001953 
	C1318.480713,1153.001953 1334.548584,1153.001953 1350.776489,1153.001953 
	C1350.776489,1155.918091 1350.776489,1158.366943 1350.776489,1161.450317 
	C1334.685181,1161.450317 1318.638428,1161.450317 1302.399414,1161.450317 
	C1302.399414,1173.328247 1302.399414,1184.572876 1302.399414,1196.292480 
	C1321.166138,1196.292480 1339.755005,1196.292480 1358.613770,1196.292480 
	C1358.613770,1199.326050 1358.613770,1201.894287 1358.613770,1204.744995 
	C1336.672974,1204.744995 1314.758057,1204.744995 1292.219360,1204.744995 
	C1292.219360,1201.011108 1292.219360,1197.242798 1292.219360,1192.979004 
z"/>
<path fill="#060606" opacity="1.000000" stroke="none" 
	d="
M267.029602,1116.899658 
	C268.181427,1110.857056 272.229553,1110.260864 276.820953,1111.043091 
	C278.167786,1111.272583 280.011017,1112.150391 280.515411,1113.243896 
	C294.415100,1143.376343 308.172089,1173.574707 321.931854,1203.771606 
	C322.048309,1204.027100 321.879181,1204.412720 321.828369,1204.874268 
	C318.702484,1204.874268 315.565399,1204.874268 312.069214,1204.874268 
	C308.379150,1196.726685 304.623718,1188.434692 300.840302,1180.080933 
	C283.285248,1180.080933 265.840820,1180.080933 248.296310,1180.080933 
	C245.417709,1186.528320 242.256363,1192.767822 239.849060,1199.285767 
	C238.139984,1203.913208 235.622238,1206.006714 230.710876,1205.042358 
	C229.629822,1204.830078 228.471527,1205.011353 226.749542,1205.011353 
	C240.285446,1175.431274 253.594467,1146.347168 267.029602,1116.899658 
M264.518951,1171.881104 
	C275.219513,1171.881104 285.920044,1171.881104 297.210175,1171.881104 
	C289.552307,1154.772217 282.215607,1138.380859 274.566437,1121.291260 
	C266.878998,1138.562256 259.570953,1154.980957 252.048569,1171.881104 
	C256.540710,1171.881104 260.033508,1171.881104 264.518951,1171.881104 
z"/>
<path fill="#070707" opacity="1.000000" stroke="none" 
	d="
M1493.984375,1129.458496 
	C1491.043823,1139.161377 1493.670654,1145.574219 1502.817627,1149.040527 
	C1510.402954,1151.914795 1518.418945,1153.638306 1526.198730,1156.020142 
	C1530.163696,1157.234009 1534.191895,1158.435303 1537.911377,1160.224609 
	C1556.567505,1169.199097 1552.353149,1192.077271 1540.260742,1199.567261 
	C1531.824951,1204.792114 1522.557007,1206.263428 1512.953613,1205.733032 
	C1501.142090,1205.080811 1489.974487,1202.297119 1480.541626,1193.630127 
	C1481.844604,1191.098877 1483.096680,1188.666504 1484.384521,1186.164551 
	C1497.097778,1196.379517 1511.323853,1199.332031 1526.816040,1195.927002 
	C1530.077759,1195.210205 1533.439331,1193.430420 1535.980469,1191.241333 
	C1543.090088,1185.117188 1542.486694,1174.275879 1534.411499,1169.587891 
	C1529.197876,1166.561035 1523.071289,1165.044434 1517.265869,1163.115845 
	C1510.808472,1160.970825 1504.088013,1159.540527 1497.777344,1157.050293 
	C1489.166260,1153.652344 1483.323486,1147.665527 1482.931763,1137.710205 
	C1482.515869,1127.138672 1486.841797,1119.042358 1496.428833,1114.679932 
	C1513.630737,1106.852417 1530.286865,1109.226440 1546.679321,1118.302856 
	C1545.459717,1121.215088 1544.458862,1123.605103 1543.302124,1126.367188 
	C1533.285889,1120.064575 1522.734009,1117.818726 1511.476318,1119.001465 
	C1504.220093,1119.763916 1497.882202,1122.241821 1493.984375,1129.458496 
z"/>
<path fill="#070707" opacity="1.000000" stroke="none" 
	d="
M927.260437,1203.808472 
	C904.757629,1196.062378 892.076660,1177.949585 893.216003,1155.635010 
	C894.341309,1133.594727 908.365295,1116.485596 930.029602,1111.635986 
	C947.397400,1107.748291 963.268005,1110.825928 976.783081,1123.558105 
	C976.145020,1124.382080 975.764709,1124.904175 975.352661,1125.399780 
	C973.969910,1127.062622 972.575623,1128.715820 971.213684,1130.339233 
	C951.179932,1112.321533 925.048157,1118.291016 913.090027,1131.565552 
	C899.428162,1146.731689 899.666138,1170.390503 913.740173,1185.103638 
	C926.632324,1198.581299 952.724121,1202.792358 970.529541,1186.045044 
	C972.460327,1188.031616 974.389221,1190.016357 976.656250,1192.348877 
	C962.506104,1205.729736 945.891113,1208.135620 927.260437,1203.808472 
z"/>
<path fill="#E32132" opacity="1.000000" stroke="none" 
	d="
M775.139771,192.096466 
	C783.254883,191.456619 790.932617,190.869125 798.809509,190.266403 
	C796.601318,208.033936 781.626099,224.616074 764.844543,228.853226 
	C749.111267,232.825699 730.046753,226.995407 721.502441,215.192474 
	C737.267822,202.883453 755.158630,195.663483 775.139771,192.096466 
z"/>
<path fill="#040404" opacity="1.000000" stroke="none" 
	d="
M1115.499023,1148.000366 
	C1115.499023,1164.282104 1115.499023,1180.063721 1115.499023,1196.334839 
	C1133.217896,1196.334839 1150.464233,1196.334839 1167.907593,1196.334839 
	C1167.907593,1199.414062 1167.907593,1201.999878 1167.907593,1204.797241 
	C1147.177002,1204.797241 1126.590088,1204.797241 1105.803711,1204.797241 
	C1105.803711,1173.528687 1105.803711,1142.419312 1105.803711,1111.138672 
	C1108.962646,1111.138672 1111.926758,1111.138672 1115.499023,1111.138672 
	C1115.499023,1123.296509 1115.499023,1135.398438 1115.499023,1148.000366 
z"/>
<path fill="#E42536" opacity="1.000000" stroke="none" 
	d="
M621.328979,326.347046 
	C623.735107,320.697296 627.397888,316.615112 632.865601,314.767242 
	C652.972107,307.972046 673.150574,301.390015 693.772278,295.830017 
	C685.075012,300.543488 676.415100,305.327637 667.669250,309.949341 
	C659.886047,314.062317 651.893311,317.794006 644.244995,322.137390 
	C642.106140,323.351990 639.842957,325.932220 639.379944,328.236267 
	C637.467224,337.754456 632.285095,344.078308 623.228333,347.472504 
	C614.412354,350.776520 605.670532,354.278229 596.896118,357.693146 
	C596.500000,357.144012 596.103882,356.594910 595.707764,356.045807 
	C600.367615,351.179382 605.217834,346.478302 609.631653,341.398071 
	C613.713806,336.699646 617.328735,331.595245 621.328979,326.347046 
z"/>
<path fill="#E42536" opacity="1.000000" stroke="none" 
	d="
M1169.633911,587.615601 
	C1166.995972,588.546204 1164.720215,589.325256 1161.255127,590.511414 
	C1164.994873,582.546509 1167.790039,575.307861 1171.672241,568.708740 
	C1175.124878,562.839844 1182.766235,562.796997 1187.046021,567.876709 
	C1189.389282,570.657959 1191.678955,573.484375 1194.727295,577.181274 
	C1186.097534,580.769409 1178.046753,584.116760 1169.633911,587.615601 
z"/>
<path fill="#E32132" opacity="1.000000" stroke="none" 
	d="
M839.378784,558.340332 
	C839.143311,558.821167 838.718933,559.126160 838.294617,559.431152 
	C838.307556,558.992981 838.320496,558.554810 838.567749,557.970337 
	C838.931335,557.937500 839.060608,558.051025 839.378784,558.340332 
z"/>
<path fill="#E32132" opacity="1.000000" stroke="none" 
	d="
M852.633667,333.386292 
	C852.174255,333.122223 851.906189,332.663300 851.638062,332.204376 
	C852.065186,332.239044 852.492310,332.273712 853.055908,332.547852 
	C853.069946,332.922028 852.947510,333.056732 852.633667,333.386292 
z"/>
<path fill="#E32232" opacity="1.000000" stroke="none" 
	d="
M939.001526,939.001892 
	C938.784912,939.178101 938.589294,939.383179 938.393677,939.588257 
	C938.485107,939.319946 938.576599,939.051575 938.863342,938.937805 
	C939.058594,939.092407 939.022522,939.030823 939.001526,939.001892 
z"/>
<path fill="#E32031" opacity="1.000000" stroke="none" 
	d="
M1090.053467,53.038879 
	C1090.074463,52.826965 1090.046265,52.592472 1090.075317,52.365307 
	C1090.080566,52.324627 1090.322510,52.314293 1090.455078,52.289955 
	C1090.478760,52.493557 1090.502441,52.697155 1090.247437,52.937263 
	C1089.968750,52.973778 1090.024048,53.018799 1090.053467,53.038879 
z"/>
<path fill="#E32031" opacity="1.000000" stroke="none" 
	d="
M1010.176758,66.148186 
	C1010.195862,65.928558 1010.189880,65.689636 1010.183838,65.450714 
	C1010.254639,65.575783 1010.325378,65.700859 1010.247681,65.959671 
	C1010.099243,66.093407 1010.151672,66.128899 1010.176758,66.148186 
z"/>
<path fill="#E32031" opacity="1.000000" stroke="none" 
	d="
M1134.234741,193.868896 
	C1134.234863,194.167801 1134.264404,194.454697 1134.293945,194.741592 
	C1134.134644,194.516449 1133.975220,194.291306 1134.070312,193.951752 
	C1134.324707,193.837326 1134.264160,193.856888 1134.234741,193.868896 
z"/>
<path fill="#E32031" opacity="1.000000" stroke="none" 
	d="
M879.949707,201.958939 
	C879.870544,202.177368 879.817566,202.414719 879.764526,202.652039 
	C879.701904,202.479385 879.639221,202.306717 879.802002,202.075256 
	C880.027527,202.016479 879.975891,201.977844 879.949707,201.958939 
z"/>
<path fill="#E32132" opacity="1.000000" stroke="none" 
	d="
M850.251892,660.358276 
	C849.979431,660.364685 849.721619,660.379883 849.463806,660.395142 
	C849.634033,660.296143 849.804260,660.197205 850.131592,660.255737 
	C850.288757,660.413269 850.266541,660.367065 850.251892,660.358276 
z"/>
<path fill="#E32233" opacity="1.000000" stroke="none" 
	d="
M611.003967,935.996216 
	C611.292969,936.142639 611.474304,936.390747 611.655701,936.638916 
	C611.422974,936.664124 611.190308,936.689392 610.818542,936.507202 
	C610.679504,936.299744 610.896362,936.098022 611.003967,935.996216 
z"/>
<path fill="#E32131" opacity="1.000000" stroke="none" 
	d="
M401.530701,334.348114 
	C401.270782,334.061615 401.223022,333.630402 401.175232,333.199158 
	C401.430298,333.229919 401.685364,333.260651 402.034607,333.577911 
	C402.000153,333.977386 401.871490,334.090363 401.530701,334.348114 
z"/>
<path fill="#E32132" opacity="1.000000" stroke="none" 
	d="
M926.865784,355.139221 
	C926.598145,354.937592 926.408875,354.653656 926.219543,354.369690 
	C926.463989,354.369293 926.708374,354.368866 927.027222,354.630737 
	C927.101685,354.893066 926.944092,355.056854 926.865784,355.139221 
z"/>
<path fill="#E32233" opacity="1.000000" stroke="none" 
	d="
M880.192810,732.260376 
	C879.930542,732.301086 879.684021,732.366211 879.437561,732.431396 
	C879.599426,732.293762 879.761292,732.156128 880.080688,732.176453 
	C880.238342,732.334473 880.208557,732.284729 880.192810,732.260376 
z"/>
<path fill="#E32233" opacity="1.000000" stroke="none" 
	d="
M582.101562,733.095093 
	C582.217529,732.739258 582.491150,732.539978 582.764771,732.340698 
	C582.811951,732.588562 582.859131,732.836365 582.757690,733.304810 
	C582.609009,733.525330 582.259155,733.251587 582.101562,733.095093 
z"/>
<path fill="#FFFFFF" opacity="1.000000" stroke="none" 
	d="
M695.106323,109.092506 
	C694.982056,109.639206 694.649902,110.001930 694.317749,110.364647 
	C694.274658,109.917076 694.231689,109.469513 694.330933,108.786911 
	C694.614807,108.670769 694.756592,108.789650 695.106323,109.092506 
z"/>
<path fill="#FFFFFF" opacity="1.000000" stroke="none" 
	d="
M957.140808,151.160339 
	C956.653809,151.377563 956.075745,151.491837 955.497742,151.606110 
	C955.761414,151.363403 956.025146,151.120667 956.578186,150.864792 
	C956.867554,150.851654 957.049805,151.057388 957.140808,151.160339 
z"/>
<path fill="#FFFFFF" opacity="1.000000" stroke="none" 
	d="
M1086.794312,215.246643 
	C1086.325562,215.042450 1086.001465,214.669754 1085.677368,214.297058 
	C1086.100098,214.296616 1086.522827,214.296158 1087.089600,214.520630 
	C1087.233643,214.745544 1086.939087,215.078125 1086.794312,215.246643 
z"/>
<path fill="#FFFFFF" opacity="1.000000" stroke="none" 
	d="
M1052.995239,156.001770 
	C1052.585449,155.884384 1052.334961,155.606720 1052.084595,155.329041 
	C1052.379883,155.270065 1052.675171,155.211075 1053.216553,155.331192 
	C1053.462646,155.510300 1053.154663,155.841492 1052.995239,156.001770 
z"/>
<path fill="#FFFFFF" opacity="1.000000" stroke="none" 
	d="
M1113.681396,289.306335 
	C1113.396729,289.121368 1113.283813,288.773987 1113.170776,288.426636 
	C1113.420898,288.400787 1113.671143,288.374939 1114.052734,288.578064 
	C1114.184204,288.807037 1113.852905,289.143921 1113.681396,289.306335 
z"/>
<path fill="#FFFFFF" opacity="1.000000" stroke="none" 
	d="
M1141.014893,372.023773 
	C1141.373291,372.161041 1141.539429,372.522675 1141.705444,372.884338 
	C1141.460571,372.945160 1141.215576,373.005981 1140.733398,372.903748 
	C1140.604980,372.576508 1140.713867,372.412323 1141.014893,372.023773 
z"/>
<path fill="#FFFFFF" opacity="1.000000" stroke="none" 
	d="
M570.058105,832.047791 
	C570.155212,831.636230 570.416443,831.383423 570.677734,831.130615 
	C570.743958,831.416443 570.810120,831.702332 570.726074,832.242065 
	C570.575806,832.496033 570.222351,832.206543 570.058105,832.047791 
z"/>
<path fill="#FDFDFD" opacity="1.000000" stroke="none" 
	d="
M90.754776,1185.774170 
	C83.238014,1192.469482 74.690887,1195.886108 65.052544,1196.118652 
	C54.598358,1196.370972 44.133377,1196.175781 33.431278,1196.175781 
	C33.431278,1170.632935 33.431278,1145.385010 33.431278,1120.449585 
	C46.078331,1120.449585 58.654732,1119.264893 70.905388,1120.755981 
	C85.498795,1122.532471 96.092140,1131.266602 100.291168,1145.815186 
	C104.544228,1160.550903 102.194847,1174.182861 90.754776,1185.774170 
z"/>
<path fill="#FDFDFD" opacity="1.000000" stroke="none" 
	d="
M755.635132,1179.508545 
	C745.457275,1193.991943 731.601562,1198.932007 714.939514,1196.173218 
	C699.214539,1193.569702 688.511963,1184.303955 684.372498,1169.001709 
	C680.094482,1153.187256 683.732605,1138.909668 696.637207,1127.975464 
	C711.109924,1115.712524 734.142212,1116.011108 748.628784,1128.357666 
	C762.922607,1140.539917 765.963074,1161.956665 755.635132,1179.508545 
z"/>
<path fill="#FAFAFA" opacity="1.000000" stroke="none" 
	d="
M264.022644,1171.881104 
	C260.033508,1171.881104 256.540710,1171.881104 252.048569,1171.881104 
	C259.570953,1154.980957 266.878998,1138.562256 274.566437,1121.291260 
	C282.215607,1138.380859 289.552307,1154.772217 297.210175,1171.881104 
	C285.920044,1171.881104 275.219513,1171.881104 264.022644,1171.881104 
z"/>
</svg>