<svg xmlns="http://www.w3.org/2000/svg" xmlns:xlink="http://www.w3.org/1999/xlink" width="500" zoomAndPan="magnify" viewBox="0 0 375 374.999991" height="500" preserveAspectRatio="xMidYMid meet" version="1.0"><defs><clipPath id="d0ae50e1c3"><path d="M 128 45.375 L 324 45.375 L 324 212 L 128 212 Z M 128 45.375 " clip-rule="nonzero"/></clipPath></defs><path fill="#ce0012" d="M 281.296875 226.492188 C 282.191406 244.628906 277.558594 262.914062 270.152344 279.234375 C 275.382812 274.972656 279.976562 269.679688 284.25 264.414062 C 295.847656 249.636719 305.453125 233.257812 312.347656 215.773438 C 313.152344 213.746094 313.007812 213.960938 312.601562 212.199219 C 308.347656 194.023438 300.417969 176.199219 288.03125 162.125 C 295.871094 180.414062 299.535156 201.152344 295.414062 220.890625 C 293.714844 207.792969 290.71875 193.890625 282.28125 183.398438 C 281.796875 183.859375 281.902344 185.199219 281.648438 185.871094 C 281.164062 188.039062 280.660156 190.199219 280.164062 192.363281 C 280.011719 192.792969 280.050781 193.339844 279.671875 193.640625 C 277.8125 178.609375 269.820312 164.457031 257.429688 155.621094 C 256.996094 155.320312 254.945312 153.597656 255.632812 154.757812 C 270.050781 176.644531 272.839844 204.722656 266.765625 229.839844 C 266.742188 227.117188 266.996094 224.386719 267.066406 221.660156 C 267.054688 221.660156 267.046875 221.660156 267.039062 221.65625 C 267.378906 196.261719 258.019531 166.527344 235.144531 153.074219 C 237.9375 156.914062 240.300781 161.097656 241.796875 165.644531 C 243.796875 171.363281 244.386719 177.371094 244.132812 183.40625 C 244.15625 183.503906 244.078125 183.621094 244.015625 183.65625 C 243.960938 183.664062 243.863281 183.621094 243.84375 183.578125 C 238.378906 167.320312 227.167969 157.964844 213.90625 148.214844 C 213.398438 147.585938 208.601562 144.339844 211.046875 146.761719 C 217.539062 153.0625 221.09375 162.546875 219.8125 171.53125 C 218.492188 166.242188 216.609375 161.203125 213.25 156.804688 C 211.714844 154.699219 209.867188 152.902344 207.742188 151.390625 C 207.515625 151.289062 207.148438 150.851562 206.953125 151.085938 C 209.15625 156.285156 209.71875 162.140625 208.4375 167.640625 C 203.054688 142.964844 174.886719 135.8125 153.734375 145.214844 C 153.496094 145.320312 151.453125 146.105469 152.113281 146.28125 C 157.214844 145.664062 162.378906 145.683594 167.480469 146.371094 C 177.988281 147.289062 190.023438 156.375 186.125 168 C 180.972656 181.488281 163.769531 198.109375 150.214844 203.035156 C 149.675781 203.28125 148.0625 203.445312 148.265625 203.847656 C 164.792969 204.433594 188.433594 194.5 196.433594 179.464844 C 196.75 183.128906 195.101562 186.835938 193.453125 190.074219 C 189.644531 197.132812 182.945312 201.695312 176.765625 206.488281 C 170.492188 211.738281 164.828125 217.824219 160.527344 224.804688 C 160.058594 225.464844 155.035156 234.929688 157.492188 232.324219 C 178.179688 214.074219 202.632812 205.753906 207.566406 174.851562 C 212.535156 190.523438 212.421875 207.820312 205.820312 222.945312 C 218.621094 210.910156 223.453125 192.8125 223.738281 175.722656 C 230.757812 195.171875 229.074219 217.253906 220.652344 236.042969 C 217.722656 243.234375 213.261719 249.785156 209.578125 256.492188 C 221.050781 248.519531 229.085938 236.109375 235.035156 223.640625 C 239.132812 212.808594 239.746094 200.953125 240.128906 189.554688 C 250.242188 211.714844 247.984375 237.113281 240.980469 259.765625 C 250.34375 248.753906 256.703125 235.078125 259.371094 220.847656 C 259.203125 230.515625 257.089844 240.117188 254.972656 249.523438 C 250.425781 269.664062 243.234375 289.09375 235.585938 308.191406 C 239.453125 303.292969 243.074219 298.074219 246.660156 292.921875 C 260.554688 272.214844 274.832031 250.785156 281.296875 226.492188 Z M 281.296875 226.492188 " fill-opacity="1" fill-rule="nonzero"/><g clip-path="url(#d0ae50e1c3)"><path fill="#ce0012" d="M 128.695312 105.191406 C 131.957031 104.441406 135.21875 103.667969 138.550781 103.320312 C 140.015625 102.882812 143.195312 106.464844 144.242188 107.578125 C 144.703125 108.144531 145.195312 108.355469 145.949219 108.226562 C 148.78125 107.734375 151.628906 107.304688 154.464844 106.859375 C 155.058594 106.765625 155.558594 106.503906 156.046875 106.164062 C 163.695312 100.710938 171.476562 95.433594 179.042969 89.867188 C 185.835938 85.398438 194.359375 84.546875 202.179688 82.941406 C 212.085938 81.492188 222.441406 81.027344 232.257812 82.652344 C 221.628906 85.253906 210.660156 90.625 205.003906 100.386719 C 210.636719 96.941406 217.09375 94.925781 223.667969 94.148438 C 227.03125 93.660156 230.429688 93.773438 233.808594 93.984375 C 234.285156 94.015625 234.824219 93.832031 235.242188 94.25 C 229.726562 96.433594 223.910156 99.015625 219.539062 102.914062 C 227.769531 101.453125 236.535156 99.9375 244.988281 100.1875 C 236.027344 103.410156 228.371094 109.867188 223.339844 118.007812 C 223.160156 118.617188 224.167969 117.84375 224.378906 117.796875 C 232.339844 113.695312 241.582031 113.105469 250.375 113.816406 C 276.796875 116.011719 298.734375 136.574219 308.355469 160.386719 C 300.800781 154.671875 292.027344 150.285156 282.796875 148.195312 C 300.910156 165.828125 315.613281 187.398438 323.402344 211.53125 C 325.585938 182.824219 314.773438 154.179688 298.011719 131.246094 C 305.628906 134.167969 312.628906 138.980469 318.589844 144.476562 C 312.214844 129.441406 300.4375 117.179688 288.558594 106.25 C 296.414062 109.25 303.910156 113.574219 310.667969 118.5625 C 302.238281 105.46875 289.382812 95.488281 276.914062 86.386719 C 287.152344 89.789062 297.015625 94.855469 306.109375 100.640625 C 299.667969 91.851562 291.140625 84.378906 282.082031 78.242188 C 280.285156 77.066406 278.441406 75.964844 276.628906 74.8125 C 276.175781 74.523438 275.824219 74.488281 275.363281 74.851562 C 266.636719 81.542969 255.699219 85.453125 244.71875 85.773438 C 249.792969 83.730469 255.339844 82.042969 259.707031 78.703125 C 252.734375 79.660156 245.585938 79.96875 238.605469 79.335938 C 236.175781 79.132812 233.746094 78.941406 231.3125 78.753906 C 231.195312 78.761719 231.140625 78.652344 231.078125 78.578125 C 246.199219 76.257812 262.410156 75.507812 276.109375 68.082031 C 271.605469 68.441406 266.894531 69.222656 262.398438 68.695312 C 273.019531 65.039062 283.464844 60.078125 291.5 52.074219 C 278.789062 56.742188 265.753906 62.683594 251.929688 62.605469 C 256.308594 61.238281 260.886719 59.414062 264.519531 56.671875 C 256.734375 58.382812 248.445312 59.257812 240.519531 58.023438 C 246.277344 55.507812 252.492188 53.410156 257.859375 49.914062 C 257.953125 49.574219 257.21875 49.828125 257.042969 49.808594 C 246.308594 51.609375 235.535156 53.15625 224.769531 54.792969 C 219.90625 55.496094 215.042969 56.199219 210.140625 56.5625 C 209.964844 56.578125 209.691406 56.734375 209.621094 56.433594 C 216.179688 53.078125 223.503906 50.535156 229.171875 45.640625 C 220.882812 44.808594 212.285156 46.96875 204.375 49.429688 C 203.722656 49.839844 206.515625 53.613281 206.484375 54.46875 C 204.273438 53.875 202.152344 52.632812 199.996094 51.765625 C 199.3125 51.453125 198.707031 51.414062 198.015625 51.707031 C 189.503906 54.96875 181.316406 59.273438 173.71875 64.152344 C 177.496094 59.015625 181.1875 53.527344 182.714844 47.222656 C 182.675781 46.273438 180.125 49.414062 179.757812 49.605469 C 175.296875 53.945312 170.601562 58.078125 165.4375 61.566406 C 163.992188 62.480469 164.902344 64.472656 164.472656 65.882812 C 163.859375 65.96875 164.039062 64.671875 163.453125 65.191406 C 161.464844 67.484375 159.660156 69.996094 157.714844 72.289062 C 158.066406 69.703125 159.078125 67.160156 160.015625 64.710938 C 160.121094 63.941406 157.78125 65.941406 157.464844 66.019531 C 144.367188 74.425781 134.988281 87.675781 129.421875 102.058594 C 129.304688 102.640625 127.769531 105.511719 128.695312 105.191406 Z M 128.695312 105.191406 " fill-opacity="1" fill-rule="nonzero"/></g><path fill="#ce0012" d="M 230.960938 281.203125 C 224 295.449219 213.945312 308.429688 201.683594 318.628906 C 196.179688 323.246094 190.234375 327.300781 183.828125 330.558594 C 183.496094 330.761719 183.328125 330.574219 183.203125 330.222656 C 170.671875 303.609375 166.957031 269.648438 184.910156 244.582031 C 186.558594 242.296875 178.351562 248.582031 178.011719 248.902344 C 165.414062 259.441406 155.769531 273.792969 151.308594 289.554688 C 148.816406 274.828125 150.808594 259.300781 156.3125 245.417969 C 156.339844 245.210938 156.53125 244.988281 156.410156 244.808594 C 155.492188 245.578125 155.074219 246.871094 154.398438 247.867188 C 143.234375 267.082031 138.257812 291.890625 142.117188 313.449219 C 143.964844 310.964844 145.972656 308.605469 147.890625 306.171875 C 148.304688 305.652344 148.804688 305.230469 149.398438 304.9375 C 152.585938 303.453125 155.78125 301.667969 159.0625 300.519531 C 157.910156 305.917969 156.023438 311.296875 154.609375 316.683594 C 154.40625 317.367188 154.457031 317.953125 154.769531 318.570312 C 161.703125 333.238281 170.332031 347.222656 181.597656 358.984375 C 182.019531 359.425781 182.449219 359.59375 183.035156 359.570312 C 184.453125 359.507812 185.871094 359.460938 187.292969 359.457031 C 190.171875 359.242188 196.996094 350.289062 199.273438 347.835938 C 208.769531 336.210938 216.332031 323.082031 222.117188 309.242188 C 225.871094 300.191406 229.058594 290.839844 230.960938 281.203125 Z M 230.960938 281.203125 " fill-opacity="1" fill-rule="nonzero"/><path fill="#ce0012" d="M 114.816406 202.175781 C 114.964844 202.257812 114.953125 202.449219 114.796875 202.515625 C 111.578125 204.054688 108.300781 205.464844 104.820312 206.316406 C 81.96875 211.992188 57.929688 206.652344 36.285156 198.96875 C 56.894531 211.183594 80.945312 215.550781 104.128906 220.34375 C 111.300781 222.035156 119.636719 223.546875 124.472656 229.621094 C 125.214844 230.445312 125.472656 231.957031 126.734375 232.085938 C 128.28125 232.277344 129.828125 232.488281 131.34375 232.875 C 131.414062 233.75 128.558594 235.863281 129.453125 236.355469 C 130.488281 237.253906 140.265625 242.296875 140.464844 240.195312 C 142.339844 232.515625 144.816406 225.011719 147.707031 217.652344 C 147.953125 216.945312 146.421875 216.964844 146.003906 216.683594 C 137.332031 213.453125 128.300781 210.992188 119.875 207.199219 C 120 206.792969 120.390625 206.855469 120.671875 206.773438 C 124.117188 205.851562 127.574219 204.980469 131.015625 204.027344 C 132.898438 203.503906 132.546875 203.8125 133.570312 201.96875 C 136.125 197.09375 138.839844 192.296875 141.382812 187.417969 C 128.984375 185.390625 116.328125 183.078125 104.609375 178.109375 C 103.976562 177.859375 103.96875 177.855469 103.648438 178.515625 C 102.976562 179.734375 102.5625 181.160156 101.742188 182.273438 C 100.875 180.460938 100.40625 178.429688 99.699219 176.539062 C 99.386719 175.5625 98.195312 175.492188 97.417969 175.023438 C 82.695312 168.175781 69.648438 157.875 59.117188 145.699219 C 59.328125 146.664062 59.953125 147.546875 60.320312 148.480469 C 71.324219 172.175781 91.511719 190.785156 114.816406 202.175781 Z M 114.816406 202.175781 " fill-opacity="1" fill-rule="nonzero"/><path fill="#ce0012" d="M 32.113281 175.726562 C 32.523438 176.296875 33.003906 176.542969 33.671875 176.527344 C 34.871094 176.503906 36.074219 176.492188 37.273438 176.464844 C 37.964844 176.445312 38.660156 176.390625 39.347656 176.371094 C 39.714844 176.359375 39.796875 176.46875 39.714844 176.847656 C 39.367188 178.449219 39.042969 180.050781 38.636719 181.640625 C 38.28125 182.980469 40.078125 183.839844 40.796875 184.785156 C 49.132812 192.605469 45.855469 191.425781 57.0625 194.382812 C 58.152344 194.679688 59.242188 194.964844 60.332031 195.246094 C 60.578125 195.292969 60.726562 195.128906 60.582031 194.894531 C 56.164062 187.214844 52.363281 178.898438 50.832031 170.152344 C 60.070312 178.132812 70.453125 185.097656 81.558594 190.179688 C 75.207031 183.402344 69.285156 176.035156 64.515625 167.992188 C 63.804688 166.90625 63.269531 165.636719 62.164062 164.882812 C 60.617188 163.789062 59.066406 162.703125 57.550781 161.574219 C 53.964844 158.890625 50.390625 156.191406 46.828125 153.476562 C 46.339844 153.101562 45.84375 152.910156 45.234375 152.917969 C 43.921875 152.9375 42.609375 152.925781 41.296875 152.925781 C 41.296875 152.933594 41.296875 152.945312 41.296875 152.953125 C 40.316406 153 39.332031 153.046875 38.351562 153.089844 C 38.027344 153.019531 36.40625 153.414062 36.703125 152.785156 C 37.625 150.804688 38.570312 148.835938 39.53125 146.878906 C 39.789062 146.445312 39.394531 146.160156 39.066406 145.925781 C 25.351562 135.421875 14.003906 121.40625 8.851562 104.773438 C 6.992188 112.199219 7.5625 120.328125 8.605469 127.933594 C 11.34375 145.882812 20.484375 162.039062 32.113281 175.726562 Z M 32.113281 175.726562 " fill-opacity="1" fill-rule="nonzero"/><path fill="#ce0012" d="M 82.398438 251.027344 C 68.984375 246.070312 56.035156 238.027344 48.210938 225.722656 C 64.5 233.28125 83.253906 237.695312 101.199219 234.792969 C 63.195312 229.773438 23.765625 213.933594 0.8125 181.832031 C 0.710938 181.699219 0.554688 181.519531 0.417969 181.515625 C 0.152344 181.507812 0.246094 181.777344 0.230469 181.929688 C 0.15625 182.507812 0.0820312 183.089844 0.0546875 183.671875 C -1.214844 209.515625 19.277344 229.996094 41.417969 239.96875 C 54.273438 246.046875 68.257812 249.8125 82.398438 251.027344 Z M 82.398438 251.027344 " fill-opacity="1" fill-rule="nonzero"/><path fill="#ce0012" d="M 374.871094 182.40625 C 374.882812 181.664062 374.375 182.1875 374.152344 182.519531 C 367.4375 191.609375 359.316406 199.601562 350.246094 206.335938 C 344.898438 210.328125 339.273438 213.890625 333.433594 217.121094 C 332.792969 217.429688 333.058594 218.230469 332.996094 218.804688 C 332.996094 220.371094 332.996094 221.9375 332.996094 223.503906 C 332.984375 223.503906 332.972656 223.503906 332.957031 223.503906 C 332.667969 231.015625 334.40625 229.292969 329.058594 230.808594 C 326.660156 231.628906 327.519531 228.648438 326.1875 230.53125 C 321.566406 235.84375 316.167969 240.421875 310.207031 244.171875 C 307.535156 245.859375 307.621094 245.699219 306.035156 248.34375 C 305.660156 249.164062 304.070312 250.503906 306.179688 249.972656 C 339.617188 244.816406 377.492188 220.121094 374.871094 182.40625 Z M 374.871094 182.40625 " fill-opacity="1" fill-rule="nonzero"/><path fill="#ce0012" d="M 332.421875 189.277344 C 335.492188 185.875 338.679688 182.578125 341.605469 179.042969 C 341.992188 178.601562 342.148438 178.171875 341.964844 177.558594 C 341.164062 174.722656 340.507812 171.847656 339.816406 168.984375 C 339.714844 168.546875 339.832031 168.429688 340.238281 168.492188 C 342.644531 168.894531 345.0625 169.203125 347.476562 169.550781 C 348.019531 169.640625 348.390625 169.464844 348.679688 169.03125 C 350.417969 166.472656 352.128906 163.890625 353.769531 161.269531 C 363.914062 144.625 369.425781 124.246094 365.621094 104.882812 C 359.871094 122.792969 346.960938 136.847656 332.445312 148.304688 C 335.761719 151.886719 340.152344 154.515625 343.695312 157.921875 C 343.765625 158.195312 343.402344 158.132812 343.230469 158.160156 C 336.515625 158.296875 331.164062 158.21875 325.417969 158.289062 C 324.550781 158.253906 325.667969 160.199219 325.691406 160.691406 C 328.921875 169.945312 330.421875 179.824219 332.421875 189.277344 Z M 332.421875 189.277344 " fill-opacity="1" fill-rule="nonzero"/><path fill="#ce0012" d="M 120.40625 168.484375 C 118 160.484375 120.570312 151.023438 128.15625 146.773438 C 129.121094 146.203125 129.785156 145.480469 130.1875 144.457031 C 131.082031 142.300781 131.828125 139.796875 134.3125 139.03125 C 144.136719 135.382812 154.207031 132.476562 164.136719 129.140625 C 166.355469 128.496094 163.886719 128.4375 163.078125 128.257812 C 151.597656 126.574219 140.277344 123.847656 128.777344 122.332031 C 128.457031 122.308594 128.375 122.167969 128.566406 121.925781 C 129.242188 121.074219 129.878906 120.167969 130.640625 119.394531 C 132.945312 117.074219 135.5625 115.191406 138.601562 113.929688 C 138.804688 113.800781 139.46875 113.65625 139.097656 113.359375 C 135.296875 110.898438 129.855469 109.421875 125.882812 112.285156 C 124.289062 113.4375 122.671875 114.554688 121.085938 115.714844 C 107.535156 124.167969 107.578125 142.769531 112.878906 156.175781 C 114.6875 160.636719 116.914062 165.140625 120.40625 168.484375 Z M 120.40625 168.484375 " fill-opacity="1" fill-rule="nonzero"/><path fill="#ce0012" d="M 58.09375 280.074219 C 69.578125 282.800781 82.320312 283.917969 94.058594 280.257812 C 84.539062 277.371094 74.59375 273.898438 66.652344 267.605469 C 68.519531 267.589844 70.417969 268.265625 72.308594 268.398438 C 74.953125 268.726562 77.613281 268.660156 80.273438 268.65625 C 90.234375 268.363281 100.90625 266.019531 108.765625 259.734375 C 94.753906 264.816406 79.359375 264.148438 64.761719 262.152344 C 53.636719 260.839844 58.246094 258.414062 49.234375 264.042969 C 48.859375 264.148438 46.238281 266.167969 46.390625 265.335938 C 46.835938 263.3125 47.207031 261.269531 47.613281 259.234375 C 47.714844 258.703125 47.652344 258.625 47.105469 258.484375 C 43.492188 257.625 39.945312 256.53125 36.457031 255.261719 C 31.953125 253.695312 27.570312 251.824219 23.292969 249.71875 C 23.226562 249.691406 23.097656 249.664062 23.09375 249.679688 C 23.050781 249.773438 22.988281 249.890625 23.015625 249.976562 C 26.402344 261.957031 36.164062 271.085938 47.285156 276.109375 C 48.886719 277.035156 49.429688 274.082031 50.832031 274.59375 C 52.1875 275.226562 53.652344 275.554688 55.058594 276.050781 C 55.890625 276.3125 55.769531 277.320312 56 278.007812 C 56.46875 279.964844 56.109375 279.621094 58.09375 280.074219 Z M 58.09375 280.074219 " fill-opacity="1" fill-rule="nonzero"/><path fill="#ce0012" d="M 331.046875 258.769531 C 330.78125 261.960938 330.546875 265.160156 330.277344 268.351562 C 330.195312 268.90625 330.152344 270.195312 329.460938 269.179688 C 326.980469 266.21875 324.5 263.265625 322.042969 260.289062 C 321.925781 260.144531 321.78125 260.152344 321.691406 260.300781 C 320.429688 262.597656 319.386719 265.007812 318.214844 267.347656 C 318.105469 267.582031 317.910156 267.640625 317.769531 267.375 C 316.6875 265.5625 315.578125 263.765625 314.484375 261.964844 C 314.226562 261.425781 313.761719 261.503906 313.265625 261.609375 C 310.464844 262.09375 307.660156 262.527344 304.828125 262.804688 C 302.21875 263.058594 299.601562 263.214844 296.980469 263.261719 C 296.289062 263.273438 295.816406 263.46875 295.402344 264.011719 C 294.570312 265.117188 293.695312 266.191406 292.839844 267.277344 C 292.644531 267.617188 291.589844 268.429688 292.269531 268.578125 C 298.515625 269.105469 304.761719 268.453125 310.878906 267.449219 C 303.007812 273.597656 293.394531 277.050781 284.191406 280.542969 C 295.84375 283.410156 308.550781 282.9375 320.28125 279.800781 C 321.882812 279.292969 320.664062 276.578125 322.402344 276.132812 C 323.957031 275.625 325.480469 275.015625 327.03125 274.492188 C 327.945312 274.175781 328.4375 275.230469 329.015625 275.746094 C 329.550781 276.316406 329.628906 276.359375 330.332031 276.035156 C 341.394531 271.207031 351.414062 261.714844 354.109375 249.726562 C 347 253.167969 339.515625 255.976562 331.828125 257.917969 C 331.175781 258.082031 331.101562 258.15625 331.046875 258.769531 Z M 331.046875 258.769531 " fill-opacity="1" fill-rule="nonzero"/><path fill="#ce0012" d="M 123.800781 294.054688 C 123.5 293.910156 123.199219 294.222656 122.910156 294.3125 C 121.226562 295.085938 119.539062 295.859375 117.765625 296.425781 C 109.238281 299.09375 99.929688 299.976562 91.132812 298.683594 C 102.722656 295.804688 115.167969 290.660156 121.089844 279.621094 C 103.792969 294.359375 77.753906 296.441406 55.9375 298.609375 C 64.703125 305.015625 75.347656 309.609375 86.296875 310.570312 C 86.875 310.621094 86.960938 310.535156 86.941406 310.003906 C 86.9375 307.929688 86.601562 305.867188 86.476562 303.8125 C 88.105469 305.199219 89.460938 306.976562 90.976562 308.511719 C 91.328125 308.898438 91.691406 309.074219 92.21875 308.960938 C 100.25 307.605469 108.179688 305.230469 115.183594 300.984375 C 118.277344 299.019531 121.449219 296.863281 123.800781 294.054688 Z M 123.800781 294.054688 " fill-opacity="1" fill-rule="nonzero"/><path fill="#ce0012" d="M 251.375 303.382812 C 250.945312 303.132812 250.835938 303.140625 250.527344 303.5 C 249.421875 304.71875 249.421875 304.835938 249.867188 306.328125 C 252.328125 314.554688 251.367188 322.832031 248.21875 330.449219 C 247.785156 329.746094 247.847656 328.921875 247.699219 328.152344 C 247.0625 323.203125 245.496094 318.410156 243.421875 313.882812 C 243.3125 313.679688 243.140625 313.664062 243.003906 313.863281 C 242.210938 314.996094 241.414062 316.125 240.652344 317.28125 C 239.734375 318.675781 239.101562 320.253906 237.96875 321.515625 C 237.296875 322.242188 238.191406 323.964844 238.410156 324.828125 C 241.484375 330.925781 244.546875 337.828125 242.3125 344.734375 C 241.945312 345.964844 241.414062 347.109375 240.644531 348.148438 C 240.292969 348.746094 239.664062 349.261719 239.523438 349.941406 C 252.945312 343.359375 258.914062 327.214844 255.210938 313.097656 C 258.269531 316.996094 260.488281 321.574219 262.207031 326.230469 C 262.425781 326.800781 262.714844 327.128906 263.359375 327.207031 C 268.25 327.964844 273.152344 328.640625 278.0625 329.296875 C 281.429688 329.578125 281.847656 330.339844 279.476562 327.203125 C 272.332031 317.011719 262.050781 309.539062 251.375 303.382812 Z M 251.375 303.382812 " fill-opacity="1" fill-rule="nonzero"/><path fill="#ce0012" d="M 322.425781 298.4375 C 308.296875 297.390625 294.203125 294.953125 280.546875 291.152344 C 280.09375 291.015625 279.644531 290.875 279.1875 290.761719 C 278.449219 290.574219 278.390625 290.601562 277.933594 291.261719 C 277.339844 292.132812 276.742188 293.007812 276.152344 293.878906 C 275.984375 294.175781 275.515625 294.65625 275.976562 294.890625 C 280.519531 296.535156 285.355469 297.652344 289.886719 299.144531 C 283.082031 299.980469 276.117188 299.839844 269.324219 298.761719 C 264.9375 298.023438 260.625 297 256.539062 295.191406 C 256.234375 295.058594 256.0625 295.140625 255.890625 295.367188 C 255.5625 295.8125 255.566406 296.015625 256.015625 296.382812 C 257.171875 297.328125 258.3125 298.289062 259.507812 299.183594 C 267.503906 304.839844 277.101562 307.757812 286.691406 309.277344 C 287.664062 309.757812 288.328125 309.167969 288.933594 308.476562 C 290.40625 307.148438 291.660156 305.53125 293.289062 304.402344 C 293.308594 306.246094 293 308.09375 292.925781 309.941406 C 292.804688 310.621094 293.417969 310.414062 293.859375 310.390625 C 293.859375 310.394531 293.859375 310.394531 293.859375 310.398438 C 304.140625 309.386719 313.773438 305.085938 322.152344 299.160156 C 322.425781 299.015625 323.039062 298.542969 322.425781 298.4375 Z M 322.425781 298.4375 " fill-opacity="1" fill-rule="nonzero"/><path fill="#ce0012" d="M 130.898438 312 C 130.800781 311.296875 131.109375 309.988281 130.734375 309.234375 C 126.433594 316.359375 124.042969 324.75 123.25 333.035156 C 120.726562 325.972656 120.109375 317.992188 121.746094 310.601562 C 122.355469 308.007812 123.128906 305.472656 124.417969 303.121094 C 124.667969 302.730469 124.722656 302.1875 124.027344 302.539062 C 113.796875 306.703125 105.019531 313.699219 97.308594 321.496094 C 96.5 322.007812 98.136719 326.550781 98.222656 327.726562 C 98.367188 328.363281 98.523438 329.003906 98.6875 329.636719 C 98.777344 330.128906 99.195312 330.042969 99.558594 329.941406 C 102.304688 329.21875 105.046875 328.496094 107.792969 327.773438 C 108.410156 327.609375 108.96875 327.355469 109.175781 326.691406 C 111.070312 321.753906 113.230469 316.550781 116.855469 312.695312 C 111.75 325.847656 117.664062 342.273438 130.171875 348.9375 C 130.558594 348.890625 130.054688 348.355469 129.996094 348.167969 C 125.644531 340.746094 128.433594 331.472656 130.992188 323.878906 C 131.386719 322.832031 131.578125 321.851562 131.472656 320.714844 C 131.203125 317.878906 131.089844 315.042969 130.898438 312 Z M 130.898438 312 " fill-opacity="1" fill-rule="nonzero"/><path fill="#ce0012" d="M 226.886719 324.605469 C 226.265625 325.191406 226.171875 325.894531 226.242188 326.695312 C 226.777344 333.859375 226.515625 340.480469 223.503906 346.621094 C 222.980469 345.8125 222.769531 344.800781 222.28125 343.960938 C 222.066406 343.382812 218.964844 339.050781 218.582031 340.371094 C 217.019531 343.003906 215.121094 345.546875 213.707031 348.234375 C 214.140625 352.046875 214.539062 355.921875 213.9375 359.757812 C 213.4375 364.890625 211.523438 369.832031 209.820312 374.5625 C 220.910156 367.167969 230.015625 355.359375 231.980469 341.929688 C 232.09375 335.875 230.515625 329.90625 228.34375 324.296875 C 227.835938 322.660156 227.5625 323.972656 226.886719 324.605469 Z M 226.886719 324.605469 " fill-opacity="1" fill-rule="nonzero"/><path fill="#ce0012" d="M 157.472656 350.613281 C 157.714844 349.933594 157.722656 349.355469 157.277344 348.773438 C 155.882812 346.433594 154.570312 344.03125 153.203125 341.671875 C 153.039062 341.414062 152.855469 340.824219 152.472656 341.132812 C 150.390625 342.804688 149.175781 345.1875 148.148438 347.570312 C 146.175781 343.265625 146.066406 338.351562 146.34375 333.683594 C 146.351562 333.449219 146.570312 333.140625 146.257812 333.015625 C 143.375 335.136719 140.804688 337.9375 138.007812 340.25 C 137.15625 340.863281 137.414062 341.632812 137.570312 342.503906 C 140.277344 355.546875 148.039062 368.304688 159.851562 374.886719 C 160.582031 375.207031 158.824219 372.054688 158.832031 371.746094 C 156.265625 365.066406 155.082031 357.515625 157.472656 350.613281 Z M 157.472656 350.613281 " fill-opacity="1" fill-rule="nonzero"/><path fill="#ce0012" d="M 239.488281 261.785156 C 240.949219 258.105469 238.003906 246.898438 236.886719 242.769531 C 236.773438 242.40625 236.59375 242.550781 236.386719 242.722656 C 234.210938 245.921875 231.609375 248.777344 228.875 251.5 C 228.121094 252.203125 227.839844 253.023438 227.8125 254.007812 C 226.921875 263.269531 223.6875 272.21875 219.773438 280.546875 C 227.121094 275.390625 233.765625 268.777344 239.488281 261.785156 Z M 239.488281 261.785156 " fill-opacity="1" fill-rule="nonzero"/><path fill="#ce0012" d="M 190.441406 98.761719 C 183.648438 98.859375 176.871094 100.804688 171.023438 104.253906 C 169.785156 105.015625 168.601562 105.871094 167.402344 106.699219 C 166.945312 107.015625 166.9375 107.128906 167.359375 107.542969 C 167.855469 108.027344 168.351562 108.511719 168.898438 108.925781 C 178.425781 115.882812 190.367188 110.316406 193.011719 99.253906 C 193.34375 98.371094 190.933594 98.886719 190.441406 98.761719 Z M 190.441406 98.761719 " fill-opacity="1" fill-rule="nonzero"/><path fill="#ce0012" d="M 158.222656 133.570312 C 152.058594 135.402344 145.949219 137.445312 139.832031 139.433594 C 137.585938 140.238281 134.980469 140.953125 133.898438 143.3125 C 132.917969 145.164062 132.171875 147.25 130.425781 148.53125 C 128.335938 150.179688 126.53125 152.164062 124.917969 154.261719 C 124.808594 154.460938 124.921875 154.691406 125.183594 154.609375 C 127.542969 153.753906 129.984375 153.152344 132.289062 152.148438 C 137.441406 149.777344 138.382812 149.664062 139.652344 143.964844 C 139.789062 143.238281 140.503906 143.050781 141.0625 142.738281 C 146.863281 139.84375 152.773438 136.921875 158.34375 133.675781 C 158.304688 133.636719 158.257812 133.5625 158.222656 133.570312 Z M 158.222656 133.570312 " fill-opacity="1" fill-rule="nonzero"/><path fill="#ce0012" d="M 318.722656 224.808594 C 318.300781 224.988281 318.007812 225.292969 317.828125 225.710938 C 316.886719 228.015625 315.535156 230.296875 314.722656 232.605469 C 314.941406 232.855469 315.171875 232.5625 315.390625 232.488281 C 318.785156 231.109375 322.621094 230.089844 325.59375 228.019531 C 324.417969 226.59375 323.21875 225.175781 322.011719 223.777344 C 321.621094 223.1875 319.40625 224.660156 318.722656 224.808594 Z M 318.722656 224.808594 " fill-opacity="1" fill-rule="nonzero"/></svg>